/* XPM */
static char * closeI_xpm[] = {
"27 32 33 1",
" 	c None",
".	c #000000",
"+	c #010101",
"@	c #9F9F9F",
"#	c #A1A1A1",
"$	c #848484",
"%	c #818181",
"&	c #767676",
"*	c #6F6F6F",
"=	c #656565",
"-	c #5A5A5A",
";	c #515151",
">	c #4D4D4D",
",	c #444444",
"'	c #3D3D3D",
")	c #383838",
"!	c #303030",
"~	c #2B2B2B",
"{	c #282828",
"]	c #222222",
"^	c #1C1C1C",
"/	c #161616",
"(	c #111111",
"_	c #202020",
":	c #1B1B1B",
"<	c #171717",
"[	c #141414",
"}	c #0D0D0D",
"|	c #0B0B0B",
"1	c #0A0A0A",
"2	c #070707",
"3	c #FFFFFF",
"4	c #0C0C0C",
"......................+.++.",
"@@@@@@@@@@@@@@#############",
"$%%%%%%%%%%%%%$$$$$$$$$$$$$",
"$$$$$%%%%%%%%%$$$$$$$$$$$$$",
"$$$$$$$%%&*=-;>,')!~{]^/(((",
"_:<[(}|12222222222222222222",
"222222332233222222222222222",
"222222333333222222222222222",
"222222233332222222222222222",
"222222233332222222222222222",
"222222333333222222222222222",
"222222332233222222222222222",
"222222222222222222222222222",
"222222222222222222222222222",
"}}}}}}}}}}}44444444444444}}",
"...........................",
"......................+.+++",
"@@@@@@@@@@@@@@#############",
"$%%%%%%%%%%%%%$$$$$$$$$$$$$",
"$$$$$%%%%%%%%%$$$$$$$$$$$$$",
"$$$$$$$%%&*=-;>,')!~{]^/(((",
"_:<[(}|12222222222222222222",
"222222332233222222222222222",
"222222333333222222222222222",
"222222233332222222222222222",
"222222233332222222222222222",
"222222333333222222222222222",
"222222332233222222222222222",
"222222222222222222222222222",
"222222222222222222222222222",
"}}}}}}}}}}}44444444444444}}",
"..........................."};
