/* XPM */
static char * frameBR_xpm[] = {
"22 22 17 1",
" 	c None",
".	c #1B1612",
"+	c #000000",
"@	c #040404",
"#	c #1A1511",
"$	c #151515",
"%	c #0E0D0C",
"&	c #392D25",
"*	c #0F0D0C",
"=	c #1B1B1B",
"-	c #0B0A09",
";	c #141414",
">	c #221C18",
",	c #080808",
"'	c #161616",
")	c #100E0D",
"!	c #060606",
".+++++@               ",
".+++++@               ",
".+++++@               ",
".+++++@               ",
".+++++@               ",
".+++++@               ",
".+++++@               ",
".+++++@               ",
"#+++++@               ",
"#+++++@               ",
"#+++++@               ",
"#+++++@               ",
"#+++++@               ",
"#+++++@               ",
"#+++++@               ",
" $++++@@@@@@@@@@@@@@@@",
" %++++++++++++++++++++",
" &$+++++++++++++++++++",
"  *=++++++++++++++++++",
"   -;+++++++++++++++++",
"    >,'+++++++++++++++",
"       )!@@@@@@@@@@@@@"};
