/* XPM */
static char * frameITL_xpm[] = {
"6 21 16 1",
" 	c None",
".	c #040404",
"+	c #010101",
"@	c #292929",
"#	c #7B7B7B",
"$	c #060606",
"%	c #0B0B0B",
"&	c #090909",
"*	c #0D0D0D",
"=	c #0E0E0E",
"-	c #0C0C0C",
";	c #000000",
">	c #131313",
",	c #151515",
"'	c #161616",
")	c #262626",
"      ",
"      ",
"      ",
"      ",
"      ",
"      ",
"      ",
"    .+",
"   +@#",
"  +###",
" $%###",
" +####",
"&$*###",
"+=*---",
";>----",
";,----",
";'----",
";'----",
";'----",
";'----",
";'---)"};
