/* XPM */
static char * frameABR_xpm[] = {
"22 22 19 1",
" 	c None",
".	c #040404",
"+	c #000000",
"@	c #292929",
"#	c #232323",
"$	c #1B1612",
"%	c #1A1511",
"&	c #151515",
"*	c #0E0D0C",
"=	c #392D25",
"-	c #1B1B1B",
";	c #0F0D0C",
">	c #141414",
",	c #0B0A09",
"'	c #161616",
")	c #080808",
"!	c #221C18",
"~	c #060606",
"{	c #100E0D",
"               .+++@#$",
"               .+++++$",
"               .+++++$",
"               .+++++$",
"               .+++++$",
"               .+++++$",
"               .+++++$",
"               .+++++$",
"               .+++++%",
"               .+++++%",
"               .+++++%",
"               .+++++%",
"               .+++++%",
"               .+++++%",
"               .+++++%",
"................++++& ",
"++++++++++++++++++++* ",
"+++++++++++++++++++&= ",
"++++++++++++++++++-;  ",
"+++++++++++++++++>,   ",
"+++++++++++++++')!    ",
".............~{       "};
