/* XPM */
static char * frameITR_xpm[] = {
"6 21 22 1",
" 	c None",
".	c #010101",
"+	c #040404",
"@	c #898989",
"#	c #292929",
"$	c #858585",
"%	c #878787",
"&	c #494949",
"*	c #1D1D1D",
"=	c #191919",
"-	c #161616",
";	c #0B0B0B",
">	c #060606",
",	c #0C0C0C",
"'	c #101010",
")	c #0D0D0D",
"!	c #090909",
"~	c #0E0E0E",
"{	c #131313",
"]	c #000000",
"^	c #151515",
"/	c #262626",
"      ",
"      ",
"      ",
"      ",
"      ",
"      ",
"      ",
".+    ",
"@#.   ",
"$%&.  ",
"*=-;> ",
",;;'. ",
",,,)>!",
",,,)~.",
",,,,{]",
",,,,^]",
",,,,-]",
",,,,-]",
",,,,-]",
",,,,-]",
"/,,,-]"};
