/* XPM */
static char * frameBL_xpm[] = {
"22 22 3 1",
" 	c None",
".	c #000000",
"+	c #131313",
"....+                 ",
".....                 ",
".....                 ",
".....                 ",
".....                 ",
".....                 ",
".....                 ",
".....                 ",
".....                 ",
".....                 ",
".....                 ",
".....                 ",
".....                 ",
".....                 ",
"....+                 ",
"....+                 ",
".....                 ",
".....                 ",
".....                 ",
"......................",
" .....................",
"  ...................."};
