/* XPM */
static char * maximizeI_xpm[] = {
"19 32 29 1",
" 	c None",
".	c #000000",
"+	c #9F9F9F",
"@	c #A1A1A1",
"#	c #7E7E7E",
"$	c #818181",
"%	c #848484",
"&	c #797979",
"*	c #717171",
"=	c #676767",
"-	c #606060",
";	c #585858",
">	c #4D4D4D",
",	c #484848",
"'	c #424242",
")	c #383838",
"!	c #333333",
"~	c #2F2F2F",
"{	c #282828",
"]	c #161616",
"^	c #141414",
"/	c #111111",
"(	c #0E0E0E",
"_	c #0C0C0C",
":	c #0A0A0A",
"<	c #080808",
"[	c #070707",
"}	c #FFFFFF",
"|	c #0D0D0D",
"...................",
"++++++++@@@@@@+++++",
"########$$$$$$$$$%%",
"########$$$$$$$$$%%",
"########$$$$$$$$$%%",
"#######&*=-;>,')!~{",
"]^/(_:<[[}}}}[[[[[[",
"[[[[[[[[[[}}}[[[[[[",
"[[[[[[[}[[[}}[[[[[[",
"[[[[[[[}}[[[}[[[[[[",
"[[[[[[[}}}[[[[[[[[[",
"[[[[[[[}}}}[[[[[[[[",
"[[[[[[[[[[[[[[[[[[[",
"[[[[[[[[[[[[[[[[[[[",
"____________|||||||",
"...................",
"...................",
"++++++++@@@@@@+++++",
"########$$$$$$$$$%%",
"########$$$$$$$$$%%",
"########$$$$$$$$$%%",
"#######&*=-;>,')!~{",
"]^/(_:<[[}}}}[[[[[[",
"[[[[[[[[[[}}}[[[[[[",
"[[[[[[[}[[[}}[[[[[[",
"[[[[[[[}}[[[}[[[[[[",
"[[[[[[[}}}[[[[[[[[[",
"[[[[[[[}}}}[[[[[[[[",
"[[[[[[[[[[[[[[[[[[[",
"[[[[[[[[[[[[[[[[[[[",
"____________|||||||",
"..................."};
