/* XPM */
static char * menubg_xpm[] = {
"5 513 64 1",
" 	c None",
".	c #484C4E",
"+	c #A1A3A5",
"@	c #8A8C8E",
"#	c #616365",
"$	c #505254",
"%	c #4E5052",
"&	c #4C4F50",
"*	c #4B4D4D",
"=	c #484A4A",
"-	c #46494A",
";	c #464A49",
">	c #464A4A",
",	c #454949",
"'	c #4A4C4C",
")	c #474949",
"!	c #454849",
"~	c #444748",
"{	c #424546",
"]	c #414445",
"^	c #404344",
"/	c #3E4142",
"(	c #3D4041",
"_	c #3C3F40",
":	c #3B3E3F",
"<	c #393C3D",
"[	c #383B3C",
"}	c #373A3B",
"|	c #36393A",
"1	c #353839",
"2	c #333637",
"3	c #323536",
"4	c #313435",
"5	c #303334",
"6	c #2F3233",
"7	c #2E3132",
"8	c #2D3031",
"9	c #2B2E2F",
"0	c #2A2D2E",
"a	c #292C2D",
"b	c #272A2B",
"c	c #26292A",
"d	c #252829",
"e	c #242728",
"f	c #232627",
"g	c #222526",
"h	c #212425",
"i	c #202324",
"j	c #1F2223",
"k	c #1E2122",
"l	c #1E2222",
"m	c #1D2121",
"n	c #1C2020",
"o	c #1B1F1F",
"p	c #1A1E1E",
"q	c #191D1D",
"r	c #171A1B",
"s	c #181B1C",
"t	c #1B1E1F",
"u	c #1A1D1E",
"v	c #191C1D",
"w	c #1D2021",
"x	c #181A1A",
"y	c #3A4846",
".....",
"+++++",
"@@@@@",
"#####",
"$%%%%",
"&****",
"==--=",
";>>>;",
",,,,,",
"--;--",
"''=='",
"*****",
"&&*&&",
"&&&&&",
"&&&&&",
"&&&&&",
"&&&&&",
"&&&&&",
"&&&&&",
"&&&&&",
"&&&&&",
"&&&&&",
"&&&&&",
"&&&&&",
"&&&&&",
"&&&&&",
"&&&&&",
"&&&&&",
"&&&&&",
"&&&&&",
"&&&&&",
"&&&&&",
"&&&&&",
"&&&&&",
"&&&&&",
"&&&&&",
"&&&&&",
"&&&&&",
"&&&&&",
"&&&&&",
"&&&&&",
"&&&&&",
"&&&&&",
"&&&&&",
"&&&&&",
"&&&&&",
"&&&&&",
"&&&&&",
"&&&&&",
"&&&&&",
"&&&&&",
"&&&&&",
"&&&&&",
"&&&&&",
"&&&&&",
"&&&&&",
"&&&&&",
"&&&&&",
"&&&&&",
"&&&&&",
"&&&&&",
"&&&&&",
"&&&&&",
"&&&&&",
"&&&&&",
"&&&&&",
"&&&&&",
"&&&&&",
"&&&&&",
"&&&&&",
"&&&&&",
"&&&&&",
"&&&&&",
"&&&&&",
"&&&&&",
"&&&&&",
"&&&&&",
"&&&&&",
"&&&&&",
"&&&&&",
"&&&&&",
"&&&&&",
"&&&&&",
"&&&&&",
"&&&&&",
"*****",
"*****",
"*****",
"*****",
"*****",
"*****",
"*****",
"*****",
"*****",
"*****",
"*****",
"*****",
"*****",
"*****",
"*****",
"*****",
"*****",
"*****",
"'''''",
"'''''",
"'''''",
"*****",
"*****",
"*****",
"'''''",
"'''''",
"'''''",
"'''''",
"'''''",
"'''''",
"'''''",
"=====",
"=====",
"=====",
"=====",
")))))",
")))))",
")))))",
")))))",
")))))",
")))))",
")))))",
"-----",
"-----",
"-----",
"-----",
"-----",
"-----",
"-----",
"!!!!!",
"!!!!!",
"!!!!!",
"!!!!!",
"!!!!!",
"~~~~~",
"~~~~~",
"~~~~~",
"~~~~~",
"~~~~~",
"~~~~~",
"~~~~~",
"{{{{{",
"{{{{{",
"{{{{{",
"{{{{{",
"{{{{{",
"{{{{{",
"{{{{{",
"]]]]]",
"]]]]]",
"]]]]]",
"]]]]]",
"^^^^^",
"^^^^^",
"^^^^^",
"^^^^^",
"^^^^^",
"^^^^^",
"^^^^^",
"/////",
"(((((",
"(((((",
"(((((",
"(((((",
"(((((",
"(((((",
"_____",
"_____",
"_____",
"_____",
"_____",
":::::",
":::::",
":::::",
":::::",
":::::",
":::::",
":::::",
"<<<<<",
"<<<<<",
"<<<<<",
"<<<<<",
"<<<<<",
"<<<<<",
"<<<<<",
"[[[[[",
"[[[[[",
"[[[[[",
"[[[[[",
"}}}}}",
"}}}}}",
"}}}}}",
"}}}}}",
"}}}}}",
"}}}}}",
"}}}}}",
"|||||",
"||||1",
"|||11",
"||111",
"|1111",
"11112",
"11112",
"22222",
"22222",
"22222",
"33333",
"33333",
"33444",
"34444",
"44444",
"44445",
"44455",
"44555",
"45555",
"55555",
"55555",
"66666",
"66666",
"66666",
"77777",
"77777",
"88888",
"88888",
"88888",
"88888",
"88888",
"88888",
"88888",
"77777",
"77777",
"77777",
"77777",
"88888",
"99999",
"99999",
"99999",
"99999",
"99999",
"99999",
"99999",
"00000",
"00000",
"00000",
"00000",
"aaaaa",
"aaaaa",
"aaaaa",
"aaaaa",
"aaaaa",
"aaaaa",
"aaaaa",
"bbbbb",
"bbbbb",
"bbbbb",
"bbbbb",
"bbbbb",
"ccccc",
"ccccc",
"ddddd",
"ddddd",
"ddddd",
"ddddd",
"ddddd",
"eeeee",
"eeeee",
"fffff",
"fffff",
"fffff",
"ffgff",
"fgggf",
"ggggg",
"ggggg",
"ggggg",
"ggggg",
"ggggg",
"ggggg",
"ggggg",
"ggggg",
"ggggg",
"ggggg",
"ggggg",
"ggggg",
"ggggg",
"ggggg",
"ggggg",
"ggggg",
"ggggg",
"ggggg",
"hhhhh",
"hhhhh",
"hhhhh",
"hhhhh",
"hhhhh",
"hhhhh",
"hhhhh",
"hhhhh",
"hhhhh",
"hhhhh",
"hhhhh",
"hhhhh",
"hhhhh",
"hhhhh",
"hhhhh",
"hhhhh",
"hhhhh",
"hhhhh",
"hhhhh",
"hhhhh",
"hhhhh",
"hhhhh",
"hhhhh",
"hhhhh",
"hhhhh",
"hhhhh",
"iiiii",
"iiiii",
"iiiii",
"iiiii",
"jjjjj",
"jjjjj",
"jjjjj",
"jjjjj",
"jjjjj",
"jjjjj",
"jjjjj",
"iiiii",
"iiiii",
"iiiii",
"iiiii",
"iiiii",
"iiiii",
"iiiii",
"jjjjj",
"jjjjj",
"jjjjj",
"jjjjj",
"jjjjj",
"kkkkk",
"kkkkk",
"kkkkk",
"kkkkk",
"kkkkk",
"kkkkk",
"kkkkk",
"kkkkk",
"kkkkk",
"kkkkk",
"kkkkk",
"kkkkk",
"kkkkk",
"kkkkk",
"kkkkk",
"kkkkk",
"kkkkk",
"kkkkk",
"kkkkk",
"kkkkk",
"kkkkk",
"kkkkk",
"kkkkk",
"kkkkk",
"kkkkk",
"kkkkk",
"kkkkk",
"kkkkk",
"kkkkk",
"kkkkk",
"kkkkk",
"kkkkk",
"kkkkk",
"kkkkk",
"kkkkk",
"kkkkk",
"kkkkk",
"kkkkk",
"kkkkk",
"kkkkk",
"kkkkk",
"kkkkk",
"kkkkk",
"kkkkk",
"lllkk",
"llllm",
"llllm",
"llllm",
"llllm",
"llllm",
"llllm",
"llllm",
"llllm",
"llllm",
"llllm",
"llllm",
"llllm",
"llllm",
"llllm",
"llllm",
"llllm",
"llllm",
"lllmm",
"mmmmn",
"mmmmn",
"mmmmn",
"mmmmn",
"mmmmn",
"mmmmn",
"mmmmn",
"mmmmn",
"mmmmn",
"mmmmn",
"mmmmn",
"mmmmn",
"mmmmn",
"mmmmn",
"mmmmn",
"mmmmn",
"mmmmn",
"mmmmn",
"mmmmm",
"mmmmm",
"mmmmm",
"mmmmm",
"mmmmm",
"mmmmm",
"mmmmm",
"nnnnn",
"nnnnn",
"nnnnn",
"nnnnn",
"nnnnn",
"ooooo",
"ooooo",
"ooooo",
"ooooo",
"ooooo",
"ooooo",
"ooooo",
"ooooo",
"ooooo",
"ooooo",
"ooooo",
"ooooo",
"ooooo",
"ooooo",
"ooooo",
"ooooo",
"ooooo",
"ooooo",
"ooooo",
"ooooo",
"ooooo",
"ooooo",
"ooooo",
"ooooo",
"ooooo",
"ppppp",
"qqqqp",
"qqqqp",
"qqqqp",
"qqqqp",
"qqqqp",
"qqqqp",
"qqqqp",
"qqqqp",
"qqqqp",
"qqqqp",
"qqqqp",
"qqqqp",
"qqqqp",
"qqqqp",
"qqqqp",
"qqqqp",
"qqqqp",
"qqqqp",
"qqqqp",
"qqqqp",
"qqqqp",
"qqqqp",
"qqqqp",
"qqqqp",
"qqqqp",
"qqqqp",
"qqqqp",
"qqqqp",
"qqqqp",
"qqqqp",
"qqqqp",
"qqqqp",
"qqqqp",
"qqqqp",
"qqqqp",
"qqqqp",
"qqqqq",
"rrrrr",
"qssss",
"ppqpp",
"oopoo",
"opppo",
"tuppt",
"uuuuu",
"vvvvv",
"ttttt",
"wwwww",
"wwwww",
"uuuuu",
"xxxxx",
"yyyyy"};
