/* XPM */
static char * menubg_xpm[] = {
"200 1 100 2",
"  	c None",
". 	c #5E605C",
"+ 	c #6B6D69",
"@ 	c #787A76",
"# 	c #848682",
"$ 	c #91938F",
"% 	c #9EA09C",
"& 	c #9D9F9B",
"* 	c #979995",
"= 	c #8B8E89",
"- 	c #858883",
"; 	c #7F827D",
"> 	c #797C77",
", 	c #787B76",
"' 	c #777A75",
") 	c #767974",
"! 	c #757873",
"~ 	c #747772",
"{ 	c #737671",
"] 	c #727570",
"^ 	c #71746F",
"/ 	c #71746E",
"( 	c #70736D",
"_ 	c #6F726C",
": 	c #6E716C",
"< 	c #6E716B",
"[ 	c #6D706A",
"} 	c #6C6F69",
"| 	c #6C6E68",
"1 	c #6B6E68",
"2 	c #6A6D67",
"3 	c #696C66",
"4 	c #686B65",
"5 	c #686A64",
"6 	c #676963",
"7 	c #666862",
"8 	c #656761",
"9 	c #646660",
"0 	c #63655F",
"a 	c #62645E",
"b 	c #61635D",
"c 	c #60635D",
"d 	c #5F625C",
"e 	c #5E615B",
"f 	c #5D605A",
"g 	c #5C5F59",
"h 	c #5B5E58",
"i 	c #5A5D57",
"j 	c #595C56",
"k 	c #585B55",
"l 	c #575A54",
"m 	c #565953",
"n 	c #555852",
"o 	c #545751",
"p 	c #535650",
"q 	c #52554F",
"r 	c #51544E",
"s 	c #50534D",
"t 	c #4F524C",
"u 	c #4E514B",
"v 	c #4D504A",
"w 	c #4C4F49",
"x 	c #4B4E48",
"y 	c #4A4D47",
"z 	c #494C46",
"A 	c #484B45",
"B 	c #474A44",
"C 	c #464842",
"D 	c #444741",
"E 	c #434640",
"F 	c #42453F",
"G 	c #41443E",
"H 	c #40433D",
"I 	c #3F423C",
"J 	c #3E413B",
"K 	c #3D403A",
"L 	c #3C3F39",
"M 	c #3B3E38",
"N 	c #3A3D37",
"O 	c #393C36",
"P 	c #383B35",
"Q 	c #373A34",
"R 	c #363933",
"S 	c #30332C",
"T 	c #292C25",
"U 	c #22251E",
"V 	c #1A1E16",
"W 	c #13170F",
"X 	c #0C1008",
"Y 	c #060A01",
"Z 	c #060901",
"` 	c #050901",
" .	c #050801",
"..	c #040701",
"+.	c #040601",
"@.	c #030501",
"#.	c #030400",
"$.	c #020300",
"%.	c #010200",
"&.	c #010100",
". + @ # $ % & * $ = - ; > > , , ' ' ) ) ) ! ! ~ ~ { { ] ^ / ( _ : < [ } | 1 2 3 4 5 6 7 8 9 0 a b c d e f g h i j k l m n o p q r s t u v w w x y z z A B C D E F G H I J K L M N N O P P Q R S T U V W X Y Y Y Y Y Y Y Y Y Y Y Y Y Y Y Y Y Y Y Y Y Y Y Y Y Y Y Y Y Y Y Z Z Z Z Z Z Z Y Y Y Y Y Y Y Z Z Z Z Z Z Z Y Y Y Y Y Y Y Z Z Z Z Z Z Z Z Z Z Z Z Z ` ` ` ` ` ` ` ` ` ` ` ` ` `  . . . ...+.@.#.$.%.&.&.&."};
