/* XPM */
static char * minimizeA_xpm[] = {
"15 32 24 1",
" 	c None",
".	c #000000",
"+	c #9C9C9C",
"@	c #9F9F9F",
"#	c #7B7B7B",
"$	c #7E7E7E",
"%	c #6C6C6C",
"&	c #656565",
"*	c #606060",
"=	c #535353",
"-	c #4F4F4F",
";	c #4A4A4A",
">	c #424242",
",	c #3F3F3F",
"'	c #363636",
")	c #323232",
"!	c #2D2D2D",
"~	c #282828",
"{	c #242424",
"]	c #202020",
"^	c #1C1C1C",
"/	c #070707",
"(	c #FFFFFF",
"_	c #0C0C0C",
"...............",
"++++++++++++++@",
"##############$",
"##############$",
"##############$",
"##############$",
"%&*=-;>,')!~{]^",
"///////////////",
"///////////////",
"///////////////",
"////((((((/////",
"////((((((/////",
"///////////////",
"///////////////",
"_______________",
"...............",
"...............",
"++++++++++++++@",
"##############$",
"##############$",
"##############$",
"##############$",
"%&*=-;>,')!~{]^",
"///////////////",
"///////////////",
"///////////////",
"////((((((/////",
"////((((((/////",
"///////////////",
"///////////////",
"_______________",
"..............."};
