/* XPM */
static char * titleIS_xpm[] = {
"274 16 90 1",
" 	c None",
".	c #000000",
"+	c #9C9C9C",
"@	c #9A9A9A",
"#	c #989898",
"$	c #959595",
"%	c #939393",
"&	c #909090",
"*	c #8E8E8E",
"=	c #8B8B8B",
"-	c #898989",
";	c #868686",
">	c #848484",
",	c #818181",
"'	c #7E7E7E",
")	c #7B7B7B",
"!	c #797979",
"~	c #767676",
"{	c #747474",
"]	c #717171",
"^	c #6F6F6F",
"/	c #6C6C6C",
"(	c #6A6A6A",
"_	c #676767",
":	c #656565",
"<	c #636363",
"[	c #606060",
"}	c #5E5E5E",
"|	c #5C5C5C",
"1	c #5A5A5A",
"2	c #585858",
"3	c #565656",
"4	c #535353",
"5	c #515151",
"6	c #4F4F4F",
"7	c #4D4D4D",
"8	c #4A4A4A",
"9	c #4B4B4B",
"0	c #070707",
"a	c #0A0A0A",
"b	c #0D0D0D",
"c	c #0F0F0F",
"d	c #111111",
"e	c #151515",
"f	c #171717",
"g	c #212121",
"h	c #282828",
"i	c #353535",
"j	c #383838",
"k	c #3F3F3F",
"l	c #444444",
"m	c #080808",
"n	c #0B0B0B",
"o	c #1A1A1A",
"p	c #1D1D1D",
"q	c #1E1E1E",
"r	c #242424",
"s	c #252525",
"t	c #2B2B2B",
"u	c #2C2C2C",
"v	c #3B3B3B",
"w	c #464646",
"x	c #484848",
"y	c #090909",
"z	c #0C0C0C",
"A	c #101010",
"B	c #131313",
"C	c #141414",
"D	c #181818",
"E	c #202020",
"F	c #232323",
"G	c #292929",
"H	c #2D2D2D",
"I	c #303030",
"J	c #333333",
"K	c #3A3A3A",
"L	c #424242",
"M	c #0E0E0E",
"N	c #1C1C1C",
"O	c #2F2F2F",
"P	c #363636",
"Q	c #3D3D3D",
"R	c #161616",
"S	c #1B1B1B",
"T	c #272727",
"U	c #323232",
"V	c #404040",
"W	c #060606",
"X	c #191919",
"Y	c #222222",
"..................................................................................................................................................................................................................................................................................",
"++@@@@@@@@@@#########$$$$$$$$$$%%%%%%%%%%%%%%%%%&&&&&&&&&**********===========******===================--------;;;;;;;;;>>>>>>>>>>>>>>>>>>>>,,,,,,,'''''''''')))))))))!!!!!!!!!!!!!!!!!!~~~~~~~~~{{{{{{{{{{{{{{{{{{{{{{{{{{{]]]]]]]]]^^^^^^^^^^///////^^^^^^^^^^((((((((((((((((((",
"))!!!!!!!!!!~~~~~~~~~{{{{{{{{{{]]]]]]]]{{{{{{{{{]]]]]]]]]^^^^^^^^^^/////////////////((((((((((_________::::::::<<<<<<<::<<<<<<<<<<<<<<<<<<<<[[[[[[[}}}}}}}}}}|||||||||111111112222111111222222222333333333344444444444444444555555555666666666677777777777777777888888889999999999",
"))!!!!!!!!!!~~~~~~~~~{~~~~~~~~~{{{{{{{{{{{{{{{{{]]]]]]]]]^^^^^^^^^^/////////////////((((((((((_________::::::::<<<<<::::<<<<<<<<<<<<<<<<<<<<[[[[[[[}}}}}}}}}}|||||||||111111111111111111222222222333333333344444444444444444555555555666666666677777777777777777888888999999999999",
"))!!!!!!!!!!!!!~~~~!!~~~~~~~~~~{{{{{{{{{{{{{{{{{]]]]]]]]]^^^^^^^^^^/////////////////((((((((((________(________:::::::::<<<<<<<<<<<<<<<<<<<<[[[[[[[}}}}}}}}}}|||||||||111111111111111111222222222333333333344444444444444444555555555666666666677777777777777777999999999999999999",
"))!!!!!!!!!!!!!~~~!!!~~~~~~~!!!!!{{{{{{{{{{{{{{{]]]]]]]]]^^^^^]]]^^/////////////////((((((((((_____((((________:::::::::<<<<<<<<<<<<<<<<<<<<[[[[[[[}}}}}}}}}}|||||||||111111111111111111222222222333333333344444444444444444555555555666666666677777777777777777999999999999999999",
"))!!!!!!!!!!!!!~!!!!!~~~~~~~!!!!!{{{{{{{{{{{{{{{]]]]]]]]]^^^^^]]]^^/////////////////((((((((((_((((((((________:::::::::<<<<<<<<<<<<<<<<<<<<[[[[[[[}}}}}}}}}}|||||||||111111111111111111222222222333333333344444444444444444555555555666666666677777777777777777999999999999999999",
"0aabcdefffghhhijkl843|:_~~~~!!!!!{{{{{{{{{{{{{{{]]]]]]]]]^^^^^]]]^^/////////////////(((((((((((((((((((________:::::::::<<<<<<<<<<<<<<<<<<<<[[[[[[[}}}}}}}}}}|||||||||111111111111111111222222222333333333344444444444444444555555555666666666677777777777777777999999999999999999",
"0000000000000000000000000mannnnfffopqrstuiivkwx641}</]]]]^^^^^^^^^^/////////////////(((((((((((((((((((________:::::::::<<<<<<<<<<<<<<<<<<<<[[[[[[[}}}}}}}}}}|||||||||111111111111111111222222222333333333344444444444444444555555555666666666677777777777777777999999999999999999",
"000000000000000000000000000000000000000000000000000000yanzcABCDoqEFsGHIJjKLL88531}</(((((((((((((((((((________:::::::::<<<<<<<<<<<<<<<<<<<<[[[[[[[}}}}}}}}}}|||||||||111111111111111111222222222333333333344444444444444444555555555666666666677777777777777777999999999999999999",
"0000000000000000000000000000000000000000000000000000000000000000000000000000000000000yynzMcdBCffNNgFshtOOPPQklx86511<:::<<<<<<<<<<<<<<<<<<<<[[[[[[[}}}}}}}}}}|||||||||111111111111111111222222222333333333344444444444444444555555555666666666677777777777777777999999999999999999",
"00000000000000000000000000000000000000000000000000000000000000000000000000000000000000000000000000000000000000000000000yyannMccBBeRRoSSEEFTTtuuUUPKKVLl99644||||||||||111111111111111111222222222333333333344444444444444444555555555666666666677777777777777766999999999999999999",
"00000000000000000000000000000000000000000000000000000000000000000000000000000000000000000000000000000000000000000000000000000000000000WWWWWWWWWWWWWWWWWWWWWWWW0yyynnnMMMAddBRRRXXXpqqYYYrhhGOOOiPiKQQkLLl9985444444444444444555555555666666666677777777777777766999999999999999999",
"00000000000000000000000000000000000000000000000000000000000000000000000000000000000000000000000000000000000000000000000000000000000000WWWWWWWWWWWWWWWWWWWWWWWWWWWWWWWWWWWWWWWWWWWWWWWWWWWWWWWWWWWWWWWWWWWWWWWWWWmmmmaaaazbbbMAAAdBBBCffffSSSSqEqqFrrrTGGGGIIIIUJiiiiivvvvvQlllllx9",
"zzzzzzzzzzzzzzzzzzzzzzzzzzzzzzzzzzbbbbbbbbbbbbbbbbbbbbzzzzzzzzzzzzzzzzzznnzzzzzzzzzzzzzzzzzzzznnnnnnzzzzzzzzzzzzzzzzzzzzzzzzzzzzzzzzzznnnnnnnnnnnnnnnnnnnnnnnnnnnnnnnnnnnnnnnnnnnnnnnnnnnnnnnnnnnnnnnnnnnnnnnnnnnnnnnnnnnnnnnnnnnnnnnnnnnnnnnnnnnnnnnnnnnnnnnnnnaaaaaaaaaaaaaaaaaa",
".................................................................................................................................................................................................................................................................................."};
