/* XPM */
static char * titleIR_xpm[] = {
"1 16 7 1",
" 	c None",
".	c #000000",
"+	c #9C9C9C",
"@	c #7B7B7B",
"#	c #6C6C6C",
"$	c #070707",
"%	c #0C0C0C",
".",
"+",
"@",
"@",
"@",
"@",
"#",
"$",
"$",
"$",
"$",
"$",
"$",
"$",
"%",
"."};
