/* XPM */
static char * titleAB_xpm[] = {
"274 16 90 1",
" 	c None",
".	c #000000",
"+	c #6A6A6A",
"@	c #6F6F6F",
"#	c #6C6C6C",
"$	c #717171",
"%	c #747474",
"&	c #767676",
"*	c #797979",
"=	c #7B7B7B",
"-	c #7E7E7E",
";	c #818181",
">	c #848484",
",	c #868686",
"'	c #898989",
")	c #8B8B8B",
"!	c #8E8E8E",
"~	c #909090",
"{	c #939393",
"]	c #959595",
"^	c #989898",
"/	c #9A9A9A",
"(	c #9C9C9C",
"_	c #4B4B4B",
":	c #4A4A4A",
"<	c #4D4D4D",
"[	c #4F4F4F",
"}	c #515151",
"|	c #535353",
"1	c #565656",
"2	c #585858",
"3	c #5A5A5A",
"4	c #5C5C5C",
"5	c #5E5E5E",
"6	c #606060",
"7	c #636363",
"8	c #656565",
"9	c #676767",
"0	c #444444",
"a	c #3F3F3F",
"b	c #383838",
"c	c #353535",
"d	c #282828",
"e	c #212121",
"f	c #171717",
"g	c #151515",
"h	c #111111",
"i	c #0F0F0F",
"j	c #0D0D0D",
"k	c #0A0A0A",
"l	c #070707",
"m	c #484848",
"n	c #464646",
"o	c #3B3B3B",
"p	c #2C2C2C",
"q	c #2B2B2B",
"r	c #252525",
"s	c #242424",
"t	c #1E1E1E",
"u	c #1D1D1D",
"v	c #1A1A1A",
"w	c #0B0B0B",
"x	c #080808",
"y	c #424242",
"z	c #3A3A3A",
"A	c #333333",
"B	c #303030",
"C	c #2D2D2D",
"D	c #292929",
"E	c #232323",
"F	c #202020",
"G	c #181818",
"H	c #141414",
"I	c #131313",
"J	c #101010",
"K	c #0C0C0C",
"L	c #090909",
"M	c #3D3D3D",
"N	c #363636",
"O	c #2F2F2F",
"P	c #1C1C1C",
"Q	c #0E0E0E",
"R	c #404040",
"S	c #323232",
"T	c #272727",
"U	c #1B1B1B",
"V	c #161616",
"W	c #222222",
"X	c #191919",
"Y	c #060606",
"..................................................................................................................................................................................................................................................................................",
"++++++++++++++++++@@@@@@@@@@#######@@@@@@@@@@$$$$$$$$$%%%%%%%%%%%%%%%%%%%%%%%%%%%&&&&&&&&&******************=========----------;;;;;;;>>>>>>>>>>>>>>>>>>>>,,,,,,,,,'''''''')))))))))))))))))))!!!!!!)))))))))))!!!!!!!!!!~~~~~~~~~{{{{{{{{{{{{{{{{{]]]]]]]]]]^^^^^^^^^//////////((",
"__________::::::::<<<<<<<<<<<<<<<<<[[[[[[[[[[}}}}}}}}}|||||||||||||||||1111111111222222222333333222233333333444444444555555555566666667777777777777777777788777777788888888999999999++++++++++#################@@@@@@@@@@$$$$$$$$$%%%%%%%%%$$$$$$$$%%%%%%%%%%&&&&&&&&&**********==",
"____________::::::<<<<<<<<<<<<<<<<<[[[[[[[[[[}}}}}}}}}|||||||||||||||||1111111111222222222333333333333333333444444444555555555566666667777777777777777777788887777788888888999999999++++++++++#################@@@@@@@@@@$$$$$$$$$%%%%%%%%%%%%%%%%%&&&&&&&&&%&&&&&&&&&**********==",
"__________________<<<<<<<<<<<<<<<<<[[[[[[[[[[}}}}}}}}}|||||||||||||||||1111111111222222222333333333333333333444444444555555555566666667777777777777777777788888888899999999+99999999++++++++++#################@@@@@@@@@@$$$$$$$$$%%%%%%%%%%%%%%%%%&&&&&&&&&&**&&&&*************==",
"__________________<<<<<<<<<<<<<<<<<[[[[[[[[[[}}}}}}}}}|||||||||||||||||1111111111222222222333333333333333333444444444555555555566666667777777777777777777788888888899999999++++99999++++++++++#################@@$$$@@@@@$$$$$$$$$%%%%%%%%%%%%%%%*****&&&&&&&***&&&*************==",
"__________________<<<<<<<<<<<<<<<<<[[[[[[[[[[}}}}}}}}}|||||||||||||||||1111111111222222222333333333333333333444444444555555555566666667777777777777777777788888888899999999++++++++9++++++++++#################@@$$$@@@@@$$$$$$$$$%%%%%%%%%%%%%%%*****&&&&&&&*****&*************==",
"__________________<<<<<<<<<<<<<<<<<[[[[[[[[[[}}}}}}}}}|||||||||||||||||1111111111222222222333333333333333333444444444555555555566666667777777777777777777788888888899999999+++++++++++++++++++#################@@$$$@@@@@$$$$$$$$$%%%%%%%%%%%%%%%*****&&&&9841|:0abcdddefffghijkkl",
"__________________<<<<<<<<<<<<<<<<<[[[[[[[[[[}}}}}}}}}|||||||||||||||||1111111111222222222333333333333333333444444444555555555566666667777777777777777777788888888899999999+++++++++++++++++++#################@@@@@@@@@@$$$$#753|[mnaoccpqrstuvfffwwwwkxlllllllllllllllllllllllll",
"__________________<<<<<<<<<<<<<<<<<[[[[[[[[[[}}}}}}}}}|||||||||||||||||1111111111222222222333333333333333333444444444555555555566666667777777777777777777788888888899999999+++++++++++++++++++#7531}::yyzbABCDrEFtvGHIJiKwkLllllllllllllllllllllllllllllllllllllllllllllllllllllll",
"__________________<<<<<<<<<<<<<<<<<[[[[[[[[[[}}}}}}}}}|||||||||||||||||11111111112222222223333333333333333334444444445555555555666666677777777777777777777888733}[:m0aMNNOOqdrEePPffHIhiQKwLLlllllllllllllllllllllllllllllllllllllllllllllllllllllllllllllllllllllllllllllllllllll",
"__________________[[<<<<<<<<<<<<<<<[[[[[[[[[[}}}}}}}}}|||||||||||||||||11111111112222222223333333333333333334444444444||[__0yRzzNSSppqTTEFFUUvVVgIIiiQwwkLLlllllllllllllllllllllllllllllllllllllllllllllllllllllllllllllllllllllllllllllllllllllllllllllllllllllllllllllllllllllll",
"__________________[[<<<<<<<<<<<<<<<[[[[[[[[[[}}}}}}}}}|||||||||||||||}:__0yyaMMzcNcOOODddsWWWttuXXXVVVIhhJQQQwwwLLLlYYYYYYYYYYYYYYYYYYYYYYYYllllllllllllllllllllllllllllllllllllllllllllllllllllllllllllllllllllllllllllllllllllllllllllllllllllllllllllllllllllllllllllllllllllll",
"_m00000MooooocccccASBBBBDDDDTsssEttFtUUUUffffHIIIhJJJQjjjKkkkkxxxxYYYYYYYYYYYYYYYYYYYYYYYYYYYYYYYYYYYYYYYYYYYYYYYYYYYYYYYYYYYYYYYYYYYYYYYYYYllllllllllllllllllllllllllllllllllllllllllllllllllllllllllllllllllllllllllllllllllllllllllllllllllllllllllllllllllllllllllllllllllllll",
"kkkkkkkkkkkkkkkkkkwwwwwwwwwwwwwwwwwwwwwwwwwwwwwwwwwwwwwwwwwwwwwwwwwwwwwwwwwwwwwwwwwwwwwwwwwwwwwwwwwwwwwwwwwwwwwwwwwwwwwwwwwwwwwwwwwwwwwwwwwwKKKKKKKKKKKKKKKKKKKKKKKKKKKKKKKKKKwwwwwwKKKKKKKKKKKKKKKKKKKKwwKKKKKKKKKKKKKKKKKKjjjjjjjjjjjjjjjjjjjjKKKKKKKKKKKKKKKKKKKKKKKKKKKKKKKKKK",
".................................................................................................................................................................................................................................................................................."};
