/* XPM */
static char * titleIT_xpm[] = {
"3 16 6 1",
" 	c None",
".	c #000000",
"+	c #6A6A6A",
"@	c #4B4B4B",
"#	c #484848",
"$	c #0A0A0A",
"...",
"+++",
"@@@",
"@@@",
"@@@",
"@@@",
"@@@",
"@@@",
"@@@",
"@@@",
"@@@",
"@@@",
"@@@",
"###",
"$$$",
"..."};
