/* XPM */
static char * base_xpm[] = {
"70 23 26 1",
" 	c None",
".	c #656669",
"+	c #68696C",
"@	c #60626C",
"#	c #5C5F68",
"$	c #595C65",
"%	c #565960",
"&	c #555961",
"*	c #53565D",
"=	c #52555C",
"-	c #50525A",
";	c #4E5058",
">	c #4C4F56",
",	c #4B4E55",
"'	c #494C51",
")	c #484A50",
"!	c #45474D",
"~	c #43454B",
"{	c #414349",
"]	c #1B1B1B",
"^	c #171717",
"/	c #121212",
"(	c #18181A",
"_	c #131315",
":	c #1C1C20",
"<	c #17171B",
".+++++++++++++++++++++++++++++++++++++++++++++++++++++++++++++++++++++",
"@@@@@@@@@@@@@@@@@@@@@@@@@@@@@@@@@@@@@@@@@@@@@@@@@@@@@@@@@@@@@@@@@@@@@@",
"######################################################################",
"$$$$$$$$$$$$$$$$$$$$$$$$$$$$$$$$$$$$$$$$$$$$$$$$$$$$$$$$$$$$$$$$$$$$$$",
"%&&&&&&&&&&&&&&&&&&&&&&&&&&&&&&&&&&&&&&&&&&&&&&&&&&&&&&&&&&&&&&&&&&&&&",
"*=====================================================================",
"-;;;;;;;;;;;;;;;;;;;;;;;;;;;;;;;;;;;;;;;;;;;;;;;;;;;;;;;;;;;;;;;;;;;;;",
">,,,,,,,,,,,,,,,,,,,,,,,,,,,,,,,,,,,,,,,,,,,,,,,,,,,,,,,,,,,,,,,,,,,,,",
"')))))))))))))))))))))))))))))))))))))))))))))))))))))))))))))))))))))",
"!~~~~~~~~~~~~~~~~~~~~~~~~~~~~~~~~~~~~~~~~~~~~~~~~~~~~~~~~~~~~~~~~~~~~~",
"~{{{{{{{{{{{{{{{{{{{{{{{{{{{{{{{{{{{{{{{{{{{{{{{{{{{{{{{{{{{{{{{{{{{{{",
"]^^^^^^^^^^^^^^^^^^^^^^^^^^^^^^^^^^^^^^^^^^^^^^^^^^^^^^^^^^^^^^^^^^^^^",
"^/////////////////////////////////////////////////////////////////////",
"^/////////////////////////////////////////////////////////////////////",
"^/////////////////////////////////////////////////////////////////////",
"^/////////////////////////////////////////////////////////////////////",
"^/////////////////////////////////////////////////////////////////////",
"^/////////////////////////////////////////////////////////////////////",
"^/////////////////////////////////////////////////////////////////////",
"^/////////////////////////////////////////////////////////////////////",
"(_____________________________________________________________________",
":<<<<<<<<<<<<<<<<<<<<<<<<<<<<<<<<<<<<<<<<<<<<<<<<<<<<<<<<<<<<<<<<<<<<<",
":<<<<<<<<<<<<<<<<<<<<<<<<<<<<<<<<<<<<<<<<<<<<<<<<<<<<<<<<<<<<<<<<<<<<<"};
