/* XPM */
static char * desktop_xpm[] = {
"23 23 274 2",
"  	c None",
". 	c #656669",
"+ 	c #68696C",
"@ 	c #62636A",
"# 	c #61636B",
"$ 	c #60626A",
"% 	c #5E6066",
"& 	c #5D6067",
"* 	c #5C5F66",
"= 	c #5F636B",
"- 	c #6F747B",
"; 	c #7D8187",
"> 	c #81868D",
", 	c #80858C",
"' 	c #797E85",
") 	c #6A6E76",
"! 	c #5E6168",
"~ 	c #5B5D63",
"{ 	c #595C63",
"] 	c #70757E",
"^ 	c #9FA5AB",
"/ 	c #BFC6CB",
"( 	c #D4DBE0",
"_ 	c #DEE5EA",
": 	c #DCE3E8",
"< 	c #D0D7DC",
"[ 	c #B9BFC5",
"} 	c #969CA2",
"| 	c #676C73",
"1 	c #5A5C62",
"2 	c #57595F",
"3 	c #55585F",
"4 	c #7A8088",
"5 	c #C6CDD2",
"6 	c #DFE6EB",
"7 	c #E3EAEF",
"8 	c #E0E7EE",
"9 	c #DFE6ED",
"0 	c #DFE7ED",
"a 	c #E1E9EF",
"b 	c #E4EBF0",
"c 	c #DDE4E9",
"d 	c #BEC5CA",
"e 	c #696F77",
"f 	c #54565C",
"g 	c #53555B",
"h 	c #52545A",
"i 	c #747A82",
"j 	c #C9D0D7",
"k 	c #DCE4EC",
"l 	c #D6DFE8",
"m 	c #D0DAE4",
"n 	c #CCD7E2",
"o 	c #CBD6E1",
"p 	c #CFD9E3",
"q 	c #D2DCE6",
"r 	c #DAE2EA",
"s 	c #E0E8EE",
"t 	c #C3C9CF",
"u 	c #636971",
"v 	c #515359",
"w 	c #4F5157",
"x 	c #61666F",
"y 	c #B9C1C9",
"z 	c #D1DBE5",
"A 	c #C4D0DC",
"B 	c #BCC9D6",
"C 	c #B5C3D1",
"D 	c #B1C0CF",
"E 	c #C8D2DC",
"F 	c #E1E7ED",
"G 	c #C0CCD8",
"H 	c #B9C7D5",
"I 	c #C2CEDA",
"J 	c #D9E1E9",
"K 	c #B2BAC0",
"L 	c #575C63",
"M 	c #4E4F54",
"N 	c #4C4E54",
"O 	c #4C5056",
"P 	c #868E96",
"Q 	c #C4CFDA",
"R 	c #BDCAD7",
"S 	c #AEBDCC",
"T 	c #AAB9C8",
"U 	c #B0BDCA",
"V 	c #A3B2C1",
"W 	c #CCD4DC",
"X 	c #F1F3F5",
"Y 	c #B8C4D0",
"Z 	c #AFBDCB",
"` 	c #B8C5D2",
" .	c #B8C6D4",
"..	c #C6D2DE",
"+.	c #C9D2DB",
"@.	c #7E858C",
"#.	c #4B4E53",
"$.	c #4A4C50",
"%.	c #474A4F",
"&.	c #52575E",
"*.	c #9BA5AF",
"=.	c #A7B7C7",
"-.	c #98A9BA",
";.	c #ABB8C5",
">.	c #DBE0E5",
",.	c #C4CCD4",
"'.	c #ADB8C3",
").	c #DEE2E6",
"!.	c #B0BBC6",
"~.	c #D7DDE3",
"{.	c #D4DBE2",
"].	c #ACBAC8",
"^.	c #B2C1D0",
"/.	c #C8D3DE",
"(.	c #979FA7",
"_.	c #4D5157",
":.	c #494B4F",
"<.	c #46484C",
"[.	c #44464A",
"}.	c #5C6168",
"|.	c #A3AFBB",
"1.	c #A9B8C7",
"2.	c #95A6B7",
"3.	c #8496A8",
"4.	c #91A0AF",
"5.	c #C7CED5",
"6.	c #DDE1E5",
"7.	c #AFB9C3",
"8.	c #C4CBD2",
"9.	c #C6CDD4",
"0.	c #BFC8D1",
"a.	c #97A7B7",
"b.	c #A1B1C1",
"c.	c #B7C5D3",
"d.	c #A0ABB6",
"e.	c #565A60",
"f.	c #424448",
"g.	c #61666D",
"h.	c #A4B1BE",
"i.	c #9DAEBF",
"j.	c #8B9CAD",
"k.	c #748698",
"l.	c #6A7B8C",
"m.	c #7B8997",
"n.	c #8B96A1",
"o.	c #9DA6AF",
"p.	c #C9CED3",
"q.	c #98A2AC",
"r.	c #8B97A3",
"s.	c #7C8B9A",
"t.	c #7A8B9C",
"u.	c #ACBBCA",
"v.	c #A1ADB9",
"w.	c #595E65",
"x.	c #1B1B1B",
"y.	c #171717",
"z.	c #3F4449",
"A.	c #7F8D9B",
"B.	c #617283",
"C.	c #4A5B6C",
"D.	c #455665",
"E.	c #6F7C89",
"F.	c #C4C9CE",
"G.	c #D6DADE",
"H.	c #9FA8B1",
"I.	c #B6BDC4",
"J.	c #DADDE0",
"K.	c #A3ABB3",
"L.	c #526170",
"M.	c #465768",
"N.	c #637383",
"O.	c #6C7A88",
"P.	c #2E3338",
"Q.	c #131313",
"R.	c #5E6D7C",
"S.	c #435465",
"T.	c #495A6B",
"U.	c #7A8692",
"V.	c #C8CDD2",
"W.	c #A9B1B9",
"X.	c #8F9AA5",
"Y.	c #949EA8",
"Z.	c #C1C7CD",
"`.	c #B3BAC1",
" +	c #5C6B7A",
".+	c #445566",
"++	c #445362",
"@+	c #212529",
"#+	c #121212",
"$+	c #1F2225",
"%+	c #55626F",
"&+	c #546576",
"*+	c #475869",
"=+	c #4B5C6D",
"-+	c #566778",
";+	c #707E8C",
">+	c #647484",
",+	c #A1ABB5",
"'+	c #E8EAEC",
")+	c #87939F",
"!+	c #6C7B8A",
"~+	c #6A7988",
"{+	c #4F6071",
"]+	c #48596A",
"^+	c #3C4854",
"/+	c #191C1F",
"(+	c #151617",
"_+	c #3F4851",
":+	c #5B6C7D",
"<+	c #4D5E6F",
"[+	c #4E6072",
"}+	c #536475",
"|+	c #596A7B",
"1+	c #596B7D",
"2+	c #808E9C",
"3+	c #AEB7C0",
"4+	c #707F8E",
"5+	c #556779",
"6+	c #506172",
"7+	c #4B5D6F",
"8+	c #485868",
"9+	c #2D353D",
"0+	c #141516",
"a+	c #1F2327",
"b+	c #53616F",
"c+	c #56687A",
"d+	c #526374",
"e+	c #5A6C7E",
"f+	c #5E7082",
"g+	c #637587",
"h+	c #697A8B",
"i+	c #607284",
"j+	c #5B6D7F",
"k+	c #526476",
"l+	c #3B4855",
"m+	c #1B1E21",
"n+	c #24292E",
"o+	c #546372",
"p+	c #586A7C",
"q+	c #627486",
"r+	c #697B8D",
"s+	c #6D7F91",
"t+	c #6A7C8E",
"u+	c #546678",
"v+	c #43515F",
"w+	c #202428",
"x+	c #131415",
"y+	c #23282D",
"z+	c #4B5967",
"A+	c #5A6B7C",
"B+	c #7F91A3",
"C+	c #8799AB",
"D+	c #7E90A2",
"E+	c #556677",
"F+	c #424F5C",
"G+	c #23272B",
"H+	c #141414",
"I+	c #1D2125",
"J+	c #343D46",
"K+	c #4A5662",
"L+	c #606F7E",
"M+	c #71808F",
"N+	c #5F6E7D",
"O+	c #475461",
"P+	c #323A42",
"Q+	c #1C1F22",
"R+	c #181818",
"S+	c #24282C",
"T+	c #292E33",
"U+	c #1A1D20",
"V+	c #18191A",
"W+	c #131315",
"X+	c #1C1C20",
"Y+	c #17171B",
". + + + + + + + . + + + + + + + . + + + + + + ",
"@ # # # # # # # @ $ $ $ $ $ # # @ # # # # # # ",
"% & & & & & * = - ; > , ' ) ! * % & & & & & & ",
"~ ~ ~ ~ ~ { ] ^ / ( _ : < [ } | 1 ~ ~ ~ ~ ~ ~ ",
"2 2 2 2 3 4 5 6 7 8 9 0 a b c d e 3 2 2 2 2 2 ",
"f g g h i j k l m n o p p q r s t u g g g g g ",
"v w w x y z A B C D E F G H I o J K L w w w w ",
"M N O P Q R S T U V W X Y Z `  ...+.@.#.N N N ",
"$.%.&.*.B =.-.;.>.,.'.).!.~.{.].^./.(._.%.:.:.",
"<.[.}.|.1.2.3.4.5.6.7.8.9.).0.a.b.c.d.e.[.[.[.",
"[.f.g.h.i.j.k.l.m.n.o.p.q.r.s.t.2.u.v.w.f.f.f.",
"x.y.z.A.B.C.D.E.F.G.H.I.I.J.K.L.M.N.O.P.y.y.y.",
"y.Q.P.R.C.S.T.U.V.W.X.G.Y.Z.`. +.+M.++@+#+#+#+",
"y.#+$+%+&+*+=+-+;+>+,+'+)+!+~+{+]+T.^+/+#+#+#+",
"y.#+(+_+:+<+[+}+|+1+2+3+4+1+5+6+7+8+9+0+#+#+#+",
"y.#+#+a+b+c+d+5+e+f+g+h+i+j+c+k+<+l+m+#+#+#+#+",
"y.#+#+Q.n+o+p+j+q+r+s+s+t+q+j+u+v+w+Q.#+#+#+#+",
"y.#+#+#+x+y+z+A+t+B+C+C+D+r+E+F+G+H+#+#+#+#+#+",
"y.#+#+#+#+Q.I+J+K+L+M+M+N+O+P+Q+R+#+#+#+#+#+#+",
"y.#+#+#+#+#+#+0+$+S+T+T+S+U+0+#+y.#+#+#+#+#+#+",
"V+x+x+x+x+x+x+x+V+x+W+W+x+x+x+x+V+x+x+x+x+x+x+",
"X+Y+Y+Y+Y+Y+Y+Y+X+Y+Y+Y+Y+Y+Y+Y+X+Y+Y+Y+Y+Y+Y+",
"X+Y+Y+Y+Y+Y+Y+Y+X+Y+Y+Y+Y+Y+Y+Y+X+Y+Y+Y+Y+Y+Y+"};
