/* XPM */
static char * icewm_xpm[] = {
"30 20 555 2",
"  	c None",
". 	c #696D65",
"+ 	c #646860",
"@ 	c #4B4D47",
"# 	c #31434E",
"$ 	c #24537B",
"% 	c #2F5C82",
"& 	c #346085",
"* 	c #335F85",
"= 	c #366287",
"- 	c #3A6589",
"; 	c #386388",
"> 	c #396589",
", 	c #3A668A",
"' 	c #3C678A",
") 	c #3F698C",
"! 	c #416B8D",
"~ 	c #244E72",
"{ 	c #31444F",
"] 	c #484B45",
"^ 	c #62665F",
"/ 	c #686C65",
"( 	c #898D84",
"_ 	c #868A81",
": 	c #6D7069",
"< 	c #20282D",
"[ 	c #163B5B",
"} 	c #6C8DA7",
"| 	c #86A0B4",
"1 	c #86A0B5",
"2 	c #7F9AB0",
"3 	c #7896AC",
"4 	c #7797AD",
"5 	c #7899B0",
"6 	c #7999AF",
"7 	c #7E9AB0",
"8 	c #819DB2",
"9 	c #809DB4",
"0 	c #819EB4",
"a 	c #84A0B6",
"b 	c #87A3B7",
"c 	c #8FA8BB",
"d 	c #85A0B4",
"e 	c #7493AB",
"f 	c #214A6B",
"g 	c #272F33",
"h 	c #666965",
"i 	c #888C85",
"j 	c #888D84",
"k 	c #888C84",
"l 	c #787C73",
"m 	c #787D73",
"n 	c #62665E",
"o 	c #242928",
"p 	c #1E415F",
"q 	c #8DA5B8",
"r 	c #9FB2C0",
"s 	c #8EA5B7",
"t 	c #7F99AC",
"u 	c #778C9E",
"v 	c #7C98AD",
"w 	c #99ADBE",
"x 	c #A8BAC7",
"y 	c #8BA5B9",
"z 	c #87A3B6",
"A 	c #8EA6B9",
"B 	c #9FB2C1",
"C 	c #9CB2C1",
"D 	c #1D405D",
"E 	c #232A2D",
"F 	c #6E716A",
"G 	c #787D74",
"H 	c #777C73",
"I 	c #73776E",
"J 	c #6E736A",
"K 	c #3D403B",
"L 	c #0A1F32",
"M 	c #6C8BA4",
"N 	c #9DB0BE",
"O 	c #819BAE",
"P 	c #7591A6",
"Q 	c #697F93",
"R 	c #718597",
"S 	c #8899A8",
"T 	c #909EAB",
"U 	c #909DAA",
"V 	c #8CA1B2",
"W 	c #E1B6B3",
"X 	c #ECB7B1",
"Y 	c #C8A9AB",
"Z 	c #7B97AB",
"` 	c #7591A7",
" .	c #7E97A9",
"..	c #94A8B6",
"+.	c #6D8BA1",
"@.	c #1A3041",
"#.	c #444642",
"$.	c #73776F",
"%.	c #73786E",
"&.	c #696E64",
"*.	c #585C54",
"=.	c #111B23",
"-.	c #2F5471",
";.	c #96AAB9",
">.	c #7590A4",
",.	c #65859C",
"'.	c #5B7C94",
").	c #5A7A92",
"!.	c #597A92",
"~.	c #5D7C93",
"{.	c #8B9AA4",
"].	c #CFC8C5",
"^.	c #EED4C6",
"/.	c #F8D6C4",
"(.	c #F7D4C2",
"_.	c #F5DDD1",
":.	c #DD4C23",
"<.	c #E85723",
"[.	c #D75436",
"}.	c #86929D",
"|.	c #527480",
"1.	c #6C8496",
"2.	c #668286",
"3.	c #889DAD",
"4.	c #3E6685",
"5.	c #242D30",
"6.	c #5B5F58",
"7.	c #6B7066",
"8.	c #6A6F65",
"9.	c #5D6358",
"0.	c #3A3D37",
"a.	c #0C2336",
"b.	c #66859D",
"c.	c #718CA0",
"d.	c #5D7D95",
"e.	c #527690",
"f.	c #486F8A",
"g.	c #476E8A",
"h.	c #A3ADB2",
"i.	c #F0E4CD",
"j.	c #F8D1B6",
"k.	c #FBB79A",
"l.	c #F9A480",
"m.	c #F9956A",
"n.	c #F6B18B",
"o.	c #E58249",
"p.	c #EE6E09",
"q.	c #DC8257",
"r.	c #758A9B",
"s.	c #718EA4",
"t.	c #142E43",
"u.	c #41443F",
"v.	c #686E63",
"w.	c #61675B",
"x.	c #4D5148",
"y.	c #1C1E1B",
"z.	c #234664",
"A.	c #738EA2",
"B.	c #52738C",
"C.	c #476E89",
"D.	c #406A87",
"E.	c #376281",
"F.	c #346281",
"G.	c #7E93A0",
"H.	c #F6DDB6",
"I.	c #FDDCAE",
"J.	c #F9DBB3",
"K.	c #F3884D",
"L.	c #F28B56",
"M.	c #F18E59",
"N.	c #F07634",
"O.	c #F39F70",
"P.	c #F2B18E",
"Q.	c #F2B594",
"R.	c #9EA0A2",
"S.	c #375669",
"T.	c #4D6C82",
"U.	c #7991A4",
"V.	c #234967",
"W.	c #262E30",
"X.	c #63685E",
"Y.	c #585E51",
"Z.	c #3D4139",
"`.	c #121719",
" +	c #325E7F",
".+	c #668399",
"++	c #446A86",
"@+	c #3A6685",
"#+	c #336181",
"$+	c #2E5A7A",
"%+	c #3B6480",
"&+	c #DACAAB",
"*+	c #FDD49F",
"=+	c #FCBB65",
"-+	c #EBBB6A",
";+	c #A7A4A5",
">+	c #5C6B77",
",+	c #4F6475",
"'+	c #838386",
")+	c #D6956E",
"!+	c #F25911",
"~+	c #F4520B",
"{+	c #E99162",
"]+	c #446B86",
"^+	c #2E5978",
"/+	c #2D516B",
"(+	c #40657F",
"_+	c #668297",
":+	c #446883",
"<+	c #222E35",
"[+	c #555851",
"}+	c #54594D",
"|+	c #2F322B",
"1+	c #0A161F",
"2+	c #416F8E",
"3+	c #5C7D94",
"4+	c #3C6684",
"5+	c #306283",
"6+	c #306181",
"7+	c #8495A6",
"8+	c #B4BBBF",
"9+	c #F7D8A5",
"0+	c #FDC37A",
"a+	c #F1AC47",
"b+	c #7A8C8F",
"c+	c #2F5976",
"d+	c #235577",
"e+	c #215577",
"f+	c #275675",
"g+	c #5E7483",
"h+	c #E08454",
"i+	c #F44A01",
"j+	c #F3580E",
"k+	c #859198",
"l+	c #1370AC",
"m+	c #275272",
"n+	c #3B6481",
"o+	c #55778F",
"p+	c #467390",
"q+	c #1B313E",
"r+	c #494C45",
"s+	c #4E5448",
"t+	c #282B25",
"u+	c #071926",
"v+	c #21577F",
"w+	c #486E89",
"x+	c #2D5C7E",
"y+	c #1B537A",
"z+	c #8B8B91",
"A+	c #F0B99D",
"B+	c #F7BC9D",
"C+	c #F5D1B6",
"D+	c #FBB655",
"E+	c #D2AA67",
"F+	c #365E78",
"G+	c #195175",
"H+	c #185175",
"I+	c #205272",
"J+	c #B29583",
"K+	c #F0631A",
"L+	c #F15B0F",
"M+	c #8F867C",
"N+	c #2A5A7D",
"O+	c #154B70",
"P+	c #2D5D7D",
"Q+	c #486E88",
"R+	c #235A81",
"S+	c #173344",
"T+	c #444740",
"U+	c #4A4F43",
"V+	c #10140C",
"W+	c #021826",
"X+	c #004170",
"Y+	c #033A60",
"Z+	c #013D67",
"`+	c #05446F",
" @	c #B98D75",
".@	c #F27013",
"+@	c #F6700D",
"@@	c #EF9864",
"#@	c #F9B752",
"$@	c #B7A374",
"%@	c #114D74",
"&@	c #104D74",
"*@	c #A4A9AE",
"=@	c #F3DACF",
"-@	c #F3D4CA",
";@	c #8E9BA4",
">@	c #04436D",
",@	c #02446F",
"'@	c #013F69",
")@	c #004271",
"!@	c #0D2E41",
"~@	c #32362D",
"{@	c #212917",
"]@	c #11150D",
"^@	c #031622",
"/@	c #014678",
"(@	c #023B63",
"_@	c #03416A",
":@	c #03456F",
"<@	c #577080",
"[@	c #E3954D",
"}@	c #F3973D",
"|@	c #F4C89A",
"1@	c #FBA938",
"2@	c #DDAB5A",
"3@	c #396886",
"4@	c #0A4C75",
"5@	c #094C75",
"6@	c #1C577C",
"7@	c #C6B5B3",
"8@	c #EFA4A0",
"9@	c #EC8E89",
"0@	c #868D93",
"a@	c #024A76",
"b@	c #034A77",
"c@	c #03436D",
"d@	c #023B62",
"e@	c #024677",
"f@	c #10303F",
"g@	c #353930",
"h@	c #12160E",
"i@	c #040E12",
"j@	c #014B7F",
"k@	c #023F69",
"l@	c #03426C",
"m@	c #115179",
"n@	c #4A6A7E",
"o@	c #8D9291",
"p@	c #F1C174",
"q@	c #FC9F2A",
"r@	c #F6A029",
"s@	c #A9A48E",
"t@	c #265B7C",
"u@	c #0D4C74",
"v@	c #0C4C74",
"w@	c #21597D",
"x@	c #96989D",
"y@	c #E79E95",
"z@	c #E77170",
"A@	c #E46B5A",
"B@	c #6F8A9D",
"C@	c #045280",
"D@	c #034F7F",
"E@	c #034671",
"F@	c #023E67",
"G@	c #024C7D",
"H@	c #182E37",
"I@	c #383D33",
"J@	c #1E2715",
"K@	c #13170E",
"L@	c #070A08",
"M@	c #004979",
"N@	c #024471",
"O@	c #03436C",
"P@	c #03446C",
"Q@	c #09507C",
"R@	c #084F7C",
"S@	c #15537B",
"T@	c #B5A480",
"U@	c #F99D21",
"V@	c #FB9614",
"W@	c #F3B95C",
"X@	c #CCC4C2",
"Y@	c #94A2B0",
"Z@	c #95A3B2",
"`@	c #C2B6BA",
" #	c #E8998F",
".#	c #E4615C",
"+#	c #DF433A",
"@#	c #CF897B",
"##	c #1E5E85",
"$#	c #055788",
"%#	c #035383",
"&#	c #034873",
"*#	c #024570",
"=#	c #044C7B",
"-#	c #1E2E32",
";#	c #393E33",
">#	c #1A2311",
",#	c #12170B",
"'#	c #0B0D09",
")#	c #023555",
"!#	c #025084",
"~#	c #024269",
"{#	c #07456D",
"]#	c #084971",
"^#	c #094D77",
"/#	c #084E79",
"(#	c #446882",
"_#	c #DEB26A",
":#	c #F8A121",
"<#	c #F5C696",
"[#	c #E5665B",
"}#	c #E9837F",
"|#	c #E8847E",
"1#	c #E6685E",
"2#	c #EA9889",
"3#	c #EDB4A4",
"4#	c #E2A08D",
"5#	c #547990",
"6#	c #075887",
"7#	c #075E91",
"8#	c #055687",
"9#	c #034975",
"0#	c #025285",
"a#	c #0A4364",
"b#	c #2A302C",
"c#	c #393F31",
"d#	c #111A08",
"e#	c #101509",
"f#	c #11140D",
"g#	c #04202F",
"h#	c #01578D",
"i#	c #03426A",
"j#	c #0E4D74",
"k#	c #0C4D75",
"l#	c #094D76",
"m#	c #094F7A",
"n#	c #0A517C",
"o#	c #577082",
"p#	c #C7BA9F",
"q#	c #E78E73",
"r#	c #D60F03",
"s#	c #D60703",
"t#	c #D60803",
"u#	c #E3644E",
"v#	c #F5CD95",
"w#	c #FCCD85",
"x#	c #E9C087",
"y#	c #507A92",
"z#	c #095D8F",
"A#	c #096297",
"B#	c #055889",
"C#	c #034E7C",
"D#	c #015E98",
"E#	c #163441",
"F#	c #383B34",
"G#	c #2D3425",
"H#	c #0D1603",
"I#	c #0A1103",
"J#	c #171C12",
"K#	c #060B09",
"L#	c #023B5C",
"M#	c #025A8E",
"N#	c #04466E",
"O#	c #064B73",
"P#	c #0B537E",
"Q#	c #0B5C88",
"R#	c #0B628F",
"S#	c #0E618D",
"T#	c #3A6479",
"U#	c #698290",
"V#	c #B29592",
"W#	c #B57B72",
"X#	c #C37F71",
"Y#	c #D0BAB1",
"Z#	c #EEA92B",
"`#	c #F9AD0B",
" $	c #ECA522",
".$	c #5B8491",
"+$	c #0B689B",
"@$	c #0A659A",
"#$	c #075888",
"$$	c #036097",
"%$	c #05517C",
"&$	c #2E302B",
"*$	c #42463D",
"=$	c #121A09",
"-$	c #0C1403",
";$	c #090F01",
">$	c #12150F",
",$	c #051114",
"'$	c #02629B",
")$	c #06598A",
"!$	c #095987",
"~$	c #0D679B",
"{$	c #0D7AB0",
"]$	c #0C80B6",
"^$	c #0C80B4",
"/$	c #0A7CAB",
"($	c #09769E",
"_$	c #147194",
":$	c #177396",
"<$	c #267694",
"[$	c #4E839C",
"}$	c #D0B983",
"|$	c #EABB3D",
"1$	c #CAB375",
"2$	c #397B9C",
"3$	c #0E70A5",
"4$	c #0C659A",
"5$	c #086295",
"6$	c #0568A0",
"7$	c #183744",
"8$	c #3C3F39",
"9$	c #33382D",
"0$	c #0B1202",
"a$	c #191D13",
"b$	c #0F110C",
"c$	c #072736",
"d$	c #0770AA",
"e$	c #0C6EA3",
"f$	c #0E73AA",
"g$	c #0D87C1",
"h$	c #0F91CC",
"i$	c #0E99D2",
"j$	c #0A9ED2",
"k$	c #099CC9",
"l$	c #0895BC",
"m$	c #0387AD",
"n$	c #047FA2",
"o$	c #06779A",
"p$	c #507A90",
"q$	c #8B9AAC",
"r$	c #3A80A5",
"s$	c #0C7DB2",
"t$	c #0D76AD",
"u$	c #0E74A8",
"v$	c #0A7AB5",
"w$	c #153E51",
"x$	c #353833",
"y$	c #3E4238",
"z$	c #141A0C",
"A$	c #0A1101",
"B$	c #0B1102",
"C$	c #040600",
"D$	c #0C0E09",
"E$	c #1B1C19",
"F$	c #0B0F0F",
"G$	c #093A56",
"H$	c #0D86C0",
"I$	c #1088BC",
"J$	c #0D88C4",
"K$	c #1094D0",
"L$	c #0EA2DB",
"M$	c #0BAFE2",
"N$	c #0BB8E4",
"O$	c #0AB8DF",
"P$	c #09B1D3",
"Q$	c #08A9CB",
"R$	c #09A0C5",
"S$	c #0898C3",
"T$	c #0890C1",
"U$	c #0C8CC2",
"V$	c #0D86BF",
"W$	c #0E8ABD",
"X$	c #0F86BD",
"Y$	c #104E70",
"Z$	c #2D3130",
"`$	c #434442",
" %	c #22241F",
".%	c #050802",
"+%	c #040700",
". . . + @ # $ % & * * = - - - - ; > , ' ) ! ~ { ] ^ / / / / ",
"( ( _ : < [ } | 1 2 3 4 5 6 7 8 9 0 a b c d e f g h i j j k ",
"l m n o p q r s t t t t t t t u v w x y z A B C D E F G H H ",
"I J K L M N O P Q Q Q Q R S T U V W X Y Z `  ...+.@.#.$.%.I ",
"&.*.=.-.;.>.,.'.).!.~.{.].^./.(._.:.<.[.}.|.1.2.3.4.5.6.7.8.",
"9.0.a.b.c.d.e.f.g.f.h.i.j.k.l.m.n.o.p.q.r.f.f.1.1.s.t.u.v.w.",
"x.y.z.A.B.C.D.E.F.G.H.I.J.K.L.M.N.O.P.Q.R.F.F.S.T.U.V.W.X.Y.",
"Z.`. +.+++@+#+$+%+&+*+=+-+;+>+,+'+)+!+~+{+]+^+/+(+_+:+<+[+}+",
"|+1+2+3+4+5+6+7+8+9+0+a+b+c+d+e+f+g+h+i+j+k+l+m+n+o+p+q+r+s+",
"t+u+v+w+x+y+z+A+B+C+D+E+F+G+G+H+H+I+J+K+L+M+N+O+P+Q+R+S+T+U+",
"V+W+X+Y+Z+`+ @.@+@@@#@$@%@&@&@&@&@&@*@=@-@;@>@,@'@Y+)@!@~@{@",
"]@^@/@(@_@:@<@[@}@|@1@2@3@4@4@4@5@6@7@8@9@0@a@b@c@d@e@f@g@{@",
"h@i@j@k@l@:@m@n@o@p@q@r@s@t@u@v@w@x@y@z@A@B@C@D@E@F@G@H@I@J@",
"K@L@M@N@O@P@Q@R@S@T@U@V@W@X@Y@Z@`@ #.#+#@###$#%#&#*#=#-#;#>#",
",#'#)#!#~#{#]#^#/#(#_#:#<#[#}#|#1#2#3#4#5#6#7#8#9#0#a#b#c#d#",
"e#f#g#h#i#j#k#l#m#n#o#p#q#r#s#t#u#v#w#x#y#z#A#B#C#D#E#F#G#H#",
"I#J#K#L#M#N#O#P#Q#R#S#T#U#V#W#X#Y#Z#`# $.$+$@$#$$$%$&$*$=$-$",
";$,#>$,$'$)$!$~${$]$^$/$($_$:$<$[$}$|$1$2$3$4$5$6$7$8$9$0$0$",
";$;$a$b$c$d$e$f$g$h$i$j$k$l$m$n$o$p$q$r$s$t$u$v$w$x$y$z$A$B$",
"C$C$D$E$F$G$H$I$J$K$L$M$N$O$P$Q$R$S$T$U$V$W$X$Y$Z$`$ %.%+%+%"};
