/* XPM */
static char * icewm_xpm[] = {
"30 20 476 2",
"  	c None",
". 	c #676965",
"+ 	c #3A3F41",
"@ 	c #132323",
"# 	c #071517",
"$ 	c #232C31",
"% 	c #4E565D",
"& 	c #697278",
"* 	c #748084",
"= 	c #738084",
"- 	c #747F84",
"; 	c #777F83",
"> 	c #747B80",
", 	c #677075",
"' 	c #454D52",
") 	c #1C2429",
"! 	c #0E161A",
"~ 	c #292E31",
"{ 	c #404345",
"] 	c #868984",
"^ 	c #363E41",
"/ 	c #0D191F",
"( 	c #515963",
"_ 	c #8B8E97",
": 	c #8E949A",
"< 	c #808F8F",
"[ 	c #7A8C8A",
"} 	c #81898C",
"| 	c #8C828E",
"1 	c #858591",
"2 	c #818B97",
"3 	c #808C98",
"4 	c #8B98A3",
"5 	c #77838F",
"6 	c #3A4650",
"7 	c #1F2930",
"8 	c #51575C",
"9 	c #757873",
"0 	c #767777",
"a 	c #373D3B",
"b 	c #1D252A",
"c 	c #788493",
"d 	c #9CA9BD",
"e 	c #8894A8",
"f 	c #7E8B9A",
"g 	c #788793",
"h 	c #748795",
"i 	c #6F879A",
"j 	c #758BA6",
"k 	c #7F8EA2",
"l 	c #848F9F",
"m 	c #8491A2",
"n 	c #8091A2",
"o 	c #8C9EAF",
"p 	c #9BADBD",
"q 	c #596974",
"r 	c #223038",
"s 	c #576165",
"t 	c #70736D",
"u 	c #525658",
"v 	c #122027",
"w 	c #596F7C",
"x 	c #89A4B4",
"y 	c #748B9B",
"z 	c #777A86",
"A 	c #845E66",
"B 	c #975056",
"C 	c #9D4C50",
"D 	c #945756",
"E 	c #816764",
"F 	c #76737A",
"G 	c #747D8F",
"H 	c #748193",
"I 	c #748497",
"J 	c #74889C",
"K 	c #7B8FA2",
"L 	c #8C9FAF",
"M 	c #435560",
"N 	c #344249",
"O 	c #676A64",
"P 	c #60676A",
"Q 	c #1C2931",
"R 	c #3A515F",
"S 	c #7E8E9A",
"T 	c #677482",
"U 	c #5E6B79",
"V 	c #66575D",
"W 	c #B03C34",
"X 	c #CE4529",
"Y 	c #D5552E",
"Z 	c #DC5A37",
"` 	c #C7622D",
" .	c #815F45",
"..	c #5C6A73",
"+.	c #55667B",
"@.	c #526879",
"#.	c #546B7C",
"$.	c #55697E",
"%.	c #63758C",
"&.	c #76869E",
"*.	c #303F59",
"=.	c #42565A",
"-.	c #5E615B",
";.	c #3B4449",
">.	c #142531",
",.	c #5E7592",
"'.	c #5E6E91",
").	c #515F83",
"!.	c #50506A",
"~.	c #754A4C",
"{.	c #C05530",
"].	c #D86721",
"^.	c #D77A26",
"/.	c #D78037",
"(.	c #C98040",
"_.	c #78692B",
":.	c #83A365",
"<.	c #5A7E48",
"[.	c #476E4C",
"}.	c #3E664C",
"|.	c #40674F",
"1.	c #4A6D5D",
"2.	c #57757B",
"3.	c #49657A",
"4.	c #244354",
"5.	c #535650",
"6.	c #1B2A31",
"7.	c #2D424C",
"8.	c #5B7484",
"9.	c #3D5B71",
"0.	c #31576A",
"a.	c #414648",
"b.	c #945037",
"c.	c #D06A2A",
"d.	c #EB8428",
"e.	c #EA9B2A",
"f.	c #E6B13E",
"g.	c #AB8738",
"h.	c #828338",
"i.	c #A6C960",
"j.	c #91BE3D",
"k.	c #72A334",
"l.	c #5A8C31",
"m.	c #4A7A39",
"n.	c #386148",
"o.	c #325366",
"p.	c #4C6F89",
"q.	c #214958",
"r.	c #425F63",
"s.	c #4B4E48",
"t.	c #0D202A",
"u.	c #3D5563",
"v.	c #4B6479",
"w.	c #2E4F70",
"x.	c #294A69",
"y.	c #4B4140",
"z.	c #B1612E",
"A.	c #E68525",
"B.	c #F89E24",
"C.	c #F9B829",
"D.	c #F3C83D",
"E.	c #897B2F",
"F.	c #9FA55D",
"G.	c #B5CD68",
"H.	c #9FC147",
"I.	c #85B03C",
"J.	c #6A9637",
"K.	c #507A3E",
"L.	c #284C39",
"M.	c #2A4B55",
"N.	c #466A7B",
"O.	c #295164",
"P.	c #3B5666",
"Q.	c #40433D",
"R.	c #2C3B41",
"S.	c #0A222F",
"T.	c #3B5B6B",
"U.	c #3B5E73",
"V.	c #2A4C67",
"W.	c #2C3A55",
"X.	c #503B3F",
"Y.	c #835339",
"Z.	c #72523C",
"`.	c #6B563F",
" +	c #846C2F",
".+	c #B49D3F",
"++	c #697030",
"@+	c #BDC980",
"#+	c #C3D37A",
"$+	c #AEC862",
"%+	c #90B938",
"&+	c #74A037",
"*+	c #4B7048",
"=+	c #1D3E47",
"-+	c #294C5D",
";+	c #3D6674",
">+	c #2B586D",
",+	c #335266",
"'+	c #383B35",
")+	c #232F36",
"!+	c #062233",
"~+	c #1A4059",
"{+	c #234B65",
"]+	c #133D5A",
"^+	c #082E4D",
"/+	c #134767",
"(+	c #276B90",
"_+	c #5093C1",
":+	c #7BABD5",
"<+	c #7E9CB2",
"[+	c #4B6565",
"}+	c #425944",
"|+	c #C7D9A4",
"1+	c #D1DA85",
"2+	c #C0CF64",
"3+	c #9BC241",
"4+	c #7DAB46",
"5+	c #365A3F",
"6+	c #0E2949",
"7+	c #1C3C61",
"8+	c #205164",
"9+	c #0C4152",
"0+	c #325A69",
"a+	c #060A01",
"b+	c #111C21",
"c+	c #052134",
"d+	c #032C4A",
"e+	c #032A4C",
"f+	c #092C4D",
"g+	c #043258",
"h+	c #2572A2",
"i+	c #3195CE",
"j+	c #5EAED9",
"k+	c #90C3E2",
"l+	c #BEE4F7",
"m+	c #84A9B0",
"n+	c #526444",
"o+	c #506F39",
"p+	c #6A8F54",
"q+	c #79935C",
"r+	c #637F46",
"s+	c #3E6434",
"t+	c #103C2E",
"u+	c #032F40",
"v+	c #06304F",
"w+	c #012E4C",
"x+	c #012E51",
"y+	c #2F526C",
"z+	c #253335",
"A+	c #121E21",
"B+	c #082537",
"C+	c #042F4E",
"D+	c #063056",
"E+	c #0B3E66",
"F+	c #2279AF",
"G+	c #218EC9",
"H+	c #51A8D2",
"I+	c #7FBDDF",
"J+	c #A3D0E7",
"K+	c #5C7A7C",
"L+	c #D2CE9B",
"M+	c #CCCA8F",
"N+	c #9F9D61",
"O+	c #9F914A",
"P+	c #B29445",
"Q+	c #8B8651",
"R+	c #1F3B2F",
"S+	c #06344C",
"T+	c #053261",
"U+	c #042D5E",
"V+	c #03355A",
"W+	c #2E586A",
"X+	c #223132",
"Y+	c #101B1D",
"Z+	c #092736",
"`+	c #04314B",
" @	c #023352",
".@	c #01314F",
"+@	c #10547E",
"@@	c #1A7BB2",
"#@	c #1987C1",
"$@	c #3699CD",
"%@	c #59AEE1",
"&@	c #70AAC9",
"*@	c #586E64",
"=@	c #FBE09B",
"-@	c #FED983",
";@	c #FBD96A",
">@	c #FED242",
",@	c #FBBC2A",
"'@	c #927C35",
")@	c #163131",
"!@	c #0B3A59",
"~@	c #053661",
"{@	c #08365A",
"]@	c #033C51",
"^@	c #2C5B61",
"/@	c #1A2728",
"(@	c #060901",
"_@	c #101C1C",
":@	c #0C2A38",
"<@	c #043148",
"[@	c #063552",
"}@	c #03375B",
"|@	c #165E8F",
"1@	c #1A72A8",
"2@	c #207CAE",
"3@	c #2589C0",
"4@	c #3B9CD3",
"5@	c #4D8A9A",
"6@	c #838D63",
"7@	c #FCDF76",
"8@	c #FAD953",
"9@	c #F5D641",
"0@	c #F5CA32",
"a@	c #E6AF2D",
"b@	c #5B623A",
"c@	c #09394D",
"d@	c #0D3F5E",
"e@	c #093858",
"f@	c #063857",
"g@	c #144C64",
"h@	c #2B5560",
"i@	c #141F21",
"j@	c #111D1E",
"k@	c #0B2A32",
"l@	c #073345",
"m@	c #083856",
"n@	c #083C63",
"o@	c #185386",
"p@	c #094577",
"q@	c #074064",
"r@	c #034E79",
"s@	c #126592",
"t@	c #3D6C64",
"u@	c #B7AE56",
"v@	c #F8CF38",
"w@	c #FAC82A",
"x@	c #F8BC27",
"y@	c #F4AD25",
"z@	c #CF9233",
"A@	c #364438",
"B@	c #0D4068",
"C@	c #103C6A",
"D@	c #0D3A66",
"E@	c #0C3E63",
"F@	c #2F6176",
"G@	c #1A3A40",
"H@	c #141C1E",
"I@	c #131D21",
"J@	c #0D272A",
"K@	c #0E353F",
"L@	c #063754",
"M@	c #093D5A",
"N@	c #0C375B",
"O@	c #0F3A5C",
"P@	c #0B455C",
"Q@	c #08516D",
"R@	c #0B5174",
"S@	c #305C58",
"T@	c #9A9D55",
"U@	c #E8B82E",
"V@	c #F9B21C",
"W@	c #FCA911",
"X@	c #F2A21C",
"Y@	c #A07E38",
"Z@	c #2C4041",
"`@	c #114368",
" #	c #094468",
".#	c #024661",
"+#	c #0F5268",
"@#	c #386372",
"##	c #14252B",
"$#	c #171B1E",
"%#	c #171A1F",
"&#	c #101D21",
"*#	c #142E34",
"=#	c #0D3A4B",
"-#	c #094069",
";#	c #07466A",
">#	c #094F69",
",#	c #0D5B7F",
"'#	c #0D6894",
")#	c #13759B",
"!#	c #177392",
"~#	c #1F6A80",
"{#	c #4C7C62",
"]#	c #678159",
"^#	c #647754",
"/#	c #446959",
"(#	c #135A67",
"_#	c #084C72",
":#	c #0F4C73",
"<#	c #0B4769",
"[#	c #0E496E",
"}#	c #2A6C82",
"|#	c #1C433F",
"1#	c #161D0F",
"2#	c #181A19",
"3#	c #050901",
"4#	c #18181C",
"5#	c #14191D",
"6#	c #0E2228",
"7#	c #11424E",
"8#	c #084261",
"9#	c #064E70",
"0#	c #075878",
"a#	c #115C85",
"b#	c #1F709C",
"c#	c #1E84AA",
"d#	c #2493BC",
"e#	c #2A91C1",
"f#	c #1D88A7",
"g#	c #1780A1",
"h#	c #13779C",
"i#	c #127097",
"j#	c #0E6490",
"k#	c #0D5B86",
"l#	c #104D74",
"m#	c #16466C",
"n#	c #336289",
"o#	c #315775",
"p#	c #112129",
"q#	c #1A1B16",
"r#	c #171919",
"s#	c #17191A",
"t#	c #1A1C1D",
"u#	c #161A1E",
"v#	c #17242E",
"w#	c #1F4B54",
"x#	c #115065",
"y#	c #0C597C",
"z#	c #107290",
"A#	c #1483A0",
"B#	c #2595B6",
"C#	c #32A3C1",
"D#	c #3BA8C1",
"E#	c #49A0C3",
"F#	c #3CA6B6",
"G#	c #289EAA",
"H#	c #208BAA",
"I#	c #1D78A8",
"J#	c #0A6E9A",
"K#	c #066280",
"L#	c #26707E",
"M#	c #2B6365",
"N#	c #13262B",
"O#	c #1A1A21",
"P#	c #1A171D",
"Q#	c #19191C",
"R#	c #020300",
"S#	c #121816",
"T#	c #131615",
"U#	c #131815",
"V#	c #0F1914",
"W#	c #102B29",
"X#	c #22525E",
"Y#	c #175A78",
"Z#	c #0E5E87",
"`#	c #1C80A9",
" $	c #29A0C0",
".$	c #38B1C6",
"+$	c #4CB7C5",
"@$	c #57B1C4",
"#$	c #4BAFC6",
"$$	c #3CAACE",
"%$	c #2796C0",
"&$	c #117DA0",
"*$	c #10697F",
"=$	c #327782",
"-$	c #2D5C64",
";$	c #17242F",
">$	c #13141A",
",$	c #171714",
"'$	c #161712",
")$	c #151616",
". . . . . . . + @ # $ % & * = - ; > , ' ) ! ~ { . . . . . . ",
"] ] ] ] ] ] ] ^ / ( _ : < [ } | 1 2 3 4 5 6 7 8 ] ] ] ] ] ] ",
"9 9 9 9 9 0 a b c d e f g h i j k l m n o p q r s 9 9 9 9 9 ",
"t t t t t u v w x y z A B C D E F G H I J K L M N t t t t t ",
"O O O O P Q R S T U V W X Y Z `  ...+.@.#.$.%.&.*.=.O O O O ",
"-.-.-.-.;.>.,.'.).!.~.{.].^./.(._.:.<.[.}.|.1.2.3.4.-.-.-.-.",
"5.5.5.5.6.7.8.9.0.a.b.c.d.e.f.g.h.i.j.k.l.m.n.o.p.q.r.5.5.5.",
"s.s.s.s.t.u.v.w.x.y.z.A.B.C.D.E.F.G.H.I.J.K.L.M.N.O.P.s.s.s.",
"Q.Q.Q.R.S.T.U.V.W.X.Y.Z.`. +.+++@+#+$+%+&+*+=+-+;+>+,+Q.Q.Q.",
"'+'+'+)+!+~+{+]+^+/+(+_+:+<+[+}+|+1+2+3+4+5+6+7+8+9+0+'+'+'+",
"a+a+a+b+c+d+e+f+g+h+i+j+k+l+m+n+o+p+q+r+s+t+u+v+w+x+y+z+a+a+",
"a+a+a+A+B+C+D+f+E+F+G+H+I+J+K+L+M+N+O+P+Q+R+S+T+U+V+W+X+a+a+",
"a+a+a+Y+Z+`+ @.@+@@@#@$@%@&@*@=@-@;@>@,@'@)@!@~@{@]@^@/@a+a+",
"(@(@(@_@:@<@[@}@|@1@2@3@4@5@6@7@8@9@0@a@b@c@d@e@f@g@h@i@(@(@",
"a+a+a+j@k@l@m@n@o@p@q@r@s@t@u@v@w@x@y@z@A@B@C@D@E@F@G@H@a+a+",
"a+a+a+I@J@K@L@M@N@O@P@Q@R@S@T@U@V@W@X@Y@Z@`@ #.#+#@###$#a+a+",
"(@(@(@%#&#*#=#-#;#>#,#'#)#!#~#{#]#^#/#(#_#:#<#[#}#|#1#2#(@(@",
"3#3#3#4#5#6#7#8#9#0#a#b#c#d#e#f#g#h#i#j#k#l#m#n#o#p#q#r#3#3#",
"3#3#3#s#t#u#v#w#x#y#z#A#B#C#D#E#F#G#H#I#J#K#L#M#N#O#P#Q#3#3#",
"R#R#R#S#T#U#V#W#X#Y#Z#`# $.$+$@$#$$$%$&$*$=$-$;$>$,$'$)$R#R#"};
