/* XPM */
static char * icewm_xpm[] = {
"55 25 114 2",
"  	c None",
". 	c #515151",
"+ 	c #505050",
"@ 	c #4D4D4D",
"# 	c #606060",
"$ 	c #353535",
"% 	c #343434",
"& 	c #242424",
"* 	c #232323",
"= 	c #1E1E1E",
"- 	c #525252",
"; 	c #676767",
"> 	c #7E7E7E",
", 	c #535353",
"' 	c #5D5D5D",
") 	c #757575",
"! 	c #828282",
"~ 	c #818181",
"{ 	c #979797",
"] 	c #6C6C6C",
"^ 	c #7C7C7C",
"/ 	c #868686",
"( 	c #A3A3A3",
"_ 	c #9D9D9D",
": 	c #858585",
"< 	c #848484",
"[ 	c #747474",
"} 	c #989898",
"| 	c #A9A9A9",
"1 	c #717171",
"2 	c #7A7A7A",
"3 	c #999999",
"4 	c #6E6E6E",
"5 	c #8A8A8A",
"6 	c #8D8D8D",
"7 	c #808080",
"8 	c #666666",
"9 	c #696969",
"0 	c #888888",
"a 	c #5A5A5A",
"b 	c #8C8C8C",
"c 	c #A5A5A5",
"d 	c #7D7D7D",
"e 	c #767676",
"f 	c #7B7B7B",
"g 	c #A8A8A8",
"h 	c #9A9A9A",
"i 	c #6A6A6A",
"j 	c #939393",
"k 	c #797979",
"l 	c #9B9B9B",
"m 	c #A2A2A2",
"n 	c #A0A0A0",
"o 	c #A4A4A4",
"p 	c #D1D1D1",
"q 	c #AFAFAF",
"r 	c #8F8F8F",
"s 	c #C8C8C8",
"t 	c #4A4A4A",
"u 	c #BEBEBE",
"v 	c #272727",
"w 	c #8E8E8E",
"x 	c #616161",
"y 	c #B7B7B7",
"z 	c #282828",
"A 	c #A1A1A1",
"B 	c #CCCCCC",
"C 	c #1F1F1F",
"D 	c #AAAAAA",
"E 	c #9F9F9F",
"F 	c #B6B6B6",
"G 	c #898989",
"H 	c #CACACA",
"I 	c #B0B0B0",
"J 	c #707070",
"K 	c #4F4F4F",
"L 	c #727272",
"M 	c #BDBDBD",
"N 	c #3D3D3D",
"O 	c #333333",
"P 	c #B3B3B3",
"Q 	c #323232",
"R 	c #A7A7A7",
"S 	c #6D6D6D",
"T 	c #BBBBBB",
"U 	c #6B6B6B",
"V 	c #959595",
"W 	c #212121",
"X 	c #C2C2C2",
"Y 	c #5B5B5B",
"Z 	c #585858",
"` 	c #C0C0C0",
" .	c #222222",
"..	c #CDCDCD",
"+.	c #787878",
"@.	c #626262",
"#.	c #878787",
"$.	c #9C9C9C",
"%.	c #B4B4B4",
"&.	c #434343",
"*.	c #373737",
"=.	c #3B3B3B",
"-.	c #545454",
";.	c #555555",
">.	c #4E4E4E",
",.	c #575757",
"'.	c #C9C9C9",
").	c #2B2B2B",
"!.	c #4B4B4B",
"~.	c #4C4C4C",
"{.	c #C7C7C7",
"].	c #909090",
"^.	c #494949",
"/.	c #202020",
". . . . . . . . . . . . . . . . . . . . . . . . . . . . . . . . . . . . . . . . . . . . . . . . . . . . + @ # ",
"$ $ $ $ $ $ $ $ $ $ $ $ $ $ $ $ $ $ $ $ $ $ $ $ $ $ $ $ $ $ $ $ $ $ $ $ $ $ $ $ $ $ $ $ $ $ $ $ $ $ $ % % % . ",
"& & & & & & * & & & & & & & & & & & & & & & & & & & & & & & & & & * * & & & & & & & & & & & & & & & & & & $ . ",
"= = = = = = = = = = = = = = = = = = = = = = = = = = = = = = = = = = = = = = = = = = = = = = = = = = = = & $ . ",
"= = = = = = = = = = = = - = = = = = = = = = = = = = = = = = = = = = = = = = = = = = = = = = = = = = = = & $ . ",
"= = = = = = = = = = = ; > , = ' = = = = = = = = = = = = = = = = = = = = = = = = = = = = = = = = = = = = & $ . ",
"= = = = = = = = = = = ) ! ~ ; { = = = = = = = = = = = = = = = = = = = = = = = = = = = = = = = = = = = = & $ . ",
"= = = = = = = = = = ] ^ / ( ) _ : = = = = = = = = = = = = = = = = = = = = = = = = = = = = = = = = = = = * $ . ",
"= = = = = = = = = = < [ } | 1 2 3 4 = = = = = = = = = = = = = = = = = = = = = = = = = = = = = = = = = = & $ . ",
"= = = = = = = = = ; 5 1 6 | 7 8 9 7 = = = = = = = = = = = = = = = = = = = = = = = = = = = = = = = = = = & $ . ",
"= = = = = = 5 0 a { 6 b ) c { 1 d e = = = = = = = = = = = = = = = = = = = = = = = = = = = = = = = = = = & $ . ",
"= = = = = f g h i 5 j 3 k l m : 6 e = = = = = = = = = = = = = = = = = = = = = = = = = = = = = = = = = = & $ . ",
"= = = = = 0 n o ] f { l p q r g s p p p , t p p p p u v w x = = = = = ! 5 0 y % = = z A B C = = = = = = & $ . ",
"= = = = = w 0 D w [ E n p F G H I 1 G J = g K = = = = = w x = = = = = m L 0 c M N O P h p Q = = = = = = & $ . ",
"= = = = i < : D R S j n p T s | D G U k = p p p p V = = w x W ^ > W = X Y 0 ; Z ` u S  ...t = = = = = = & $ . ",
"= = = = +.@.< 3 #.' L $.p %.p h { i Z a = p = = = = = = w 9 E { 3 { Q p &.0 ; = *.=.= = P x = = = = = = & $ . ",
"= = = = K -.a ' ;.+ >.4 p c p @.Z ,.,.-.= p = = = = = = w '.G C  .l P p ).0 ; = = = = = V +.= = = = = = & $ . ",
"= = = = ,.Z ,.- !.~.!.-.p j p p p p p p , p p p p p ` v 6 f = = =  ._ {.= 0 ; = = = = = e ].= = = = = = & $ . ",
"= = = = >.K K K + ~.~.;.;.- + ,.K - -.+ = = = = = = = = W W C C C = C C C = = C = C = = = C C C C C C = & $ . ",
"= = = = @ ,.,.-.;.,.,.,.a ;.- K -.~.^.^.= = = = = = = = C /.C /./.W C /./.C C /.C /./.C C  .C /.= C C /.& $ . ",
"= = = = = = = = = = = = = = = = = = = = = = = = = = = = /./././.= C C W W /.W /./././.C  .C /./.C W C /.& $ . ",
"= = = = = = = = = = = = = = = = = = = = = = = = = = = C /./.C C C C C W W W /.C C C C  .= C /.C = W C W & $ . ",
"= = = = = = = = = = = = = = = = = = = = = = = = = = = C W C = = C /.= = = /./.C  .C  .= = C W C = /.C W & $ . ",
"= = = = = = = = = = = = = = = = = = = = = = = = = = = = /.= /.W W = /.W W W C /.= /.= = = = /.= W C /./.& $ . ",
"= = = = = = = = = = = = = = = = = = = = = = = = = = = = = = = = = = = = = = = = = = = = = = = = = = = = & $ . "};
