/* XPM */
static char * icewm_xpm[] = {
"49 23 188 2",
"  	c None",
". 	c #75797D",
"+ 	c #181818",
"@ 	c #2F2F2F",
"# 	c #171717",
"$ 	c #68696C",
"% 	c #61636B",
"& 	c #62636A",
"* 	c #2E2E2E",
"= 	c #616369",
"- 	c #5D6067",
"; 	c #5E6066",
"> 	c #5F6269",
", 	c #949598",
"' 	c #2A2A2A",
") 	c #5D5F65",
"! 	c #5B5D63",
"~ 	c #5B5E65",
"{ 	c #838489",
"] 	c #D1D1D1",
"^ 	c #7E7F82",
"/ 	c #262728",
"( 	c #5A5C62",
"_ 	c #57595F",
": 	c #5C5E64",
"< 	c #BABABC",
"[ 	c #D0D0D0",
"} 	c #ADADAD",
"| 	c #67686D",
"1 	c #242526",
"2 	c #56585E",
"3 	c #53555B",
"4 	c #54565C",
"5 	c #757679",
"6 	c #D9D9D9",
"7 	c #C5C5C5",
"8 	c #C4C4C4",
"9 	c #98989A",
"0 	c #52545A",
"a 	c #222324",
"b 	c #4F5157",
"c 	c #515359",
"d 	c #B3B3B5",
"e 	c #C2C2C2",
"f 	c #616263",
"g 	c #4B4D53",
"h 	c #202122",
"i 	c #4E5056",
"j 	c #4C4E54",
"k 	c #4E4F54",
"l 	c #727478",
"m 	c #B4B4B4",
"n 	c #898989",
"o 	c #B8B8B8",
"p 	c #BBBBBB",
"q 	c #6E6F72",
"r 	c #1E1F20",
"s 	c #4B4D51",
"t 	c #494B4F",
"u 	c #4A4C50",
"v 	c #4E5054",
"w 	c #B5B6B7",
"x 	c #C9C9C9",
"y 	c #666768",
"z 	c #45474B",
"A 	c #6A6A6C",
"B 	c #B0B0B0",
"C 	c #A8A8A8",
"D 	c #595B5F",
"E 	c #151617",
"F 	c #47494D",
"G 	c #44464A",
"H 	c #46484C",
"I 	c #6C6D70",
"J 	c #D6D6D6",
"K 	c #858585",
"L 	c #5D5D5F",
"M 	c #A3A3A3",
"N 	c #C3C3C3",
"O 	c #929292",
"P 	c #4D4E51",
"Q 	c #9C9D9E",
"R 	c #5B5C5F",
"S 	c #0A0B0C",
"T 	c #424448",
"U 	c #828284",
"V 	c #8C8C8E",
"W 	c #484A4E",
"X 	c #B1B2B3",
"Y 	c #4A4B4E",
"Z 	c #545558",
"` 	c #9C9C9C",
" .	c #C0C0C0",
"..	c #79797B",
"+.	c #DCDCDC",
"@.	c #8C8D8E",
"#.	c #08090A",
"$.	c #1D1D1D",
"%.	c #1B1B1B",
"&.	c #6A6A6A",
"*.	c #AEAEAE",
"=.	c #363636",
"-.	c #4B4B4B",
";.	c #424242",
">.	c #121212",
",.	c #303030",
"'.	c #B3B3B3",
").	c #484848",
"!.	c #232323",
"~.	c #CBCBCB",
"{.	c #BABABA",
"].	c #525252",
"^.	c #191919",
"/.	c #151515",
"(.	c #656565",
"_.	c #D5D5D5",
":.	c #C7C7C7",
"<.	c #717171",
"[.	c #1A1A1A",
"}.	c #9A9A9A",
"|.	c #949494",
"1.	c #272727",
"2.	c #545454",
"3.	c #7A7A7A",
"4.	c #B2B2B2",
"5.	c #A2A2A2",
"6.	c #646464",
"7.	c #C6C6C6",
"8.	c #343434",
"9.	c #444444",
"0.	c #8F8F8F",
"a.	c #696969",
"b.	c #6F6F6F",
"c.	c #222222",
"d.	c #989898",
"e.	c #515151",
"f.	c #494949",
"g.	c #777777",
"h.	c #090A0B",
"i.	c #636363",
"j.	c #BCBCBC",
"k.	c #7E7E7E",
"l.	c #3F3F3F",
"m.	c #818181",
"n.	c #BEBEBE",
"o.	c #767676",
"p.	c #737373",
"q.	c #323232",
"r.	c #575757",
"s.	c #141414",
"t.	c #3A3A3A",
"u.	c #979797",
"v.	c #080A0C",
"w.	c #919191",
"x.	c #3E3E3E",
"y.	c #202020",
"z.	c #6E6E6E",
"A.	c #ABABAB",
"B.	c #393939",
"C.	c #505050",
"D.	c #4C4C4C",
"E.	c #464646",
"F.	c #161616",
"G.	c #131313",
"H.	c #808080",
"I.	c #2C2C2C",
"J.	c #606060",
"K.	c #B6B6B6",
"L.	c #555555",
"M.	c #1C1C1C",
"N.	c #666666",
"O.	c #6B6B6B",
"P.	c #090B0D",
"Q.	c #2D2D2D",
"R.	c #474747",
"S.	c #3C3C3C",
"T.	c #373737",
"U.	c #0A0D10",
"V.	c #0C1014",
"W.	c #171819",
"X.	c #131415",
"Y.	c #111619",
"Z.	c #1B1B1F",
"`.	c #17171B",
" +	c #0B0E0F",
".+	c #1C1C20",
"++	c #121314",
"@+	c #0D1011",
". + @ @ @ @ @ @ @ @ @ @ @ @ @ @ @ @ @ @ @ @ @ @ @ @ @ @ @ @ @ @ @ @ @ @ @ @ @ @ @ @ @ @ @ @ @ + . ",
"# $ % % % % & & % % % % % % % % % & % % % % % % % % % % & & % % % % % & % % % & % % % % % % % $ # ",
"* = - - - - ; ; - - - - - - - - - ; - - - - - - > , > - ; ; - - - - - ; - - - ; - - - - - - - = * ",
"' ) ! ! ! ! ! ! ! ! ! ! ! ! ! ! ! ~ ~ ~ ~ ~ ~ ! { ] ^ ~ ~ ~ ~ ~ ~ ~ ~ ~ ~ ~ ~ ~ ~ ! ! ! ! ! ! ) ' ",
"/ ( _ _ _ _ _ _ _ _ _ _ _ _ _ _ _ _ _ _ _ _ _ : < [ } | _ _ _ _ _ _ _ _ _ _ _ _ _ _ _ _ _ _ _ ( / ",
"1 2 3 3 3 3 4 3 3 3 3 3 3 3 3 3 3 4 3 3 3 3 3 5 6 7 8 9 3 3 3 3 3 3 3 3 3 3 3 0 3 3 3 3 3 3 3 2 1 ",
"a 0 b b b b c b b b b b b b b b b c b b b b b d [ 8 8 e f b b g b b b b b b b b b b b b b b b 0 a ",
"h i j j j j k k j j j j j j j j j k j j j j l 6 m n o 8 p q j j j j j k j j j k j j j j j j j i h ",
"r s t t t t u u t t t t t t t t t u t t t v w x y z A B 8 C D t t t t u t t v s t t t t t t t s r ",
"E F G G G G H H G G G G H u G G G H G G G I J K H G H L M N O P G G G H G P Q R G G G G G G G F E ",
"S G T T T T G G T T T z U V G T T G T T W X C Y T T T T Z `  ...G T T G T 5 +.@.F T T T T T T G S ",
"#.$.# # # # %.%.# # %.&.J *.=.# # %.# # -.e ;.# # # # # >.,.n '.).# # %.!.'.~.{.].^.# # # # # $.#.",
"#.# >.>.>.>.# # >./.(._.:.e <./.>.# >.[.}.<./.>.>.>.>.>.>.>.%.&.|.1.>.# 2.7 3.4.5.* >.>.>.>.>.# #.",
"#.# >.>.>.>.# # /.6.J 7.{.e B 8.>.# >.9.0.$.>.>.>.>.>.>.>.>.>.[.a.b.[.c.d.e.^.f.} g.[.>.>.>.>.# #.",
"h.# >.>.>.>.# [.i.J j.k.l.m.n.o./.# [.p.q.>.>.>.>.>.>.>.>.>.>.>.[.r.e.-.-.s.>.+ t.u.-.s.>.>.>.# h.",
"v.# >.>.>.>.[.6.] w.x.# >.y.z.A.=.# B.C.s.>.>.>.>.>.>.>.>.>.>.>.>.# D.E.F.>.>.# G.=.H.I.>.>.>.# v.",
"v.# >.>.>.s.J.K.L.M.>.>.>.>.%.N.O.y.e.y.>.>.>.>.>.>.>.>.>.>.>.>.>.>.G.>.>.>.>.>.>.G.x.i.>.>.>.# v.",
"P.# >.>.s.].H.Q.G.>.>.>.>.>.>.[.D.R.* >.>.>.>.>.>.>.>.>.>.>.>.>.>.>.>.>.>.>.>.>.>.>.G.S.T.>.>.# P.",
"U.# >.G.9.2.>.>.>.>.>.>.>.>.>.>.F.1.s.>.>.>.>.>.>.>.>.>.>.>.>.>.>.>.>.>.>.>.>.>.>.>.>.>.>.>.>.# U.",
"V.W.>.G.B.F.X.X.X.X.>.>.>.>.>.>.>.>.>.>.>.>.>.>.>.>.>.>.X.>.>.>.>.>.>.>.>.>.>.>.>.>.>.>.>.>.>.W.V.",
"Y.Z.X.X.X.X.`.`.`.`.X.X.X.X.X.X.X.X.X.X.X.X.X.X.X.X.X.X.`.X.X.X.X.X.`.`.`.`.`.`.`.X.X.X.X.X.X.Z.Y.",
" +.+`.`.`.`.`.`.`.`.`.`.`.`.`.`.`.`.`.`.`.`.`.`.`.`.`.`.`.`.`.`.`.`.`.X.`.`.`..+`.`.`.`.`.`.`..+ +",
"++@+@ @ @ @ @ @ @ @ @ @ @ @ @ @ @ @ @ @ @ @ @ @ @ @ @ @ @ @ @ @ @ @ @ @ @ @ @ @ @ @ @ @ @ @ @ @+++"};
