/* XPM */
static char * icewm_win_xpm[] = {
"90 30 235 2",
"  	c None",
". 	c #50566A",
"+ 	c #565C6B",
"@ 	c #4C5265",
"# 	c #5A5D6A",
"$ 	c #494F61",
"% 	c #757575",
"& 	c #7A7A7A",
"* 	c #76787B",
"= 	c #828383",
"- 	c #838489",
"; 	c #8B8C8C",
"> 	c #929292",
", 	c #989A9D",
"' 	c #999CA5",
") 	c #6C7283",
"! 	c #7A7E8E",
"~ 	c #98A3BB",
"{ 	c #9EABC4",
"] 	c #333333",
"^ 	c #3A3A3A",
"/ 	c #434343",
"( 	c #4A4A4B",
"_ 	c #535353",
": 	c #575758",
"< 	c #5B5B5B",
"[ 	c #616161",
"} 	c #939599",
"| 	c #818695",
"1 	c #4F525C",
"2 	c #6C707D",
"3 	c #666768",
"4 	c #8B8C90",
"5 	c #717481",
"6 	c #444854",
"7 	c #5B6375",
"8 	c #4F5154",
"9 	c #4B4D54",
"0 	c #747989",
"a 	c #2B2B2B",
"b 	c #2E2E31",
"c 	c #C3C4C5",
"d 	c #D3D4D5",
"e 	c #B7B8B9",
"f 	c #7C7E81",
"g 	c #6A6B6B",
"h 	c #757A85",
"i 	c #3D424B",
"j 	c #ECEDEE",
"k 	c #FEFEFE",
"l 	c #AEB1B5",
"m 	c #383D43",
"n 	c #2D3034",
"o 	c #5E5F60",
"p 	c #636673",
"q 	c #3C3F49",
"r 	c #656B7A",
"s 	c #9CA4AF",
"t 	c #676B74",
"u 	c #434652",
"v 	c #474B58",
"w 	c #232324",
"x 	c #26282A",
"y 	c #BFC1C3",
"z 	c #F6F8FA",
"A 	c #5E728E",
"B 	c #959EAC",
"C 	c #E3E4E4",
"D 	c #BCBEC1",
"E 	c #B2B4B7",
"F 	c #333360",
"G 	c #AAE3FF",
"H 	c #E3A965",
"I 	c #44446B",
"J 	c #E5AD6C",
"K 	c #31363C",
"L 	c #526076",
"M 	c #E7E9EB",
"N 	c #D4DAE3",
"O 	c #476288",
"P 	c #BAC2CC",
"Q 	c #1F2A3C",
"R 	c #252A30",
"S 	c #343485",
"T 	c #C9FFFF",
"U 	c #44448E",
"V 	c #7E8083",
"W 	c #343843",
"X 	c #A5B4C9",
"Y 	c #4E698F",
"Z 	c #CFD4DB",
"` 	c #1C2E49",
" .	c #202A39",
"..	c #3C3C8A",
"+.	c #3E4043",
"@.	c #48488F",
"#.	c #AF714C",
"$.	c #C4C8CD",
"%.	c #8593A9",
"&.	c #6E84A5",
"*.	c #7C91B0",
"=.	c #BCC5D4",
"-.	c #788DAD",
";.	c #7789A3",
">.	c #A2AEC1",
",.	c #193053",
"'.	c #60A7E3",
").	c #FFE2A5",
"!.	c #633737",
"~.	c #64A9E3",
"{.	c #FFE4AC",
"].	c #653C3C",
"^.	c #84C5FF",
"/.	c #FFFFC5",
"(.	c #893C3C",
"_.	c #8C418C",
":.	c #6AACE5",
"<.	c #FFFFC9",
"[.	c #8F4848",
"}.	c #0A0A0A",
"|.	c #080C12",
"1.	c #6A7B92",
"2.	c #597195",
"3.	c #3A5782",
"4.	c #3E587F",
"5.	c #B2BBCA",
"6.	c #7084A3",
"7.	c #0A2449",
"8.	c #0A1629",
"9.	c #131313",
"0.	c #832C2C",
"a.	c #282859",
"b.	c #A4C4A4",
"c.	c #5A2929",
"d.	c #E5AF70",
"e.	c #1E202E",
"f.	c #1B1B1B",
"g.	c #3586C6",
"h.	c #FFC37D",
"i.	c #A6E3FF",
"j.	c #54A2E2",
"k.	c #FFFFE4",
"l.	c #A55D2E",
"m.	c #22242B",
"n.	c #CFD1D3",
"o.	c #E2E6EA",
"p.	c #657894",
"q.	c #0A2753",
"r.	c #DADEE4",
"s.	c #B4BFD3",
"t.	c #314E79",
"u.	c #061D40",
"v.	c #091424",
"w.	c #020202",
"x.	c #1D1D7C",
"y.	c #C4FFFF",
"z.	c #E3A760",
"A.	c #A96337",
"B.	c #5DA6E2",
"C.	c #0F1013",
"D.	c #191A25",
"E.	c #03060A",
"F.	c #A3ADBB",
"G.	c #304360",
"H.	c #3B5273",
"I.	c #6A7E9C",
"J.	c #637CA2",
"K.	c #3F5D89",
"L.	c #0A1C38",
"M.	c #09111E",
"N.	c #232356",
"O.	c #6D4848",
"P.	c #486DAE",
"Q.	c #E4FFFF",
"R.	c #C98D43",
"S.	c #13141B",
"T.	c #EFF2F6",
"U.	c #516683",
"V.	c #9097A7",
"W.	c #F0F2F3",
"X.	c #72829B",
"Y.	c #6E819E",
"Z.	c #8798B1",
"`.	c #092042",
" +	c #CA8F48",
".+	c #914B4B",
"++	c #365482",
"@+	c #C3C9D1",
"#+	c #5B6C85",
"$+	c #050A13",
"%+	c #592626",
"&+	c #3E67AA",
"*+	c #415B81",
"=+	c #050D19",
"-+	c #8AC8FF",
";+	c #ABAEB0",
">+	c #ACB8CB",
",+	c #BEC9D9",
"'+	c #3C89C8",
")+	c #C8883A",
"!+	c #FFCA8F",
"~+	c #295AA4",
"{+	c #2E2E83",
"]+	c #28374D",
"^+	c #0E2951",
"/+	c #092A5D",
"(+	c #0E3267",
"_+	c #8E9FB8",
":+	c #07224A",
"<+	c #051124",
"[+	c #C3E2A2",
"}+	c #683F3F",
"|+	c #06152B",
"1+	c #051B3B",
"2+	c #072046",
"3+	c #1A3359",
"4+	c #D9DFE9",
"5+	c #17177A",
"6+	c #853333",
"7+	c #6262A8",
"8+	c #7C1D1D",
"9+	c #16181F",
"0+	c #1B1D29",
"a+	c #05080D",
"b+	c #051731",
"c+	c #263752",
"d+	c #16335E",
"e+	c #0E213C",
"f+	c #072A5E",
"g+	c #072654",
"h+	c #051835",
"i+	c #161821",
"j+	c #161621",
"k+	c #12192F",
"l+	c #151E3D",
". . . . + . . . . . . . . . . . @ . . . . . . . . . . . . . . . . . . . . . . . . . . . . . + . . . . . . . . . . . . . . + . . . . . . . . # . . . . . # . . . $ @ . . . . . . . . ",
"% % % % % % % % % % % & % % % % % % % % * % % % % % % & & & % & % & & & & % & & & & & & & & & & & & & & = & & = = = = = = = - = = ; ; ; ; ; ; > ; > > > > > , ' ) # ! ~ { { { { { { ",
"] ^ ^ ^ ^ ] ^ ^ ] ^ ^ ^ ^ ^ ^ ^ ^ ^ ^ ^ ^ ^ ^ ^ ^ ^ ^ ^ ^ ^ ^ ^ ^ ^ ^ ^ ^ ^ ^ ^ ^ / ^ ^ ^ ^ / / / / / / / / / / / ( ( ( ( _ _ ( _ _ _ _ : : < < < < < [ [ [ % = } | # 1 2 | | | | | ",
"] ^ ] ] ] ^ ] ] ] ^ ] ] ] ] ^ ] ^ ] ^ ^ ^ ^ ^ ] ^ ^ ^ ^ ^ ^ ^ ^ ^ ^ ^ ^ ^ ^ ^ ^ ^ ^ ^ ^ ^ ^ ^ ^ ^ ^ / / / / / / / ( / ( ( ( ( ( ( _ _ _ _ : : : < < < < < [ [ 3 % & 4 5 6 7 ! ! ! ! ",
"] ] ] ] ] ] ] ] ] ] ] ] ] ] ] ] ^ ] ] ] ] ] ] ] ] ] ] ^ ] ] ] ] ] ^ ] ] ^ ] ^ ] ^ ] ^ ^ ^ ] ^ ^ ^ ^ ^ ^ ^ / / / ^ / / / ( ( ( ( ( ( ( 8 _ _ _ _ : : : < < [ < [ [ [ % ; ! 9 # 0 0 0 ",
"] a b b b ] a ] ] b ] [ , c d e f / ] ] ] ] ] ] ] ] ] ] ] ] ] ] ] ] ] ] ] ] ] ] ] ] ] ] ] ] ] ] ] ^ ^ ^ ^ ^ ^ ^ / / / / / / / / ( ( ( 8 ( 8 _ _ _ _ : : : < < < [ [ [ g - h i # ) ) ",
"a ] a ] b b b ] b b 3 j k k k k k l m n ] b b b b ] b b b ] b ] ] a ] ] b ] ] ] ] a ] a ] b ] ] ] ] ] ] ] ^ ^ ^ ^ ^ / / / / / / ( / ( ( ( ( 8 _ _ _ _ _ : : < < < < o [ g - p q p r ",
"a a a a a a a a a a > k k k k k k s t } < ^ ] m < a a a b a a a a a a a a a a a a ] ] ] ] ] b b ] ] ] ] ] ] ] ^ ^ ^ ^ ^ ^ ^ / / / / / ( ( ( ( ( ( _ ( _ _ : : : < < < o [ g - u v 7 ",
"w a w a a w x a a ] y k k k k k z A B k C D E c j x a a a a x a a a a a a a x a a F G H ] ] a a ] ] ] a ] ] a ^ ] ^ ^ ^ ^ ^ ^ / I G J / ( ( ( ( ( _ ( _ _ _ _ _ < < < < o o & t K L ",
"a a w a w a w x w _ M k k k k k N O P k k k k k k Q R x w w w a a w w w a x w x a S T H ] b a a x a a b a a ] ] ] ] ^ ^ ^ ^ ^ / U T J ( ( / / ( ( ( ( _ ( _ _ _ : : < < < o g V W i ",
"w w x w w x w w x & k k k k k k X Y j k k k k k Z `  .x w x w w w a a a b a ] a ^ ..T J / ^ b R ] ] ] ] ^ ] a ] ] ] ^ ^ +.^ ^ / @.T J ( / / ( ( / ( ( ( _ _ _ _ _ _ : < < < L #.1 W ",
"w w w w w w w w b , $.%.&.*.=.z -.;.k k k k k k >.,. .x w w w w a a '.k k k ).!.~.k k k k {.].n ^.k k k /.(.^ ^ ^ ~./._.T k H :.k k k k <.[.( ( ( ( ( ( ( _ _ _ : : : < < < L % p b ",
"}.}.}.}.}.}.}.}.|.i 7 1.;.2.3.Y 4.5.k k k k k k 6.7.8.|.}.}.}.9.9.^./.0.a a.b.c.b U T d.!.e.f.g.h.w w a.i.).c.w f.j.k.C l.a f.a ..T d.^ a 9.9.}.}.9.9.f.9.f.f.a a a ^ ^ ( < < g h m.",
"}.}.}.}.}.}.}.}.+.n.k k k k o.p.q.| r.z k z o.s.t.u.v.|.}.}.w.9.x.y.z.^ ] x w a ] ..T J ^ R f.w f.f.w a g.k.A.x a B.k J ^ x w a ..T d.^ a f.9.C.}.}.}.}.}.}.}.}.}.}.}.}.}.}.f.] % D.",
"}.}.}.}.}.E.}.}.- k k k k k k F.G.L H.I.*.-.J.K.q.L.M.|.}.}.}.9.N.i.).O./ ^ a a ] ..T J ^ a f.f.w x a ^ P.Q.R.a a '.k.#./ a f.a ..T d.c.a f.9.}.}.}.}.}.}.}.}.}.}.}.}.}.}.}.}.}._ S.",
"w.}.}.w.}.}.}.9.y k k k k k T.U.V.W.F.X.Y.Z.5.;.`.8.|.}.}.}.w.9.w g.k k ).].x w a S T J ] f.9.f.w ^.k k k k  +] ] './..+] w C.f.++G d.] f.}.}.w.}.}.w.}.}.}.}.}.}.}.}.}.}.}.C.9.8 9.",
"}.}.}.}.w.}.}.] W.k k k k k N H.@+k k k k k k #+L.M.$+}.E.}.}.9.f.a ^ ~.k k h.w x S T J b w 9.j.k ).%+b &+Q. +b ] '.<.[.] f.}.f.S T J b f.}.w.}.}.}.}.w.}.}.}.}.}.}.C.}.C.}.}.f.( S.",
"w.w.w.}.}.w.w.g k k k k k k X *+z k k k k k N ,.8.=+}.E.w.w.w.}.9.f.a a ^ -+k.l.] ..T J ] w x.y.z.] a ] &+Q. +] b '.<.[.] f.}.f.S T J n f.}.}.}.w.}.}.}.}.}.}.}.}.9.}.}.C.C.9.w ^ S.",
"}.w.}.w.w.}.}.;+M =.>+,+T.k &.X.k k k k k k F.7.8.=+E.}.}.w.}.}.9.f.w x ] '+k )+^ ..T !+] a ~+Q.R.^ ] ^ :.k  +] ] './.[.] f.E.f.{+T !+] w }.}.}.}.}.}.}.}.}.}.}.9.}.C.9.9.9.9.] b D.",
"w.}.w.}.w.E.w.9 ]+^+/+(+++_+4.=.k k k k k k I.:+<+|.w.w.w.}.w.C.x.[+c.w ^ -+<.(.] ] -+{.}+^ ..y.{.O.^ '+k k  +] b '.<.[.b f.}.9.a -+{.}+a f.9.C.}.C.}.}.}.9.9.9.9.9.9.9.9.9.9.+.m.D.",
"w.w.w.w.w.w.}.|.|+1+2+2+:+:+3+=.k k k k k 4+O ^+v.E.E.}.w.w.w.}.5+y.k k k ).].] a a S T k /.6+P.Q.k k ).7+Q.)+x a B./.(.a f.w.9.w S T k /.8+9.9.C.C.}.9.9.9.9.9.9.9.9.9.f.f.w ^ 9+0+",
"}.w.}.}.}.w.E.a+=+<+<+|+|+|+b+c+X.>.X { *.*+d+e+=+E.w.w.}.w.}.C.9.w w w a x a a w f.w a a a a ] ^ a a x a ^ a f.f.w a ] w f.}.C.f.x b ] a w 9.9.}.9.9.9.9.9.9.9.9.f.f.f.f.f.^ w S.e.",
"w.w.w.w.w.w.w.E.E.a+a+$+$+$+$+<+1+:+f+f+f+g+u.|+$+E.w.w.w.w.w.}.9.w w f.w f.f.f.9.9.f.f.w w w w a w w w w a f.f.f.f.w w f.9.}.}.9.f.w a w w f.9.9.9.9.9.9.9.f.f.f.f.f.f.f.a ^ D.D.e.",
"w.w.w.w.w.w.w.w.w.w.E.w.w.w.E.$+<+b+1+u.1+h+<+=+}.w.w.w.w.w.w.}.}.9.9.9.9.9.9.}.}.}.}.9.f.9.f.9.9.f.f.9.f.f.f.9.9.9.f.f.9.9.}.C.9.f.f.w w f.f.f.9.f.f.9.f.f.f.f.f.f.w f.w +.f.S.0+e.",
"w.w.w.w.w.w.w.w.w.w.w.w.w.w.w.w.w.w.w.w.w.w.w.w.w.w.w.w.w.w.w.w.w.w.w.w.w.w.w.w.w.E.w.}.w.}.}.}.}.}.}.}.}.}.}.}.}.C.C.}.9.9.9.9.9.9.f.9.9.f.f.f.f.f.f.f.f.f.f.f.w w e.x ^ f.9+9+0+0+",
"w.w.w.w.w.w.w.w.w.w.w.w.w.w.w.w.w.w.w.w.w.w.w.w.w.w.w.w.w.w.w.w.w.w.w.w.w.}.w.}.}.w.}.w.}.}.}.}.}.}.}.}.}.}.9.}.C.9.9.9.9.9.9.9.9.9.9.f.f.f.f.f.f.f.f.f.f.w w w w w R !.f.9+S.e.0+0+",
"w.w.w.w.w.w.w.w.w.w.w.w.w.w.w.w.w.w.w.w.w.w.w.w.w.w.w.w.w.w.w.w.E.w.w.w.}.w.}.}.}.}.}.E.}.}.}.}.C.C.9.}.9.9.9.9.9.9.9.9.9.9.9.f.f.f.f.f.f.f.w f.w f.w w w w w a a ] ] f.S.i+e.i+D.D.",
"w.w.w.w.w.w.w.w.w.w.w.w.w.w.w.w.w.w.w.w.w.w.w.w.w.w.w.w.w.w.E.w.w.}.}.}.}.}.w.}.}.}.}.}.}.}.9.}.C.C.}.9.9.9.9.9.9.9.f.f.f.f.f.f.f.f.f.f.f.w w w w w w w a a a a a f.9.f.i+i+i+i+D.j+",
"K K K K K K K K K K K K K K K K K K K K K K K K K K K K K K K K K K K K K K K K K K K K K K K K ^ K K K K K K K K K K K ^ K K K K K K K K K K K K K K K K K b e.S.k+l+l+`.e+e+l+l+l+",
"w.w.w.w.w.w.w.w.w.w.w.w.w.w.w.w.w.w.w.w.w.w.w.w.w.w.w.w.w.w.w.w.w.w.w.w.w.w.w.w.w.w.w.w.w.w.w.w.w.w.w.w.w.w.w.w.w.w.w.w.w.w.w.w.w.w.w.w.w.w.w.w.w.w.w.w.w.w.w.w.w.w.w.w.w.w.w.w.w.w."};
