/* XPM */
static char * icewm_xpm[] = {
"60 20 313 2",
"  	c None",
". 	c #5B5B5B",
"+ 	c #5C5C5C",
"@ 	c #5D5D5D",
"# 	c #5E5E5E",
"$ 	c #5F5F5F",
"% 	c #606060",
"& 	c #616161",
"* 	c #626262",
"= 	c #636363",
"- 	c #646464",
"; 	c #656565",
"> 	c #656666",
", 	c #717477",
"' 	c #8A8B8D",
") 	c #878889",
"! 	c #666666",
"~ 	c #626364",
"{ 	c #606164",
"] 	c #4E4E4E",
"^ 	c #4F4F4F",
"/ 	c #505050",
"( 	c #515151",
"_ 	c #525252",
": 	c #535353",
"< 	c #545454",
"[ 	c #555555",
"} 	c #565656",
"| 	c #575757",
"1 	c #595959",
"2 	c #5A5A5A",
"3 	c #ACABAE",
"4 	c #EBD4D5",
"5 	c #E7D0D1",
"6 	c #9E9999",
"7 	c #6D6D6D",
"8 	c #6F6F6F",
"9 	c #434343",
"0 	c #444444",
"a 	c #454545",
"b 	c #464646",
"c 	c #474747",
"d 	c #484848",
"e 	c #494949",
"f 	c #4A4A4A",
"g 	c #4B4B4B",
"h 	c #4C4C4C",
"i 	c #4D4D4D",
"j 	c #565657",
"k 	c #747677",
"l 	c #BBBCC0",
"m 	c #E3DAD5",
"n 	c #F3E2D8",
"o 	c #F2DFD5",
"p 	c #F1E5DE",
"q 	c #E18C7F",
"r 	c #E8694A",
"s 	c #E7684A",
"t 	c #D07368",
"u 	c #7B7777",
"v 	c #585858",
"w 	c #696969",
"x 	c #676767",
"y 	c #414141",
"z 	c #424242",
"A 	c #A0A4A7",
"B 	c #E0D6CD",
"C 	c #F9D0BA",
"D 	c #FAC9B2",
"E 	c #FBC7B0",
"F 	c #FAD4BD",
"G 	c #E07C5A",
"H 	c #E95404",
"I 	c #E95204",
"J 	c #D26344",
"K 	c #7B7676",
"L 	c #404040",
"M 	c #575859",
"N 	c #A7A7A5",
"O 	c #F7E3C1",
"P 	c #FAEACC",
"Q 	c #F8C0A0",
"R 	c #F9996F",
"S 	c #F77D45",
"T 	c #F66D2F",
"U 	c #F5773A",
"V 	c #F1B493",
"W 	c #EB964E",
"X 	c #EF944A",
"Y 	c #D8BAAE",
"Z 	c #747474",
"` 	c #3F3F3F",
" .	c #7E7D7A",
"..	c #E9D7B8",
"+.	c #FEDBAF",
"@.	c #FCD8A3",
"#.	c #F6CDA3",
"$.	c #F18F55",
"%.	c #F2A77D",
"&.	c #F0AC86",
"*.	c #EF8C54",
"=.	c #F17934",
"-.	c #F29D6E",
";.	c #F29E71",
">.	c #F1A881",
",.	c #AFA29B",
"'.	c #3E3E3E",
").	c #D8CCB4",
"!.	c #FCD49E",
"~.	c #FDCA8C",
"{.	c #FAA835",
"].	c #DBC495",
"^.	c #9AA0A6",
"/.	c #595D63",
"(.	c #50555B",
"_.	c #717479",
":.	c #B2A49B",
"<.	c #EE7333",
"[.	c #F44B01",
"}.	c #F4510A",
"|.	c #EB9667",
"1.	c #707071",
"2.	c #3D3D3D",
"3.	c #828991",
"4.	c #A5A9AD",
"5.	c #F4D8A5",
"6.	c #FDCD8E",
"7.	c #FBB250",
"8.	c #EEBB69",
"9.	c #717375",
"0.	c #58595B",
"a.	c #5A5C5F",
"b.	c #BD9B86",
"c.	c #F1631E",
"d.	c #F44800",
"e.	c #F36016",
"f.	c #A49C97",
"g.	c #313131",
"h.	c #323232",
"i.	c #343434",
"j.	c #353535",
"k.	c #363636",
"l.	c #383838",
"m.	c #3A3A3A",
"n.	c #3B3B3B",
"o.	c #3C3C3C",
"p.	c #494A4B",
"q.	c #9B9492",
"r.	c #F4CDBB",
"s.	c #F6CEBB",
"t.	c #F6D9C2",
"u.	c #FACF8E",
"v.	c #F8A736",
"w.	c #A89A80",
"x.	c #70757C",
"y.	c #DF8752",
"z.	c #F24C00",
"A.	c #F24F00",
"B.	c #B89072",
"C.	c #4B4C4D",
"D.	c #4F5050",
"E.	c #333333",
"F.	c #393939",
"G.	c #5E6063",
"H.	c #C88B6C",
"I.	c #F6843F",
"J.	c #F88740",
"K.	c #EF9462",
"L.	c #F7CE96",
"M.	c #F4A737",
"N.	c #847D6E",
"O.	c #626467",
"P.	c #D2BAAA",
"Q.	c #F3B795",
"R.	c #C7B5A7",
"S.	c #595A5C",
"T.	c #363738",
"U.	c #363737",
"V.	c #373737",
"W.	c #58595A",
"X.	c #BE8968",
"Y.	c #F37202",
"Z.	c #F77500",
"`.	c #EF9351",
" +	c #F7CB89",
".+	c #F4A533",
"++	c #908876",
"@+	c #6C6E70",
"#+	c #D9C0B7",
"$+	c #F2BCB6",
"%+	c #F0B0A9",
"&+	c #C0A598",
"*+	c #555657",
"=+	c #7E7874",
"-+	c #E7AB72",
";+	c #F2A962",
">+	c #F5D1A7",
",+	c #FBB95C",
"'+	c #F99F24",
")+	c #C5B18B",
"!+	c #93959A",
"~+	c #E9B6AD",
"{+	c #ED9393",
"]+	c #EA817A",
"^+	c #B29B8F",
"/+	c #55595D",
"(+	c #767879",
"_+	c #E9C382",
":+	c #FBA12B",
"<+	c #FC991D",
"[+	c #F4AB3E",
"}+	c #A2A09A",
"|+	c #606163",
"1+	c #5B5C5F",
"2+	c #7D7E81",
"3+	c #E3BAB3",
"4+	c #E9837E",
"5+	c #E4605E",
"6+	c #E36C55",
"7+	c #909091",
"8+	c #AA9D85",
"9+	c #F6A838",
"0+	c #FB9618",
"a+	c #FB950F",
"b+	c #EBCD92",
"c+	c #C5C2C0",
"d+	c #A3A6AB",
"e+	c #A2A7AD",
"f+	c #C0BEBF",
"g+	c #E1BBB4",
"h+	c #E77770",
"i+	c #E25352",
"j+	c #DE3C31",
"k+	c #DB9686",
"l+	c #5A5B5D",
"m+	c #606264",
"n+	c #C2AD84",
"o+	c #F89C1B",
"p+	c #F8A62B",
"q+	c #F3C3AF",
"r+	c #EA877D",
"s+	c #EB9992",
"t+	c #EA9890",
"u+	c #E8776E",
"v+	c #E67163",
"w+	c #E99986",
"x+	c #E8937F",
"y+	c #DC8A73",
"z+	c #7B7472",
"A+	c #57595B",
"B+	c #6A7078",
"C+	c #D9BA83",
"D+	c #F5D8A4",
"E+	c #E2533B",
"F+	c #D60B09",
"G+	c #D91D1D",
"H+	c #D92120",
"I+	c #DD372C",
"J+	c #EDB09B",
"K+	c #FAE3C5",
"L+	c #FBE4C5",
"M+	c #D5CABC",
"N+	c #6F7174",
"O+	c #606871",
"P+	c #A2A09F",
"Q+	c #D08067",
"R+	c #DC5643",
"S+	c #DC3C2D",
"T+	c #DC392B",
"U+	c #E77D68",
"V+	c #EEB973",
"W+	c #F9AD29",
"X+	c #FBAF2A",
"Y+	c #E3A545",
"Z+	c #847D75",
"`+	c #626466",
" @	c #737A82",
".@	c #87868B",
"+@	c #9D8985",
"@@	c #A28D87",
"#@	c #AAA2A1",
"$@	c #DEBD84",
"%@	c #F5AB00",
"&@	c #F9B000",
"*@	c #DEA841",
"=@	c #83807B",
"-@	c #686868",
";@	c #6C6C6C",
">@	c #6E6E6E",
",@	c #707070",
"'@	c #727272",
")@	c #757575",
"!@	c #737373",
"~@	c #74787D",
"{@	c #949AA3",
"]@	c #D2B979",
"^@	c #DEBF6B",
"/@	c #A3A29D",
"(@	c #757B83",
"_@	c #737577",
":@	c #6B6B6B",
"<@	c #717171",
"[@	c #767676",
"}@	c #797979",
"|@	c #7A7A7A",
"1@	c #7C7C7C",
"2@	c #7D7D7D",
"3@	c #74777B",
"4@	c #7D8A9A",
"5@	c #8496AD",
"6@	c #717376",
"7@	c #777B80",
"8@	c #747679",
". . . . + @ @ @ # # $ $ $ $ % % & & * * * = = = - - - - - ; > , ' ) ! ; ; ; ; ; - ; ; - - = = = = = = = ~ {             ",
"] ^ ^ / / ( _ _ _ : < < < [ } } } | | | 1 1 2 2 . . . + # % * 3 4 5 6 * % & * = - - - = = = = * = - ; ! 7 8 & (         ",
"9 9 0 0 a b b c d d e f f g g h h i ] ] ] / / / j k l m n o p q r s t u v v 1 2 . . . . 2 1 1 1 2 . . + @ & w x :       ",
"y z 9 9 0 a b b b c d d e f f g h h i i ] ^ ^ / A B C D E E F G H I J K | | v 1 2 . 2 2 1 1 1 v 1 1 2 2 . + @ = - (     ",
"L y y z 9 0 0 a b b c d e e f f g h h h i ] M N O P Q R S T U V W X Y Z } | | v 1 1 1 1 v | | | | v 1 1 2 2 . . = % h   ",
"` ` L y z z 9 9 0 a b b c d e f f f h h h i  ...+.@.#.$.%.&.*.=.-.;.>.,.[ } | v 1 1 v v | | } } | | v v 1 1 . . + ; ^   ",
"'.` ` ` L y z 9 9 a b b c d d e f f g h h / ).!.~.{.].^./.(._.:.<.[.}.|.1.} | v 1 1 1 1 | | | } } | | v v 1 1 2 2 # # e ",
"2.` ` ` L y z 9 0 a b b d d e f f g h h 3.4.5.6.7.8.9./.1 2 0.a.b.c.d.e.f.v v 1 1 2 1 1 v | | } | | v 1 1 1 2 2 . . & f ",
"g.h.h.i.j.k.k.l.l.m.n.o.2.'.` ` y y p.q.r.s.t.u.v.w.b d d d d d x.y.z.A.B.i b 0 9 9 z y L ` '.2.2.` ` '.'.y z b C.D.@ g ",
"h.h.E.i.j.k.l.l.F.n.o.o.'.` L y z 9 G.H.I.J.K.L.M.N.e f f f f f O.P.Q.Q.R.S.c b a a 9 z y L ` '.2.o.n.m.l.l.k.k.T.U.b a ",
"h.h.E.i.j.V.l.F.n.n.2.'.` L y z 0 a W.X.Y.Z.`. +.+++h i i i i i @+#+$+%+&+*+f d c b a 0 9 z L ` '.2.o.n.m.F.l.l.V.k.y z ",
"h.h.i.i.k.V.l.F.n.o.2.'.L y z 9 a b b =+-+;+>+,+'+)+^ ^ ^ ^ ^ ^ !+~+{+]+^+^ g f e d c b 0 9 y L ` '.2.o.o.n.m.F.l.l.0 y ",
"h.E.i.j.k.l.F.n.o.2.` L y 9 0 b c d f a /+(+_+:+<+[+}+|+: : 1+2+3+4+5+6+7+] ] ] h g f e c b 0 9 z y L L '.'.2.o.o.n.d L ",
"h.E.i.k.V.l.F.n.o.2.` L z 9 b c d f h i ] h 8+9+0+a+b+c+d+e+f+g+h+i+j+k+l+: _ ( / ^ i h f e c b a 9 z z y L ` '.'.L e '.",
"h.i.j.k.V.F.n.o.2.` y z 0 b c e g h ] / _ < m+n+o+p+q+r+s+t+u+v+w+x+y+z+| v | } [ < ( / ] i g e d c b a 0 0 9 z z e L   ",
"h.i.j.k.l.F.n.2.'.` y 9 a c e f h ] / _ [ } A+B+C+D+E+F+G+H+I+J+K+L+M+N+. @ . 2 v | [ : ( / ] h g f e d c b a a e e 2.  ",
"E.i.j.V.l.m.o.'.` y 9 a c e g i ^ ( < [ v . @ # O+P+Q+R+S+T+U+V+W+X+Y+Z+& * & $ @ + 2 v } < _ / ^ ] i g g e f h f L     ",
"E.i.k.V.F.n.2.'.L z 0 b d f i ^ _ < | 1 + $ & - - `+ @.@+@@@#@$@%@&@*@=@w x ; - * % # + 2 v [ < _ ( ^ ^ i ] ^ h z       ",
"o.2.` L z 9 a c e f i ^ ( : [ | 2 @ % * ; -@;@>@,@'@Z )@!@!@~@{@]@^@/@(@_@,@>@;@w -@; = % # + 2 v | [ < : ^ c 9         ",
"o.2.` L z 0 b d e g ] / _ < | 2 @ $ = ; w :@8 <@Z [@}@|@1@2@1@3@4@5@6@7@8@<@>@:@x ; & $ . 1 } < ( ^ h g c 9 y           "};
