/* XPM */
static char * taskbuttonactive_xpm[] = {
"400 23 44 1",
" 	c None",
".	c #5B5B5B",
"+	c #101010",
"@	c #202020",
"#	c #525252",
"$	c #040404",
"%	c #797979",
"&	c #7A7A7A",
"*	c #0F0F0F",
"=	c #777777",
"-	c #0C0C0C",
";	c #6F6F6F",
">	c #707070",
",	c #1C1C1C",
"'	c #0B0B0B",
")	c #696969",
"!	c #1B1B1B",
"~	c #0A0A0A",
"{	c #646464",
"]	c #1A1A1A",
"^	c #090909",
"/	c #5E5E5E",
"(	c #181818",
"_	c #080808",
":	c #585858",
"<	c #171717",
"[	c #070707",
"}	c #151515",
"|	c #010101",
"1	c #303030",
"2	c #050505",
"3	c #060606",
"4	c #0D0D0D",
"5	c #0E0E0E",
"6	c #020202",
"7	c #030303",
"8	c #292929",
"9	c #282828",
"0	c #2A2A2A",
"a	c #232323",
"b	c #434343",
"c	c #424242",
"d	c #444444",
"e	c #464646",
".+@@@@@@@@@@@@@@@@@@@@@@@@@@@@@@@@@@@@@@@@@@@@@@@@@@@@@@@@@@@@@@@@@@@@@@@@@@@@@@@@@@@@@@@@@@@@@@@@@@@@@@@@@@@@@@@@@@@@@@@@@@@@@@@@@@@@@@@@@@@@@@@@@@@@@@@@@@@@@@@@@@@@@@@@@@@@@@@@@@@@@@@@@@@@@@@@@@@@@@@@@@@@@@@@@@@@@@@@@@@@@@@@@@@@@@@@@@@@@@@@@@@@@@@@@@@@@@@@@@@@@@@@@@@@@@@@@@@@@@@@@@@@@@@@@@@@@@@@@@@@@@@@@@@@@@@@@@@@@@@@@@@@@@@@@@@@@@@@@@@@@@@@@@@@@@@@@@@@@@@@@@@@@@@@@@@@@@@@@@@@@@@@@@@@@@@@@@@@+#",
"$%%%%%&&&&%%%%%%&%%%%%&&&%%%%&&&%%%%%%&%%%%%%%&&&%%%%&&&%%%%%%&%%%%%%%%&%%%%%&&&%%%%&&&%%%%%%&%%%%%%%&&&%%%%&&&%%%%%%&%&%%%%%&&&%%%%&&&%%%%%%&%%%%%%%&&&%%%%&&&%%%%%%&%%%%%%%%&%%%%%&&&%%%%%&&&%%%%&&&%%%%%%&%%%%%%%&&&%%%%&&&%%%%%%&%%%%%%%%&%%%%%&&&%%%%&&&%%%%%%&%%%%%%%&&&%%%%&&&%%%%%%&%&%%%%%&&&%%%%&&&%%%%%%&%%%%%%%&&&%%%%&&&%%%%%%&%%%%%%%%&%%%%%&&&%%%%&&&%%%%%%&%%%%%%%&&&%%%%&&&%%%&%%%%%&&&&&&%%%%+",
"*==============================================================================================================================================================================================================================================================================================================================================================================================================@",
"-;;;;;>>>>>;;;;>>;;;;>>>>>>>>;;>>>;;;;;>>;;;;>>>>>>>>;;>>>;;;;;>>>;;;;>>;;;;>>>>>>>>;;>>>;;;;;>>;;;;>>>>>>>>;;>>>;;;;;>>;;;;>>>>>>>>;;>>>;;;;;>>;;;;>>>>>>>>;;>>>;;;;;>>>;;;;>>;;;;>>>>>;;;>>>>>>>>;;>>>;;;;;>>;;;;>>>>>>>>;;>>>;;;;;>>>;;;;>>;;;;>>>>>>>>;;>>>;;;;;>>;;;;>>>>>>>>;;>>>;;;;;>>;;;;>>>>>>>>;;>>>;;;;;>>;;;;>>>>>>>>;;>>>;;;;;>>>;;;;>>;;;;>>>>>>>>;;>>>;;;;;>>;;;;>>>>>>>>;;>;;;;>>>>>>;;;;;;;;;,",
"'))))))))))))))))))))))))))))))))))))))))))))))))))))))))))))))))))))))))))))))))))))))))))))))))))))))))))))))))))))))))))))))))))))))))))))))))))))))))))))))))))))))))))))))))))))))))))))))))))))))))))))))))))))))))))))))))))))))))))))))))))))))))))))))))))))))))))))))))))))))))))))))))))))))))))))))))))))))))))))))))))))))))))))))))))))))))))))))))))))))))))))))))))))))))))))))))))))))))))))))!",
"~{{{{{{{{{{{{{{{{{{{{{{{{{{{{{{{{{{{{{{{{{{{{{{{{{{{{{{{{{{{{{{{{{{{{{{{{{{{{{{{{{{{{{{{{{{{{{{{{{{{{{{{{{{{{{{{{{{{{{{{{{{{{{{{{{{{{{{{{{{{{{{{{{{{{{{{{{{{{{{{{{{{{{{{{{{{{{{{{{{{{{{{{{{{{{{{{{{{{{{{{{{{{{{{{{{{{{{{{{{{{{{{{{{{{{{{{{{{{{{{{{{{{{{{{{{{{{{{{{{{{{{{{{{{{{{{{{{{{{{{{{{{{{{{{{{{{{{{{{{{{{{{{{{{{{{{{{{{{{{{{{{{{{{{{{{{{{{{{{{{{{{{{{{{{{{{{{{{{{{{{{{{{{{{{{{{{{{{{{{{{{{{{{{{{{{{{{{{{{{]",
"^//////////////////////////////////////////////////////////////////////////////////////////////////////////////////////////////////////////////////////////////////////////////////////////////////////////////////////////////////////////////////////////////////////////////////////////////////////////////////////////////////////////////////////////////////////////////////////////////////////////////(",
"_::::::::::::::::::::::::::::::::::::::::::::::::::::::::::::::::::::::::::::::::::::::::::::::::::::::::::::::::::::::::::::::::::::::::::::::::::::::::::::::::::::::::::::::::::::::::::::::::::::::::::::::::::::::::::::::::::::::::::::::::::::::::::::::::::::::::::::::::::::::::::::::::::::::::::::::::::::::::::::::::::::::::::::::::::::::::::::::::::::::::::::::::::::::::::::::::::::::::::::::<",
"[##############################################################################################################################################################################################################################################################################################################################################################################################################}",
"|11111111111111111111111111111111111111111111111111111111111111111111111111111111111111111111111111111111111111111111111111111111111111111111111111111111111111111111111111111111111111111111111111111111111111111111111111111111111111111111111111111111111111111111111111111111111111111111111111111111111111111111111111111111111111111111111111111111111111111111111111111111111111111111111111111111111111$",
"|~~~~~~~~~~~~~~~~~~~~~~~~~~~~~~~~~~~~~~~~~~~~~~~~~~~~~~~~~~~~~~~~~~~~~~~~~~~~~~~~~~~~~~~~~~~~~~~~~~~~~~~~~~~~~~~~~~~~~~~~~~~~~~~~~~~~~~~~~~~~~~~~~~~~~~~~~~~~~~~~~~~~~~~~~~~~~~~~~~~~~~~~~~~~~~~~~~~~~~~~~~~~~~~~~~~~~~~~~~~~~~~~~~~~~~~~~~~~~~~~~~~~~~~~~~~~~~~~~~~~~~~~~~~~~~~~~~~~~~~~~~~~~~~~~~~~~~~~~~~~~~~~~~~~~~~~~~~~~~~~~~~~~~~~~~~~~~~~~~~~~~~~~~~~~~~~~~~~~~~~~~~~~~~~~~~~~~~~~~~~~~~~~~~~~~~~~~~~~~|",
"|22222222222222222222222222222222222222222222222222222222222222222222222222222222222222222222222222222222222222222222222222222222222222222222222222222222222222222222222222222222222222222222222222222222222222222222222222222222222222222222222222222222222222222222222222222222222222222222222222222222222222222222222222222222222222222222222222222222222222222222222222222222222222222222222222222222222222|",
"|22222222222222222222222222222222222222222222222222222222222222222222222222222222222222222222222222222222222222222222222222222222222222222222222222222222222222222222222222222222222222222222222222222222222222222222222222222222222222222222222222222222222222222222222222222222222222222222222222222222222222222222222222222222222222222222222222222222222222222222222222222222222222222222222222222222222222|",
"|33333333333333333333333333333333333333333333333333333333333333333333333333333333333333333333333333333333333333333333333333333333333333333333333333333333333333333333333333333333333333333333333333333333333333333333333333333333333333333333333333333333333333333333333333333333333333333333333333333333333333333333333333333333333333333333333333333333333333333333333333333333333333333333333333333333333333|",
"|33333333333333333333333333333333333333333333333333333333333333333333333333333333333333333333333333333333333333333333333333333333333333333333333333333333333333333333333333333333333333333333333333333333333333333333333333333333333333333333333333333333333333333333333333333333333333333333333333333333333333333333333333333333333333333333333333333333333333333333333333333333333333333333333333333333333333|",
"|[[[[[[[[[[[[[[[[[[[[[[[[[[[[[[[[[[[[[[[[[[[[[[[[[[[[[[[[[[[[[[[[[[[[[[[[[[[[[[[[[[[[[[[[[[[[[[[[[[[[[[[[[[[[[[[[[[[[[[[[[[[[[[[[[[[[[[[[[[[[[[[[[[[[[[[[[[[[[[[[[[[[[[[[[[[[[[[[[[[[[[[[[[[[[[[[[[[[[[[[[[[[[[[[[[[[[[[[[[[[[[[[[[[[[[[[[[[[[[[[[[[[[[[[[[[[[[[[[[[[[[[[[[[[[[[[[[[[[[[[[[[[[[[[[[[[[[[[[[[[[[[[[[[[[[[[[[[[[[[[[[[[[[[[[[[[[[[[[[[[[[[[[[[[[[[[[[[[[[[[[[[[[[[[[[[[[[[[[[[[[[[[[[[[[[[[[[[[[[|",
"|______________________________________________________________________________________________________________________________________________________________________________________________________________________________________________________________________________________________________________________________________________________________________________________________________________|",
"|^~~~~~^^^~~~~~~^~~~~~^^^~~~~~~^^^^^^^^^^~~~~~^^^~~~~~~^^^^^^^^^^^~~~~~^~~~~~^^^~~~~~~^^^^^^^^^^~~~~~^^^~~~~~~^^^^^^^^~^~~~~~^^^~~~~~~^^^^^^^^^^~~~~~^^^~~~~~~^^^^^^^^^^^~~~~~^~~~~~^^^~~~~~^^^~~~~~~^^^^^^^^^^~~~~~^^^~~~~~~^^^^^^^^^^^~~~~~^~~~~~^^^~~~~~~^^^^^^^^^^~~~~~^^^~~~~~~^^^^^^^^~^~~~~~^^^~~~~~~^^^^^^^^^^~~~~~^^^~~~~~~^^^^^^^^^^^~~~~~^~~~~~^^^~~~~~~^^^^^^^^^^~~~~~^^^~~~~~~^^^^^^^^^^^^^^^^^^^^|",
"|44444444444444444444444444444444444555554444444444444444444555555444444444444444444444444455555444444444444444444455544444444444444444444455555444444444444444444455555544444444444444444444444444444444455555444444444444444444455555544444444444444444444444445555544444444444444444445554444444444444444444445555544444444444444444445555554444444444444444444444444555554444444444444444555555555544444444|",
"6<<<<<<<<<<<<<<<<<<<<<<<<<<<<<<<<<<<<<<<<<<<<<<<<<<<<<<<<<<<<<<<<<<<<<<<<<<<<<<<<<<<<<<<<<<<<<<<<<<<<<<<<<<<<<<<<<<<<<<<<<<<<<<<<<<<<<<<<<<<<<<<<<<<<<<<<<<<<<<<<<<<<<<<<<<<<<<<<<<<<<<<<<<<<<<<<<<<<<<<<<<<<<<<<<<<<<<<<<<<<<<<<<<<<<<<<<<<<<<<<<<<<<<<<<<<<<<<<<<<<<<<<<<<<<<<<<<<<<<<<<<<<<<<<<<<<<<<<<<<<<<<<<<<<<<<<<<<<<<<<<<<<<<<<<<<<<<<<<<<<<<<<<<<<<<<<<<<<<<<<<<<<<<<<<<<<<<<<<<<<<<<<<<<<<<<<<<<<<<6",
"7899999999999999999999999999999888888000099999999999999888888000009999999999999999999988888800009999999999999988888800999999999999999988888800009999999999999988888800000999999999999999999999999999988888800009999999999999988888800000999999999999999999998888880000999999999999998888880099999999999999998888880000999999999999998888880000099999999999999999999888888000099999999999999888000000008888888887",
"|abbbbbbbbbbbbbbbbbbbbbbbbccbbbbbbdddeeeebbbbbbbbbccbbbbbbdddeeeeebbbbbbbbbbbbbbbccbbbbbbdddeeeebbbbbbbbbccbbbbbbdddeebbbbbbbbbbbccbbbbbbdddeeeebbbbbbbbbccbbbbbbdddeeeeebbbbbbbbbbbbbbbbbbbbbbbccbbbbbbdddeeeebbbbbbbbbccbbbbbbdddeeeeebbbbbbbbbbbbbbbccbbbbbbdddeeeebbbbbbbbbccbbbbbbdddeebbbbbbbbbbbccbbbbbbdddeeeebbbbbbbbbccbbbbbbdddeeeeebbbbbbbbbbbbbbbccbbbbbbdddeeeebbbbbbbbbccbbbbddeeeeeeeeeeeeeedda|",
"|63333333333333333333333333333333333333333333333333333333333333333333333333333333333333333333333333333333333333333333333333333333333333333333333333333333333333333333333333333333333333333333333333333333333333333333333333333333333333333333333333333333333333333333333333333333333333333333333333333333333333333333333333333333333333333333333333333333333333333333333333333333333333333333333333333333333336|"};
