/* XPM */
static char * taskbuttonminimized_xpm[] = {
"400 23 79 1",
" 	c None",
".	c #75797D",
"+	c #181818",
"@	c #2F2F2F",
"#	c #171717",
"$	c #68696C",
"%	c #656669",
"&	c #67686B",
"*	c #66676A",
"=	c #2E2E2E",
"-	c #616369",
";	c #60626A",
">	c #2A2A2A",
",	c #5D5F65",
"'	c #5C5F66",
")	c #262728",
"!	c #5A5C62",
"~	c #595B61",
"{	c #242526",
"]	c #56585E",
"^	c #55575D",
"/	c #222324",
"(	c #52545A",
"_	c #515359",
":	c #202122",
"<	c #4E5056",
"[	c #4D4F55",
"}	c #1E1F20",
"|	c #4B4D51",
"1	c #494B51",
"2	c #151617",
"3	c #47494D",
"4	c #45474B",
"5	c #46484C",
"6	c #0A0B0C",
"7	c #44464A",
"8	c #424448",
"9	c #434549",
"0	c #08090A",
"a	c #1D1D1D",
"b	c #191919",
"c	c #1A1A1A",
"d	c #1B1B1B",
"e	c #1C1C1C",
"f	c #121212",
"g	c #131313",
"h	c #141414",
"i	c #151515",
"j	c #161616",
"k	c #090A0B",
"l	c #080A0C",
"m	c #090B0D",
"n	c #0A0D10",
"o	c #0C1014",
"p	c #171819",
"q	c #121314",
"r	c #131315",
"s	c #131415",
"t	c #141516",
"u	c #161718",
"v	c #171719",
"w	c #111619",
"x	c #1B1B1F",
"y	c #16161A",
"z	c #17171B",
"A	c #18181A",
"B	c #18181C",
"C	c #19191B",
"D	c #19191D",
"E	c #1A1A1C",
"F	c #1A1A1E",
"G	c #1B1B1D",
"H	c #0B0E0F",
"I	c #1C1C20",
"J	c #0D1011",
"K	c #171D21",
"L	c #171E21",
"M	c #181F22",
"N	c #181E22",
".+@@@@@@@@@@@@@@@@@@@@@@@@@@@@@@@@@@@@@@@@@@@@@@@@@@@@@@@@@@@@@@@@@@@@@@@@@@@@@@@@@@@@@@@@@@@@@@@@@@@@@@@@@@@@@@@@@@@@@@@@@@@@@@@@@@@@@@@@@@@@@@@@@@@@@@@@@@@@@@@@@@@@@@@@@@@@@@@@@@@@@@@@@@@@@@@@@@@@@@@@@@@@@@@@@@@@@@@@@@@@@@@@@@@@@@@@@@@@@@@@@@@@@@@@@@@@@@@@@@@@@@@@@@@@@@@@@@@@@@@@@@@@@@@@@@@@@@@@@@@@@@@@@@@@@@@@@@@@@@@@@@@@@@@@@@@@@@@@@@@@@@@@@@@@@@@@@@@@@@@@@@@@@@@@@@@@@@@@@@@@@@@@@@@@@@@@@@@@+.",
"#$%$$$$%$$$$%$$$$$$$$$%$$$$$$$$$$$$$$$$$$&&&***%%%%***&&&$$$$$$$$$$$$$$$$$$$$$$$$$$$$$$$$$$$$$$$$$$$$$$$&&&***%%%%***&&&$$$$$$$$$$$$$$$$$$$$$$$$$$$$$$$$$$$$$$$$$$$$$$$$$$$$$$$$$$$$$$$$$$$$$$$$$$$$$$&&&***%%%***&&&&$$$$$$$$$$$$$$$$$$$$$$$$$$$$$$$$$$$$$$$$$$$$$$$$$$$$$$$$$$$$$$$$$$$$$$$$$$$$$$&&&***%%%***&&&$$$$$$$$$$$$$$$$$$$$$$&&&***%%%%***&&&$$$$$$$$$$$$$$$$$$$$$$$$$$$$$$$$%$$$$$$$$$%$$$$%$$$$%$#",
"=--;;;;-;;;;-;;;;;;;;;-;;;;;;;;;;;;;;;;;;;;;----------;;;;;;;;;;;;;;;;;;;;;;;;;;;;;;;;;;;;;;;;;;;;;;;;;;;;;----------;;;;;;;;;;;;;;;;;;;;;;;;;;;;;;;;;;;;;;;;;;;;;;;;;;;;;;;;;;;;;;;;;;;;;;;;;;;;;;;;;;;;---------;;;;;;;;;;;;;;;;;;;;;;;;;;;;;;;;;;;;;;;;;;;;;;;;;;;;;;;;;;;;;;;;;;;;;;;;;;;;;;;;;;;;;---------;;;;;;;;;;;;;;;;;;;;;;;;;;;;----------;;;;;;;;;;;;;;;;;;;;;;;;;;;;;;;;;;;-;;;;;;;;;-;;;;-;;;;--=",
">,,'''','''',''''''''',''''''''''''''''''''',,,,,,,,,,''''''''''''''''''''''''''''''''''''''''''''''''''''',,,,,,,,,,'''''''''''''''''''''''''''''''''''''''''''''''''''''''''''''''''''''''''''''''''''',,,,,,,,,''''''''''''''''''''''''''''''''''''''''''''''''''''''''''''''''''''''''''''''''''''',,,,,,,,,'''''''''''''''''''''''''''',,,,,,,,,,''''''''''''''''''''''''''''''''''',''''''''','''','''',,>",
")!!~~~~!~~~~!~~~~~~~~~!~~~~~~~~~~~~~~~~~~~~~!!!!!!!!!!~~~~~~~~~~~~~~~~~~~~~~~~~~~~~~~~~~~~~~~~~~~~~~~~~~~~~!!!!!!!!!!~~~~~~~~~~~~~~~~~~~~~~~~~~~~~~~~~~~~~~~~~~~~~~~~~~~~~~~~~~~~~~~~~~~~~~~~~~~~~~~~~~~~!!!!!!!!!~~~~~~~~~~~~~~~~~~~~~~~~~~~~~~~~~~~~~~~~~~~~~~~~~~~~~~~~~~~~~~~~~~~~~~~~~~~~~~~~~~~~~!!!!!!!!!~~~~~~~~~~~~~~~~~~~~~~~~~~~~!!!!!!!!!!~~~~~~~~~~~~~~~~~~~~~~~~~~~~~~~~~~~!~~~~~~~~~!~~~~!~~~~!!)",
"{]]^^^^]^^^^]^^^^^^^^^]^^^^^^^^^^^^^^^^^^^^^]]]]]]]]]]^^^^^^^^^^^^^^^^^^^^^^^^^^^^^^^^^^^^^^^^^^^^^^^^^^^^^]]]]]]]]]]^^^^^^^^^^^^^^^^^^^^^^^^^^^^^^^^^^^^^^^^^^^^^^^^^^^^^^^^^^^^^^^^^^^^^^^^^^^^^^^^^^^^]]]]]]]]]^^^^^^^^^^^^^^^^^^^^^^^^^^^^^^^^^^^^^^^^^^^^^^^^^^^^^^^^^^^^^^^^^^^^^^^^^^^^^^^^^^^^^]]]]]]]]]^^^^^^^^^^^^^^^^^^^^^^^^^^^^]]]]]]]]]]^^^^^^^^^^^^^^^^^^^^^^^^^^^^^^^^^^^]^^^^^^^^^]^^^^]^^^^]]{",
"/((____(____(_________(_____________________((((((((((_____________________________________________________((((((((((____________________________________________________________________________________(((((((((_____________________________________________________________________________________(((((((((____________________________((((((((((___________________________________(_________(____(____((/",
":<<[[[[<[[[[<[[[[[[[[[<[[[[[[[[[[[[[[[[[[[<<<<<<<<<<<<<<[[[[[[[[[[[[[[[[[[[[[[[[[[[[[[[[[[[[[[[[[[[[[[[[[<<<<<<<<<<<<<<[[[[[[[[[[[[[[[[[[[[[[[[[[[[[[[[[[[[[[[[[[[[[[[[[[[[[[[[[[[[[[[[[[[[[[[[[[[[[[[[<<<<<<<<<<<<<<[[[[[[[[[[[[[[[[[[[[[[[[[[[[[[[[[[[[[[[[[[[[[[[[[[[[[[[[[[[[[[[[[[[[[[[[[[[[[[[<<<<<<<<<<<<<<[[[[[[[[[[[[[[[[[[[[[[[[<<<<<<<<<<<<<<[[[[[[[[[[[[[[[[[[[[[[[[[[[[[[[[[<[[[[[[[[[<[[[[<[[[[<<:",
"}||1111|1111|111111111|1111111111111111111||||||||||||||1111111111111111111111111111111111111111111111111||||||||||||||11111111111111111111111111111111111111111111111111111111111111111111111111111111||||||||||||||1111111111111111111111111111111111111111111111111111111111111111111111111111111||||||||||||||111111111111111111111111||||||||||||||111111111111111111111111111111111|111111111|1111|1111||}",
"2334444344443444444444344444444444444444445555533335555544444444444444444444444444444444444444444444444445555533335555544444444444444444444444444444444444444444444444444444444444444444444444444444444555533333555554444444444444444444444444444444444444444444444444444444444444444444444444444444555553333355554444444444444444444444445555533335555544444444444444444444444444444444434444444443444434444332",
"6778888788887888888888788888888888888888889999977779999988888888888888888888888888888888888888888888888889999977779999988888888888888888888888888888888888888888888888888888888888888888888888888888888999977777999998888888888888888888888888888888888888888888888888888888888888888888888888888888999997777799998888888888888888888888889999977779999988888888888888888888888888888888878888888887888878888776",
"0aa++++a++++a+++++++++a+++++++++++++++++bbccddeeaaeeddcbb++++++++++++++++++++++++++++++++++++++++++++++bbccddeeaaeeddcbb+++++++++++++++++++++++++++++++++++++++++++++++++++++++++++++++++++++++++++++bbccddeeaaeddccbb+++++++++++++++++++++++++++++++++++++++++++++++++++++++++++++++++++++++++++++bbccddeaaeeddccbb++++++++++++++++++++bbccddeeaaeeddcbb++++++++++++++++++++++++++++++++a+++++++++a++++a++++aa0",
"0##ffff#ffff#fffffffff#ffffffffffffffffffghhiijj##jjiihhgfffffffffffffffffffffffffffffffffffffffffffffffghhiijj##jjiihhgfffffffffffffffffffffffffffffffffffffffffffffffffffffffffffffffffffffffffffffgghhiijj##jjihhggfffffffffffffffffffffffffffffffffffffffffffffffffffffffffffffffffffffffffffffgghhiijj#jjiihhggfffffffffffffffffffffghhiijj##jjiihhgffffffffffffffffffffffffffffffff#fffffffff#ffff#ffff##0",
"0##ffff#ffff#fffffffff#ffffffffffffffffffghhiijj##jjiihhgfffffffffffffffffffffffffffffffffffffffffffffffghhiijj##jjiihhgfffffffffffffffffffffffffffffffffffffffffffffffffffffffffffffffffffffffffffffgghhiijj##jjihhggfffffffffffffffffffffffffffffffffffffffffffffffffffffffffffffffffffffffffffffgghhiijj#jjiihhggfffffffffffffffffffffghhiijj##jjiihhgffffffffffffffffffffffffffffffff#fffffffff#ffff#ffff##0",
"k##ffff#ffff#fffffffff#ffffffffffffffffffghhiijj##jjiihhgfffffffffffffffffffffffffffffffffffffffffffffffghhiijj##jjiihhgfffffffffffffffffffffffffffffffffffffffffffffffffffffffffffffffffffffffffffffgghhiijj##jjihhggfffffffffffffffffffffffffffffffffffffffffffffffffffffffffffffffffffffffffffffgghhiijj#jjiihhggfffffffffffffffffffffghhiijj##jjiihhgffffffffffffffffffffffffffffffff#fffffffff#ffff#ffff##k",
"l##ffff#ffff#fffffffff#ffffffffffffffffffghhiijj##jjiihhgfffffffffffffffffffffffffffffffffffffffffffffffghhiijj##jjiihhgfffffffffffffffffffffffffffffffffffffffffffffffffffffffffffffffffffffffffffffgghhiijj##jjihhggfffffffffffffffffffffffffffffffffffffffffffffffffffffffffffffffffffffffffffffgghhiijj#jjiihhggfffffffffffffffffffffghhiijj##jjiihhgffffffffffffffffffffffffffffffff#fffffffff#ffff#ffff##l",
"l##ffff#ffff#fffffffff#ffffffffffffffffffghhiijj##jjiihhgfffffffffffffffffffffffffffffffffffffffffffffffghhiijj##jjiihhgfffffffffffffffffffffffffffffffffffffffffffffffffffffffffffffffffffffffffffffgghhiijj##jjihhggfffffffffffffffffffffffffffffffffffffffffffffffffffffffffffffffffffffffffffffgghhiijj#jjiihhggfffffffffffffffffffffghhiijj##jjiihhgffffffffffffffffffffffffffffffff#fffffffff#ffff#ffff##l",
"m##ffff#ffff#fffffffff#ffffffffffffffffffghhiijj##jjiihhgfffffffffffffffffffffffffffffffffffffffffffffffghhiijj##jjiihhgfffffffffffffffffffffffffffffffffffffffffffffffffffffffffffffffffffffffffffffgghhiijj##jjihhggfffffffffffffffffffffffffffffffffffffffffffffffffffffffffffffffffffffffffffffgghhiijj#jjiihhggfffffffffffffffffffffghhiijj##jjiihhgffffffffffffffffffffffffffffffff#fffffffff#ffff#ffff##m",
"n##ffff#ffff#fffffffff#ffffffffffffffffffghhiijj##jjiihhgfffffffffffffffffffffffffffffffffffffffffffffffghhiijj##jjiihhgfffffffffffffffffffffffffffffffffffffffffffffffffffffffffffffffffffffffffffffgghhiijj##jjihhggfffffffffffffffffffffffffffffffffffffffffffffffffffffffffffffffffffffffffffffgghhiijj#jjiihhggfffffffffffffffffffffghhiijj##jjiihhgffffffffffffffffffffffffffffffff#fffffffff#ffff#ffff##n",
"oppqqqqpqqqqpqqqqqqqqqpqqqqqqqqqqqqqqqqqrstt22uuppuu22tssqqqqqqqqqqqqqqqqqqqqqqqqqqqqqqqqqqqqqqqqqqqqqqrstt22uuppuu22tssqqqqqqqqqqqqqqqqqqqqqqqqqqqqqqqqqqqqqqqqqqqqqqqqqqqqqqqqqqqqqqqqqqqqqqqqqqqqqsstt22uuppu22ttssqqqqqqqqqqqqqqqqqqqqqqqqqqqqqqqqqqqqqqqqqqqqqqqqqqqqqqqqqqqqqqqqqqqqqqqqqqqqqsstt22uvpuu22ttssqqqqqqqqqqqqqqqqqqqqrstt22uuppuu22tssqqqqqqqqqqqqqqqqqqqqqqqqqqqqqqqqpqqqqqqqqqpqqqqpqqqqppo",
"wxxyyyyxyyyyxyyyyyyyyyxyyyyyyyyyyyyyyyyyzABCDEFFxxFFDDCAAyyyyyyyyyyyyyyyyyyyyyyyyyyyyyyyyyyyyyyyyyyyyyyzABCDEFFxxFFDDCAAyyyyyyyyyyyyyyyyyyyyyyyyyyyyyyyyyyyyyyyyyyyyyyyyyyyyyyyyyyyyyyyyyyyyyyyyyyyyyAABCDEFFxxFEDCCAAyyyyyyyyyyyyyyyyyyyyyyyyyyyyyyyyyyyyyyyyyyyyyyyyyyyyyyyyyyyyyyyyyyyyyyyyyyyyyAABCDEFxxGFEDCBAAyyyyyyyyyyyyyyyyyyyyzABCDEFFxxFFDDCAAyyyyyyyyyyyyyyyyyyyyyyyyyyyyyyyyxyyyyyyyyyxyyyyxyyyyxxw",
"HIIzzzzIzzzzIzzzzzzzzzIzzzzzzzzzzzzzzzzzBBDDFFxxIIxxFFDBBzzzzzzzzzzzzzzzzzzzzzzzzzzzzzzzzzzzzzzzzzzzzzzBBDDFFxxIIxxFFDBBzzzzzzzzzzzzzzzzzzzzzzzzzzzzzzzzzzzzzzzzzzzzzzzzzzzzzzzzzzzzzzzzzzzzzzzzzzzzzBBDDFFxxIIxFFDDBBzzzzzzzzzzzzzzzzzzzzzzzzzzzzzzzzzzzzzzzzzzzzzzzzzzzzzzzzzzzzzzzzzzzzzzzzzzzzzBBDDFFxIIxxFFDDBBzzzzzzzzzzzzzzzzzzzzBBDDFFxxIIxxFFDBBzzzzzzzzzzzzzzzzzzzzzzzzzzzzzzzzIzzzzzzzzzIzzzzIzzzzIIH",
"qJKKKKKKKKKKKKKKKKKKKKKLLKKKKKKKKKKKKKKKKKKKKKKKKKKKKKKKKKKKKKKKKKKKKKKKKKKKKKKKKKKKKKKKKKKKKKKKKKKKKKKKKKKKKKKKKKKKKKKKKKKKKKKKKKKKKKKKKKKKKKKKKKKKKKKKKKKKKKKKKKKKKKKKKKKKKKKKKKKKKKKKKKKKKKKKKKKKKKKKKKKKKKKKKKLLLLLLLLLLLLLLLLLLLLLLLLLLLLLLLLLLLLLLLLLLLLLLLLLLLLLLLLLLLLLLLLLLMMMMMMMMMNNNNNNNNNNNNNNNNNNNNNNNNNNNNNNNNNNNNNNNNNNNNNNNNNNNNNNNNNNNNNNNNNNNNNNNNNNNNNNNNNNNNKKKKKKLLKKKKKKKKKKKKKKKKKKKKKJq"};
