/* XPM */
static char * taskbarbg_xpm[] = {
"12 23 27 1",
" 	c None",
".	c #656669",
"+	c #68696C",
"@	c #62636A",
"#	c #61636B",
"$	c #5E6066",
"%	c #5D6067",
"&	c #5B5D63",
"*	c #57595F",
"=	c #54565C",
"-	c #53555B",
";	c #515359",
">	c #4F5157",
",	c #4E4F54",
"'	c #4C4E54",
")	c #4A4C50",
"!	c #494B4F",
"~	c #46484C",
"{	c #44464A",
"]	c #424448",
"^	c #1B1B1B",
"/	c #171717",
"(	c #121212",
"_	c #18191A",
":	c #131415",
"<	c #1C1C20",
"[	c #17171B",
".++++++++++.",
"@##########@",
"$%%%%%%%%%%$",
"&&&&&&&&&&&&",
"************",
"=----------=",
";>>>>>>>>>>;",
",'''''''''',",
")!!!!!!!!!!)",
"~{{{{{{{{{{~",
"{]]]]]]]]]]{",
"^//////////^",
"/((((((((((/",
"/((((((((((/",
"/((((((((((/",
"/((((((((((/",
"/((((((((((/",
"/((((((((((/",
"/((((((((((/",
"/((((((((((/",
"_::::::::::_",
"<[[[[[[[[[[<",
"<[[[[[[[[[[<"};
