/* XPM */
static char * terminal_xpm[] = {
"20 20 72 1",
" 	c None",
".	c #98A9BC",
"+	c #9BACBE",
"@	c #A7B6C4",
"#	c #B8C3CE",
"$	c #C9D0D8",
"%	c #D8DDE1",
"&	c #E2E5E7",
"*	c #E4E7E9",
"=	c #DBE0E5",
"-	c #CBD3DE",
";	c #B8C5D5",
">	c #A7B7CD",
",	c #05285D",
"'	c #05285F",
")	c #052961",
"!	c #042A63",
"~	c #042A66",
"{	c #042A69",
"]	c #032B6C",
"^	c #032E76",
"/	c #032D72",
"(	c #022F79",
"_	c #022F7D",
":	c #184084",
"<	c #A0B3C9",
"[	c #08398B",
"}	c #03368E",
"|	c #023997",
"1	c #1A4186",
"2	c #9CAFC7",
"3	c #02399B",
"4	c #1D458A",
"5	c #98ACC6",
"6	c #013AA0",
"7	c #1D458C",
"8	c #013BA3",
"9	c #1D468F",
"0	c #003CA7",
"a	c #1D4691",
"b	c #1E4688",
"c	c #164188",
"d	c #003DAB",
"e	c #1D4794",
"f	c #003EAF",
"g	c #1D4896",
"h	c #032C6F",
"i	c #0E3D89",
"j	c #003FB2",
"k	c #1C4898",
"l	c #033793",
"m	c #18459A",
"n	c #013082",
"o	c #013185",
"p	c #013289",
"q	c #01338C",
"r	c #003390",
"s	c #003493",
"t	c #003699",
"u	c #00369A",
"v	c #00369D",
"w	c #15459C",
"x	c #9AABBC",
"y	c #A5B3C3",
"z	c #B4C0CC",
"A	c #C6CED6",
"B	c #D6DADF",
"C	c #E1E4E6",
"D	c #DEE2E6",
"E	c #CFD7E0",
"F	c #BCC8D6",
"G	c #AAB9CE",
"                    ",
"                    ",
"                    ",
"  .....+@#$%&*=-;>  ",
"  .,,')!~{]^/^(_:<  ",
"  .,[[[.[[[[[}[|12  ",
"  .'[[***[[[[[[345  ",
"  .)[$[.[$[[[[[675  ",
"  .![$[.[[[[[[[895  ",
"  .~[[***[[[[[[0a5  ",
"  .{bc[.[$[[[[[de5  ",
"  .]c$[.[$[[[[[fg5  ",
"  .hi[***[[[[[[jk5  ",
"  ./[}l.[[[$***$m5  ",
"  .^(_nopqrs[tuvw5  ",
"  xyzABC*DEFG25555  ",
"                    ",
"                    ",
"                    ",
"                    "};
