/* XPM */
static char *accessories-text-editor[] = {
/* columns rows colors chars-per-pixel */
"16 16 52 1",
"  c black",
". c #4C4226",
"X c #6B5736",
"o c #705B39",
"O c gray39",
"+ c #717171",
"@ c gray46",
"# c #8F5902",
"$ c #A18355",
"% c #A08356",
"& c #A08457",
"* c #A38555",
"= c #A48757",
"- c #C4A000",
"; c #EBB13D",
": c #C89F64",
"> c #CEA668",
", c #CFAA69",
"< c #CFAD71",
"1 c #D2AC6A",
"2 c #868686",
"3 c #888A85",
"4 c gray55",
"5 c gray56",
"6 c #9D9D9D",
"7 c #AEAEAE",
"8 c #B1B1B1",
"9 c #B2B2B2",
"0 c #B7B7B7",
"q c gray72",
"w c #BCBCBC",
"e c #C2AB8A",
"r c gray77",
"t c #CACACA",
"y c #CBCBCB",
"u c gray80",
"i c LightGray",
"p c gray84",
"a c #DADADA",
"s c gray86",
"d c #EDE5C4",
"f c #EDE6C5",
"g c #EEEAC6",
"h c #EFEBC7",
"j c #F9E8C6",
"k c #E9E9E9",
"l c #EAEAEA",
"z c gray92",
"x c #ECECEC",
"c c #EEEEEE",
"v c gray100",
"b c None",
/* pixels */
"bbbbbbbbbbbbbbbb",
"bb-----------bbb",
"b3-j-j-j-j-j-bbb",
"b3-;-;-;-;-;-###",
"b3z-w-q-q-0-#h<#",
"b3vxxxxxxxi#h1$#",
"b3vsuuuuu0#h1=##",
"b3vxxxxxi#h,$##b",
"b3vsuuu0#f>&#3b ",
"b3vxxxz#f:*#+3b ",
"b3vsuy+oe*#523 b",
"b3vxzz#.X#6p73bb",
"b3vstr #O4ts93 b",
"b3vxzzzzzzzx93bb",
"b3x99999999993bb",
"b3333333333333bb"
};
