/* XPM */
static char *applications-office[] = {
/* columns rows colors chars-per-pixel */
"16 16 121 2",
"   c black",
".  c #5C410C",
"X  c #68490E",
"o  c #745415",
"O  c #577DAE",
"+  c #527BB0",
"@  c #7E807B",
"#  c #5A81B3",
"$  c #5B81B3",
"%  c #5880B4",
"&  c #5D82B3",
"*  c #5E83B3",
"=  c #74818B",
"-  c #6382A7",
";  c #6085B5",
":  c #6587B3",
">  c #6589B7",
",  c #678BB9",
"<  c #668DBB",
"1  c #6C92BD",
"2  c #6F94BF",
"3  c #778BA5",
"4  c #7093BE",
"5  c #7094BE",
"6  c #6E95C1",
"7  c #6F96C2",
"8  c #7399C4",
"9  c #7599C2",
"0  c #7C9DC5",
"q  c #7E9EC4",
"w  c #87631D",
"e  c #926D28",
"r  c #997838",
"t  c #99783B",
"y  c #8D7646",
"u  c #B88321",
"i  c #BB8520",
"p  c #9F834B",
"a  c #81837F",
"s  c #928364",
"d  c #998F79",
"f  c #A18248",
"g  c #A68850",
"h  c #A78B54",
"j  c #AC915F",
"k  c #B69757",
"l  c #B09A67",
"z  c #B8A176",
"x  c #D19D3B",
"c  c #D2A85C",
"v  c #CEB17B",
"b  c #DBB369",
"n  c #888A85",
"m  c #929694",
"M  c #929695",
"N  c #949796",
"B  c #969795",
"V  c #969996",
"C  c #9A9A98",
"Z  c #9A9B99",
"A  c #9A9D99",
"S  c #AFA287",
"D  c #B1A48A",
"F  c #BAAE98",
"G  c #ABACA9",
"H  c #90ACCC",
"J  c #93ACCD",
"K  c #9FB2CA",
"L  c #99B3D0",
"P  c #9AB4D1",
"I  c #9CB5D2",
"U  c #9DB6D3",
"Y  c #A7BCD4",
"T  c #B5BCC1",
"R  c #B2BCC9",
"E  c #BECAD8",
"W  c #CDB281",
"Q  c #C1B59D",
"!  c #C1B6A0",
"~  c #C2B8A4",
"^  c #CABBA3",
"/  c #C8BCA5",
"(  c #C8BEAC",
")  c #CBC4B6",
"_  c #CFC8BB",
"`  c #C7C6C1",
"'  c #C5CFDC",
"]  c #CAD1DB",
"[  c #D2CDC2",
"{  c #D5D1C9",
"}  c #D4D4D2",
"|  c #D5D6D5",
" . c #D6D7D6",
".. c #D6DBDF",
"X. c #DEE2E6",
"o. c #E5E4DF",
"O. c #E9E3DE",
"+. c #EAE5DD",
"@. c #F3E5CD",
"#. c #E2E3E2",
"$. c #E3E3E2",
"%. c gray89",
"&. c gray90",
"*. c #E9E9E9",
"=. c #EEECEA",
"-. c #F0EFEE",
";. c #F2F3F2",
":. c gray96",
">. c #F6F6F6",
",. c gray97",
"<. c #F8F8F7",
"1. c #F8F8F8",
"2. c #F9F9F9",
"3. c #FAF9F8",
"4. c #FAFAF9",
"5. c gray98",
"6. c #FBFCFB",
"7. c gray99",
"8. c #FEFEFE",
"9. c gray100",
"0. c None",
/* pixels */
"0.; ; ; 0.0.0.0.0.0.0.0.0.e 0.0.",
"0.; H ; * 0.0.0.0.0.0.0.j h 0.0.",
"0.; 6 0 P O 0.0.0.0.X g @.t . 0.",
"0.; % 8 H J O C Z B s b u o 0.0.",
"0.; & > 9 P 0 : 9.z v x w n 0.0.",
"0.0.$ & , 2 U 5 = r c u ( n 0.0.",
"0.0.0.3 $ 6 < U y k W f %.n 0.0.",
"0.0.0.n X.- 5 1 p l d G ;.n 0.0.",
"0.0.0.n 9...M B B M Z | 1.n 0.0.",
"0.0.0.n 9.9.9.9.9.9.9.*.<.n 0.0.",
"0.0.0.n 9.9.D +.F Q Y #.<.n 0.0.",
"0.0.0.n 9.) S ~ / ` T } 1.n 0.0.",
"0.0.0.n 7.) Q / &.R K E 6.n 0.0.",
"0.0.0.n &.[ { +.-.=.] ' 5.n 0.0.",
"0.0.0.n n $.7.<.<.>.>. .n a 0.0.",
"0.0.0.  n n n n n n n n @ 0.0.0."
};
