/* XPM */
static char *applications-internet[] = {
/* columns rows colors chars-per-pixel */
"16 16 159 2",
"   c black",
".  c #040404",
"X  c #111111",
"o  c #0A182C",
"O  c #1C375E",
"+  c #183866",
"@  c #1E437A",
"#  c #1E457F",
"$  c #244370",
"%  c gray28",
"&  c #50565F",
"*  c gray38",
"=  c #204985",
"-  c #214985",
";  c #204986",
":  c #204A87",
">  c #214A86",
",  c #214B87",
"<  c #224884",
"1  c #224B87",
"2  c #234A86",
"3  c #244883",
"4  c #274983",
"5  c #274A84",
"6  c #274B86",
"7  c #274C83",
"8  c #224B88",
"9  c #244C88",
"0  c #274E89",
"q  c #274F8A",
"w  c #294B85",
"e  c #284F89",
"r  c #284F8A",
"t  c #29508A",
"y  c #29548F",
"u  c #2F5891",
"i  c #305992",
"p  c #315D97",
"a  c #325E97",
"s  c #325E98",
"d  c #355F99",
"f  c #3A5B90",
"g  c #366199",
"h  c #39639B",
"j  c #3F689F",
"k  c #3E69A1",
"l  c #3E6AA2",
"z  c #40689F",
"x  c #4A6C9D",
"c  c #4D6A99",
"v  c #466DA2",
"b  c #446FA6",
"n  c #476FA4",
"m  c #4570A7",
"M  c #4670A7",
"N  c #4870A4",
"B  c #4871A7",
"V  c #4973A7",
"C  c #4B72A6",
"Z  c #4C76AB",
"A  c #4F76A9",
"S  c #4C78AE",
"D  c #4C7DB4",
"F  c #4F7EB4",
"G  c #5071A1",
"H  c #5579AB",
"J  c #5D7CA7",
"K  c #5181B7",
"L  c #5481B5",
"P  c #5A84B6",
"I  c #5C88BB",
"U  c #6283B0",
"Y  c #618BBC",
"T  c #608DBF",
"R  c #618CBE",
"E  c #618DBE",
"W  c #628DBD",
"Q  c #6C91BE",
"!  c #6E91BC",
"~  c #7390B8",
"^  c #7B97BD",
"/  c #608DC0",
"(  c #6692C3",
")  c #6B95C3",
"_  c #6C93C1",
"`  c #6D9ACB",
"'  c #6F9AC8",
"]  c #6E9ACB",
"[  c #6E9BCC",
"{  c #7296C1",
"}  c #7297C2",
"|  c #749AC6",
" . c #709CCC",
".. c #769FCE",
"X. c #789BC4",
"o. c #7B9CC4",
"O. c #7AA3CE",
"+. c #7EA1CB",
"@. c gray61",
"#. c #8391AC",
"$. c #9FA8B8",
"%. c #A9AFB8",
"&. c #87A1C3",
"*. c #82A3CB",
"=. c #80A3CC",
"-. c #82A6CD",
";. c #84A3C9",
":. c #8FA4C3",
">. c #83A8D1",
",. c #83AAD3",
"<. c #85A9D0",
"1. c #8EAFD5",
"2. c #92AACA",
"3. c #91AFD1",
"4. c #91B4DB",
"5. c #95B5D8",
"6. c #98B9DE",
"7. c #9CB9DC",
"8. c #A2B5D0",
"9. c #A3BFDD",
"0. c #ADC2DB",
"q. c #AEC2DA",
"w. c #B1C6DE",
"e. c #B4CAE3",
"r. c #B1CEEC",
"t. c #B3CFEE",
"y. c #BBCCE1",
"u. c #B5D1EF",
"i. c #CFD5E0",
"p. c #C9DAED",
"a. c #C5DBF2",
"s. c #D4DEEC",
"d. c #C9E0F6",
"f. c #C8E0F8",
"g. c #C8E0F9",
"h. c #CEE5FC",
"j. c #DBE4EE",
"k. c #DCE4EF",
"l. c #D2E1F0",
"z. c #D3E9FF",
"x. c #D7EBFF",
"c. c #DCEAF8",
"v. c #E0E9F3",
"b. c #E2EBF6",
"n. c #E4EBF3",
"m. c #E6EDF5",
"M. c #E7EDF4",
"N. c #E1EEFB",
"B. c #E7F2FD",
"V. c #E6F2FF",
"C. c #E8F3FF",
"Z. c #E8F4FF",
"A. c #EFF6FD",
"S. c #F1F5F9",
"D. c #F5F7FA",
"F. c #F6F9FB",
"G. c #FBFDFF",
"H. c #FEFEFF",
"J. c None",
/* pixels */
"J.J.J.J.J.J.J.J.J.J.J.J.J.J.J.J.",
"J.J.J.J.: 6 9 9 9 t w - J.J.J.J.",
"J.J.J.- : M T ] ] ( Z 9 w J.J.J.",
"J.J.- u ) 5.t.p.b.l.1.Y i f J.J.",
"J.:.9 | m.j.N.G.G.v.2.A I 1 < J.",
"J.x M ;.s.B.Z.V.S.y.+.! } M 4 J.",
"J.t T X.d.B.z.x.a.H M V l T t J.",
"J.:  .7.c.g.h.g.*.n j h l [ - J.",
"J.- ..S.k.e.u.r.1.V j g a [ : J.",
"J.- _ c.D.8.Q 6.4.>.P a a / - J.",
"J.: C 0.&.U ^ >.O.] } ~ o.V 3 J.",
"J.: - E K d n <.*.*.0.F.q.c G J.",
"J.J.# y I S K K D E w.M.i.$.% J.",
"J.J.  + : M T [ [ E J #.%.@.. J.",
"J.J.J.  o $ 7 - - @ O & * X   J.",
"J.J.J.J.                  J.J.J."
};
