/* XPM */
static char *applications-accessories[] = {
/* columns rows colors chars-per-pixel */
"16 16 163 2",
"   c black",
".  c #A60101",
"X  c #A60202",
"o  c #A70402",
"O  c #A60606",
"+  c #A70606",
"@  c #A80303",
"#  c #A80403",
"$  c #A80606",
"%  c #A90707",
"&  c #A90D06",
"*  c #A90A0A",
"=  c #A90B0A",
"-  c #AB0D0D",
";  c #AA0E0E",
":  c #AC1B0A",
">  c #AE180A",
",  c #AB1010",
"<  c #AB1310",
"1  c #AB1313",
"2  c #AB1414",
"3  c #AB1715",
"4  c #AA1717",
"5  c #AE1811",
"6  c #AC1917",
"7  c #AE1818",
"8  c #AE1919",
"9  c #AF1A1A",
"0  c #B50B0B",
"q  c #B70F0E",
"w  c #AD2112",
"e  c #AF2114",
"r  c #B83421",
"t  c #B83B22",
"y  c #B04F00",
"u  c #B8570F",
"i  c #B95E0C",
"p  c #BC5C09",
"a  c #BD4227",
"s  c #C01514",
"d  c #C01914",
"f  c #C71A19",
"g  c #C91A1A",
"h  c #CC1E1B",
"j  c #CE1D1D",
"k  c #CF1D1D",
"l  c #CE1E1D",
"z  c #CE1E1E",
"x  c #D01F1F",
"c  c #CB201F",
"v  c #CD201D",
"b  c #CF201D",
"n  c #CC251F",
"m  c #D0201F",
"M  c #D0211E",
"N  c #D0211F",
"B  c #D22020",
"V  c #D32121",
"C  c #D42322",
"Z  c #D52323",
"A  c #D62423",
"S  c #DB2727",
"D  c #C35210",
"F  c #C2860B",
"G  c #C48C15",
"H  c #D48E2C",
"J  c #C4A000",
"K  c #C4A001",
"L  c #C5A103",
"P  c #C5A202",
"I  c #C5A203",
"U  c #C6A202",
"Y  c #C6A303",
"T  c #C5A104",
"R  c #C6A207",
"E  c #C6A208",
"W  c #C6A209",
"Q  c #C7A309",
"!  c #C6A30A",
"~  c #C7A30B",
"^  c #C7A40A",
"/  c #C7A40C",
"(  c #C7A40D",
")  c #C7A50E",
"_  c #C7A50F",
"`  c #C8A40B",
"'  c #CAA708",
"]  c #C8A40C",
"[  c #C8A50D",
"{  c #C8A50E",
"}  c #C8A610",
"|  c #CAA810",
" . c #DBAA3B",
".. c #D0B322",
"X. c #D0B326",
"o. c #D9BE3A",
"O. c #D3914D",
"+. c #DAAC52",
"@. c #DEC325",
"#. c #E1C529",
"$. c #E5CB2F",
"%. c #E8D034",
"&. c #EAD237",
"*. c #E8D13C",
"=. c #EDD63A",
"-. c #F1DA3F",
";. c #E3CE57",
":. c #E5D05D",
">. c #F4DF44",
",. c #E5D162",
"<. c #E8D466",
"1. c #E8D46B",
"2. c #EAD76D",
"3. c #EBD970",
"4. c #EBDA75",
"5. c #ECDA77",
"6. c #ECDC7A",
"7. c #EEDE7A",
"8. c #F7E66B",
"9. c #F9E862",
"0. c #F6E574",
"q. c #8A8C87",
"w. c #8B8D88",
"e. c #8D8F8A",
"r. c #8E908B",
"t. c #8F918C",
"y. c #90918D",
"u. c #92948F",
"i. c #939590",
"p. c #959792",
"a. c #9A9C97",
"s. c #9E9F9B",
"d. c #A8A9A5",
"f. c #AAACA7",
"g. c #AEAFAB",
"h. c #B3B5B0",
"j. c #B5B6B2",
"k. c #B5B6B3",
"l. c #B6B8B3",
"z. c #B8BAB5",
"x. c #BABBB7",
"c. c #F2E284",
"v. c #F2E388",
"b. c #F4E68B",
"n. c #F7EA94",
"m. c #F7EB9B",
"M. c #F9EE9C",
"N. c #FBF1A4",
"B. c #FBF1A7",
"V. c #FDF4AD",
"C. c #FDF5B1",
"Z. c #FDF6BC",
"A. c #C6C8C3",
"S. c #CCCEC9",
"D. c #CDCECB",
"F. c #D2D3D0",
"G. c #D2D4D0",
"H. c #DBDCD9",
"J. c #E1E1DF",
"K. c #EFF0EF",
"L. c #F7F7F6",
"P. c gray97",
"I. c None",
/* pixels */
"I.I.w.w.u.I.I.I.I.w.y.I.I.I.I.J ",
"I.I.r.P.w.p.I.I.y.G.r.I.I.I.J J ",
"I.I.w.G.K.u.I.w.f.A.e.I.I.J J Y ",
"I.I.e.h.P.w.p.r.S.g.w.I.J Y 5.} ",
"I.I.q.w.H.K.e.l.D.w.e.J Y ;.Z.} ",
"I.I.I.e.j.P.s.j.x.w.I.Y o.V.C._ ",
"I.I.I.w.w.J.a.d.w.w.J ..N.9.N._ ",
"I.I.I.I.e.x.f.r.q.J } m.8.>.M._ ",
"I.I.I.7 4 O X f 6 u v.0.&.>.n.~ ",
"I.7 % x z q o g b c = H ' =.v.~ ",
"7 + x @ q + y z q a n + i %.c.~ ",
"1 S @ I.x - J o C =.i b w $.7.~ ",
"- x I.0 V > X.r Z D J b < #.3.~ ",
"1 S x z & G 6. .> Z b z w @.<.Y ",
"7 ; ; 3 F 1.5.2.O.t > e +.:.,.~ ",
"I.I.J J Y [ [ [ [ [ Q ~ ~ ~ ~ K "
};
