/* XPM */
static char *applications-games[] = {
/* columns rows colors chars-per-pixel */
"16 16 24 1",
"  c black",
". c #010101",
"X c #0E0E0E",
"o c gray7",
"O c #747474",
"+ c #EF2929",
"@ c #EF2C2C",
"# c #EF2E2E",
"$ c #EF3333",
"% c #EF3434",
"& c #EF3636",
"* c #EF3737",
"= c #EF3939",
"- c #EF4B4B",
"; c #EF5050",
": c #EF6464",
"> c gray53",
", c #888A85",
"< c gray55",
"1 c gray59",
"2 c #D8D8D8",
"3 c #EFC8C8",
"4 c gray94",
"5 c gray100",
/* pixels */
",,,,,,,,,,,,,,,,",
",5555,555555555,",
",5444,544444445,",
",52<4,544444445,",
",5O.1,544444445,",
",5o.X,544444445,",
",54.4,54&@:==45,",
",54>4,54$$@@@45,",
",5444,54&@@+@45,",
",5444,543-@;345,",
",5444,5443-3445,",
",5444,544434445,",
",5444,544444445,",
",5444,544444445,",
",5555,555555555,",
",,,,,,,,,,,,,,,,"
};
