/* XPM */
static char *applications-graphics[] = {
/* columns rows colors chars-per-pixel */
"16 16 82 1",
"  c black",
". c #0B0B0B",
"X c gray5",
"o c #111111",
"O c #131313",
"+ c #161616",
"@ c #171716",
"# c #181818",
"$ c #191919",
"% c gray10",
"& c gray13",
"* c #272727",
"= c #2D2D2D",
"- c gray20",
"; c #3F3F3F",
": c #673907",
"> c #6B3B07",
", c #6E3D07",
"< c #723F08",
"1 c #694013",
"2 c gray25",
"3 c #424241",
"4 c #4B4B4B",
"5 c #5D5E5D",
"6 c #686868",
"7 c #6C6E6A",
"8 c #7F786B",
"9 c #8B4D0A",
"0 c #874F14",
"q c #93550E",
"w c #9A5916",
"e c #A16D32",
"r c #80735E",
"t c #CE7311",
"y c #D87F1B",
"u c #E07C12",
"i c #E37E13",
"p c #878278",
"a c #84867F",
"s c #A88764",
"d c #CD873A",
"f c #E4871F",
"g c #E88216",
"h c #E88822",
"j c #E19039",
"k c #E9963B",
"l c #E09647",
"z c gray51",
"x c gray52",
"c c #868B86",
"v c #878C87",
"b c #898983",
"n c #8B8A83",
"m c #898984",
"M c #888A86",
"N c #898B86",
"B c #8B8D88",
"V c #8C8D88",
"C c #8D8F8A",
"Z c #8D8D8D",
"A c #9F9F9E",
"S c #9FA09E",
"D c #A1A29F",
"F c #A7A7A7",
"G c #A7A8A6",
"H c #A9A9A5",
"J c #A8A9A6",
"K c gray67",
"L c #AFB0AE",
"P c #B1B1B1",
"I c gray70",
"U c #B5B6B3",
"Y c #BBBCBA",
"T c #C0C0C0",
"R c #CACACA",
"E c #E6E6E6",
"W c #ECECEC",
"Q c #EFEFEF",
"! c #F1F1F1",
"~ c #FBFBFB",
"^ c gray100",
"/ c None",
/* pixels */
"////////////////",
"///////////,////",
"//////////>wfu//",
"/////////:0lfuu/",
"////////rrsjiht9",
"////////ZJHndkq:",
"///////vZ!EKce</",
"///////BY^RFFa>/",
"//////xN!EIFBa//",
"//////NU^TABc///",
"//// $35LABb////",
"/// o6z;&7c/////",
"/// $ZJ4*@//////",
"//  X=3-$ //////",
"/    .@o  //////",
"         ///////"
};
