/* XPM */
static char *applications-multimedia[] = {
/* columns rows colors chars-per-pixel */
"16 16 63 1",
"  c gray10",
". c #2E3436",
"X c #343839",
"o c #3A3D3E",
"O c #3E3E3E",
"+ c #3E4142",
"@ c #3F4243",
"# c #3F4244",
"$ c #434343",
"% c #404344",
"& c #404444",
"* c #414445",
"= c #414446",
"- c #434546",
"; c #4E4E4E",
": c gray31",
"> c #505050",
", c #515151",
"< c gray32",
"1 c #535353",
"2 c gray33",
"3 c #555555",
"4 c gray34",
"5 c #585858",
"6 c gray35",
"7 c #5B5B5B",
"8 c gray36",
"9 c #5E6161",
"0 c gray40",
"q c #666868",
"w c #6A6C6C",
"e c #6C6E6E",
"r c #6E6F6F",
"t c #747474",
"y c #767676",
"u c #777777",
"i c gray47",
"p c #797979",
"a c gray48",
"s c #7C7C7C",
"d c gray49",
"f c gray51",
"g c #848484",
"h c gray52",
"j c #868686",
"k c gray53",
"l c #9A9A9A",
"z c gray61",
"x c #9F9F9F",
"c c #A5A5A5",
"v c #AAAAAA",
"b c #B1B1B1",
"n c gray73",
"m c #BBBBBB",
"M c #C5C5C5",
"N c gainsboro",
"B c #E4E4E4",
"V c gray93",
"C c #F1F1F1",
"Z c #F4F4F4",
"A c #F6F6F6",
"S c gray99",
"D c #FDFDFD",
/* pixels */
".----#-#####++oX",
".vCn$vCmOvCm$vj.",
".SV OSV OSV OSh.",
".SV OSV OSV OSh.",
".vCn%vCnOvCm$vj.",
".---%--###++++o.",
".9<<<<<<<<<<<<9.",
".q<Az664x44x<<q.",
".e<Zmp65x53x<,w.",
".r,MNxMMxxMx6,r.",
".y>7b78clmB0<>y.",
".d>xxxxMMxSx<>s.",
".p><4<3<<t,<>>p.",
".s>33<<<<,>,>;p.",
".pfjkkjjjffhffy.",
"................"
};
