/* XPM */
static char * dillo_32x32_xpm[] = {
"32 32 64 1",
"       c None",
".      c #20816DB68617",
"X      c #41039A699E79",
"o      c #38E3AAAAC71B",
"O      c #5965BAEACF3C",
"+      c #8E38D34CCF3C",
"@      c #CF3CEFBED75C",
"#      c #9E79DB6CCF3C",
"$      c #49248A288E38",
"%      c #8E38D75CAEBA",
"&      c #BEFBEFBECF3C",
"*      c #DF7DF3CEDF7D",
"=      c #5144BEFBD75C",
"-      c #A699DF7DB6DA",
";      c #CF3CE79DBEFB",
":      c #B6DAEBADBEFB",
">      c #AEBAEBADCF3C",
",      c #186182079658",
"<      c #30C245144924",
"1      c #082069A679E7",
"2      c #51449658A699",
"3      c #71C6CB2BD75C",
"4      c #5144B6DAAEBA",
"5      c #104049245965",
"6      c #10404D346185",
"7      c #79E7B6DAA699",
"8      c #CF3CDB6CB6DA",
"9      c #18619A69B6DA",
"0      c #30C255556185",
"q      c #618534D338E3",
"w      c #596561856185",
"e      c #8E3820811861",
"r      c #596518611861",
"t      c #410308200820",
"y      c #9E7908200000",
"u      c #38E3BAEACF3C",
"i      c #28A2A289C71B",
"p      c #CF3CCF3CAEBA",
"a      c #28A2AEBACF3C",
"s      c #104014511861",
"d      c #08203CF35144",
"f      c #30C2618569A6",
"g      c #D75CA2898617",
"h      c #186175D68E38",
"j      c #000000000000",
"k      c #1040AEBAC71B",
"l      c #104028A238E3",
"z      c #BEFB00000000",
"x      c #0820618569A6",
"c      c #08209E79B6DA",
"v      c #C71B5D755144",
"b      c #B6DA18611861",
"n      c #08204D345965",
"m      c #28A230C238E3",
"M      c #18618A28A699",
"N      c #30C21C711861",
"B      c #0000208130C2",
"V      c #DF7D14511040",
"C      c #1861249228A2",
"Z      c #082018612081",
"A      c #082030C24103",
"S      c #C71B410338E3",
"D      c #000038E35144",
"F      c #000004100820",
"                                ",
"                                ",
"           .XoO+@@#$.           ",
"          %%#+#&##**==.         ",
"        -;:;>#&+#&+*+=O,<       ",
"      12-@:&@&33&#333==O45      ",
"     6278*@@&>+3&**+3==OO95     ",
"    0$27;;*@>&&#&**&3==oqwqeer  ",
"   0.X278;*@:&#&&@>O3=oo<rtyyt  ",
"   5$X2888*&:>++>:>3uuoio2qyyt  ",
"  00$X2p88*@:-+>>-uaaoii9.ryys  ",
"  df$$2gpg;&---::Oaaiiiiihtyrj  ",
" f5ww.$7pp;--7-:%oaaaki9ihyyrfl ",
" 55f..1Xp;;%47%%uuuuaai990zyj6l ",
" 550<fhX78-4444Ou==Xwwww.qzyjxl ",
" s5<ff1.$g-2ckau=ovbzzzzbzzyjxs ",
" s5<501.,7899kaO2ebz.666zzzjn6s ",
" s5m<n1hM4-494oiezzf0x.6mzzjn5N ",
" ssB5n1.MM47%+uqzzm60,96qVvj6dd ",
" stldn1hMccka34bzed5,ia6evvj6<  ",
" CsZAnxhMcckkk0Svrm$7+36vgjj6Z  ",
" nssBDxh,ckkkkwvgm<$%&:6vgjdn   ",
"  CsZAD1,MckkkegvNfX%:%6gSjfl   ",
"  nCZBD51,ccckeSSNfX%76eSSj6    ",
"   nCBADnxhMMcqSSmxXM,6SSejZ    ",
"    CZAADDx1h,<SVex,h6zVVyj     ",
"     CsAADD5nxnyVVq<zzyVVVSvt   ",
"      nZBdDDDDDleVVVzA5rbbytt   ",
"       nsBADA5dDAsNCAd<NN C     ",
"         nFCBAddDD<<<d          ",
"            ddFFFFsd            ",
"                                "};
