/* XPM */
static char *face-smile[] = {
/* columns rows colors chars-per-pixel */
"16 16 169 2",
"   c black",
".  c #252521",
"X  c #2F2D26",
"o  c #32312D",
"O  c #4D4738",
"+  c #514A34",
"@  c #524F3A",
"#  c #665738",
"$  c #695F43",
"%  c #696144",
"&  c #696244",
"*  c #796E52",
"=  c #88790A",
"-  c #807039",
";  c #8A7C53",
":  c #CD5C00",
">  c #CD5E04",
",  c #CD6000",
"<  c #CD6001",
"1  c #CD6100",
"2  c #CD6102",
"3  c #CD6203",
"4  c #CD6204",
"5  c #CC6500",
"6  c #CC6501",
"7  c #CC6600",
"8  c #CC6700",
"9  c #CC6602",
"0  c #CA6C00",
"q  c #CA6D02",
"w  c #CB6F02",
"e  c #CC6800",
"r  c #CC6901",
"t  c #CC6802",
"y  c #CC7003",
"u  c #CD7204",
"i  c #CE7506",
"p  c #CE7606",
"a  c #CE7707",
"s  c #8B8258",
"d  c #9A8853",
"f  c #B69353",
"g  c #BEA843",
"h  c #B9A267",
"j  c #BDA066",
"k  c #B9A96C",
"l  c #B9AE75",
"z  c #E28C38",
"x  c #E28F3C",
"c  c #E3903D",
"v  c #F6A11D",
"b  c #F7A31E",
"n  c #F8A51F",
"m  c #F7A525",
"M  c #F8A324",
"N  c #F8A721",
"B  c #F8A923",
"V  c #F8A929",
"C  c #F9AF2B",
"Z  c #F8AC30",
"A  c #F6B124",
"S  c #F6B52A",
"D  c #F7B72C",
"F  c #F6BC28",
"G  c #F9B330",
"H  c #F8BA3C",
"J  c #D3A44A",
"K  c #CEB16C",
"L  c #D3B866",
"P  c #D2BD79",
"I  c #E39340",
"U  c #E49747",
"Y  c #E49848",
"T  c #E49B4C",
"R  c #F7AF48",
"E  c #F8B442",
"W  c #F8B84C",
"Q  c #F9BB53",
"!  c #F1B875",
"~  c #F2B974",
"^  c #F2BE7C",
"/  c #EFD63A",
"(  c #DBC249",
")  c #F9C142",
"_  c #F9C55F",
"`  c #F9C65F",
"'  c #FAC75E",
"]  c #F9C850",
"[  c #F9C367",
"{  c #F9C666",
"}  c #FACD60",
"|  c #FACF62",
" . c #F9CF65",
".. c #FBCD64",
"X. c #FACB6D",
"o. c #F3C07F",
"O. c #F8C272",
"+. c #F8C57B",
"@. c #F8C57C",
"#. c #FACA7E",
"$. c #FBD266",
"%. c #FBD16A",
"&. c #F6DF79",
"*. c #FAD477",
"=. c #FAD777",
"-. c #FBD379",
";. c #F8D17C",
":. c #FBD876",
">. c #FBDA77",
",. c #FCDD7D",
"<. c #CDBF97",
"1. c #E1CB83",
"2. c #E5CA80",
"3. c #EAD488",
"4. c #F2C081",
"5. c #F3C486",
"6. c #F5C283",
"7. c #F5C284",
"8. c #F5C587",
"9. c #F5C689",
"0. c #F9CB82",
"q. c #F9CE8A",
"w. c #F6CD93",
"e. c #F5CD94",
"r. c #F5CE96",
"t. c #FBD680",
"y. c #FBDB82",
"u. c #FBDF81",
"i. c #FBDD85",
"p. c #FBDE86",
"a. c #F7D09A",
"s. c #F7D49E",
"d. c #FAD696",
"f. c #FBDE9F",
"g. c #FCDF9F",
"h. c #E7D4B3",
"j. c #F7D6A3",
"k. c #F9DBAF",
"l. c #FADBAE",
"z. c #FCDEAA",
"x. c #F9DBB0",
"c. c #FADCB3",
"v. c #FBE086",
"b. c #FCE48F",
"n. c #FCE68F",
"m. c #FCE793",
"M. c #FCE895",
"N. c #FCE0A3",
"B. c #FCE2A5",
"V. c #FCE2A6",
"C. c #FCE7AD",
"Z. c #FAE8A4",
"A. c #FAE2BE",
"S. c #FAE3BF",
"D. c #F8E7BD",
"F. c #FCECB1",
"G. c #FCECB2",
"H. c #FCEFB5",
"J. c #FCE9BD",
"K. c #FCF0B3",
"L. c #FCF0B6",
"P. c #FCE6C5",
"I. c #FCE7C6",
"U. c #FCE9C8",
"Y. c #FCEBCC",
"T. c #FDEDCF",
"R. c #FCEDD7",
"E. c #FDF1D7",
"W. c None",
/* pixels */
"W.W.W.W.0 r < > 4 r 0 W.W.W.W.W.",
"W.W.0 6 T j.Y.R.U.a.Y 6 0 W.W.W.",
"W.0 < r.N.| $.%...' d.5.< w W.W.",
"W.6 r.*.>.p.p.p.y.t.X.[ 4.6 W.W.",
"0 U M.;.p.k & F.$ h N.{ q.c u W.",
"6 s.$.>.n.s . K.X ; B.` W 9.r W.",
"< U.' ,.m.l @ H.% <.V.` E c.< W.",
": D.] L n.H.H.M.F.C.-.J Z S.: W.",
"< P.) = d P 3.1.o.K # f m x.< W.",
"r r.H ( g - + o O * h h.O.4.r W.",
"y c ;.F / &.Z.J.E.T.V.0.@.z u W.",
"W.6 ^ Q A S D G S B v R ! 6 W.W.",
"W.a < o.0.V B n b M +.~ < a W.W.",
"W.W.u 6 z 8.x.S.l.6.z r a W.W.W.",
"W.W.W.W.y r < : < r u W.W.W.W.W.",
"W.W.W.W.W.W.W.W.W.W.W.W.W.W.W.W."
};
