/* XPM */
static char * folder_16x16_xpm[] = {
"16 16 77 1",
" 	c None",
".	c #9595A1",
"+	c #3E3E44",
"@	c #46464F",
"#	c #7B7B8B",
"$	c #7B7B8E",
"%	c #3C3C44",
"&	c #36363D",
"*	c #494B54",
"=	c #53555F",
"-	c #6E737F",
";	c #A6AAB1",
">	c #D4D6D9",
",	c #737483",
"'	c #555661",
")	c #A0A2AE",
"!	c #36373D",
"~	c #3F424B",
"{	c #41444B",
"]	c #3F4349",
"^	c #555B61",
"/	c #6B6D7A",
"(	c #35373B",
"_	c #7B7F8B",
":	c #2E3035",
"<	c #3E4148",
"[	c #44494E",
"}	c #5C6368",
"|	c #50535A",
"1	c #303336",
"2	c #747882",
"3	c #2E3033",
"4	c #32343A",
"5	c #3C3F44",
"6	c #464B4F",
"7	c #4C5155",
"8	c #666F75",
"9	c #4B4E52",
"0	c #3B3F42",
"a	c #747A82",
"b	c #2F3034",
"c	c #313437",
"d	c #323538",
"e	c #494E52",
"f	c #525A5E",
"g	c #6E7B7F",
"h	c #555D61",
"i	c #424A4C",
"j	c #787E86",
"k	c #34373A",
"l	c #586166",
"m	c #778487",
"n	c #606B6E",
"o	c #4E5759",
"p	c #869095",
"q	c #35383B",
"r	c #586266",
"s	c #7D8B8E",
"t	c #687779",
"u	c #576667",
"v	c #9CA7AA",
"w	c #687879",
"x	c #5E6E70",
"y	c #A8B4B5",
"z	c #657576",
"A	c #B1BEBF",
"B	c #637474",
"C	c #677A7C",
"D	c #B7C4C4",
"E	c #768A8A",
"F	c #7A8E8F",
"G	c #BBC7C8",
"H	c #8FA5A5",
"I	c #CFD8D7",
"J	c #809899",
"K	c #D7E0DF",
"L	c #DCE2E2",
".+@#            ",
"$#%&*=-;>       ",
",')!~~{]^       ",
"/(_:<{][}       ",
"|12345678       ",
"90abcdefg       ",
"hijkkkelm       ",
"nopkqkers       ",
"tuvkqkers       ",
"wxykqkers       ",
"zzAkkkers       ",
"BCDkkkers       ",
"EFGkqkers       ",
" HIkqkers       ",
" JK             ",
"  L             "};
