/* XPM */
static char *go-home[] = {
/* columns rows colors chars-per-pixel */
"16 16 83 1",
"  c black",
". c #555753",
"X c #7B4C4A",
"o c #656763",
"O c gray46",
"+ c #757676",
"@ c #72757A",
"# c #75787B",
"$ c #77787A",
"% c #75787C",
"& c #76797C",
"* c #76797D",
"= c #3465A4",
"- c #4A76AE",
"; c #6E7681",
": c #717881",
"> c #7E807B",
", c #7F817C",
"< c #5F86B7",
"1 c #7798C2",
"2 c #7999C3",
"3 c #A40000",
"4 c #885A58",
"5 c #995D5B",
"6 c #9D7573",
"7 c #EF2929",
"8 c #8A8865",
"9 c #80827D",
"0 c #88897E",
"q c #848582",
"w c #848681",
"e c #868883",
"r c #878984",
"t c #888A85",
"y c #8F908D",
"u c #979994",
"i c #989996",
"p c #999A96",
"a c #9B9B9A",
"s c #9FA09E",
"d c #A38D8B",
"f c #A79F9D",
"g c #A2A3A1",
"h c #A2A2A2",
"j c #A3A3A2",
"k c gray64",
"l c #A4A4A4",
"z c #B3B3B1",
"x c #B1B3B6",
"c c #B8B9B8",
"v c #BABAB9",
"b c #BABBBC",
"n c #BFBFBE",
"m c #B8BCC1",
"M c #B9BDC1",
"N c #C08A8A",
"B c #C4A1A1",
"V c #C9B5B5",
"C c #C2C2C1",
"Z c #D7D7D7",
"A c #DCD0D0",
"S c #D8D8D8",
"D c #DADADA",
"F c #DDDDDD",
"G c #DEDEDD",
"H c #E2E3E2",
"J c gray89",
"K c #E4E4E4",
"L c #E7E4E4",
"P c #E6E6E6",
"I c #E7E7E7",
"U c #E9E9E9",
"Y c #EAEAEA",
"T c #EEEEEE",
"R c #EFEFEF",
"E c gray94",
"W c #F1F1F1",
"Q c gray95",
"! c #F3F3F3",
"~ c #F4F4F4",
"^ c gray96",
"/ c #FBFBFB",
"( c None",
/* pixels */
"((((((7337((((((",
"(((((737737(((((",
"((((737X5737((((",
"(((7375<fd737(((",
"((7376ybCbB737((",
"(737dsVGGGAV737(",
"737fgSYUYYULA737",
"37zgSPUIIILLLY73",
"37H....I$$O*O~73",
"(.Q.>99I$2O2*~.(",
"(.Q.wwwI*<O-@!.(",
"(.E.wr8I:=O=;!.(",
"(.R.rrrIxMbMlQ.(",
"(.R.rrrIglllkQ.(",
"(.~oupp!~~~~~/.(",
"(..............("
};
