/* XPM */
static char *media-cdrom[] = {
/* columns rows colors chars-per-pixel */
"16 16 119 2",
"   c black",
".  c #5B5C5A",
"X  c #666764",
"o  c #6A6A68",
"O  c #6A6B68",
"+  c #6B6C69",
"@  c #6C6D6A",
"#  c #6F706D",
"$  c #71726F",
"%  c #727370",
"&  c #727371",
"*  c #747572",
"=  c #777875",
"-  c #797A77",
";  c #7C7C7B",
":  c #7C7D7A",
">  c #7D7D7B",
",  c #7E7E7C",
"<  c #80817E",
"1  c #9A9B98",
"2  c #A7A7A6",
"3  c #A9A9A9",
"4  c #ABACA9",
"5  c #ACADAA",
"6  c #ADADAC",
"7  c #AFB0AE",
"8  c #B0B1AE",
"9  c #B0B1AF",
"0  c #B1B2AF",
"q  c #B1B2B0",
"w  c #B5B6B3",
"e  c #B5B5B4",
"r  c #B7B8B5",
"t  c #B9B9B9",
"y  c #BBBBBA",
"u  c #BCBCBC",
"i  c gray74",
"p  c gray",
"a  c gray75",
"s  c #C0C1BF",
"d  c #C1C2BF",
"f  c #C1C1C0",
"g  c #C1C1C1",
"h  c #C1C2C1",
"j  c gray76",
"k  c #C3C3C2",
"l  c #C3C3C3",
"z  c #C3C4C3",
"x  c #C4C4C3",
"c  c #C4C5C3",
"v  c #C5C6C3",
"b  c gray77",
"n  c #C5C5C4",
"m  c #C5C5C5",
"M  c #C5C6C4",
"N  c #C5C6C5",
"B  c #C6C6C6",
"V  c gray78",
"C  c #C8C8C7",
"Z  c #C8C8C8",
"A  c gray79",
"S  c #CACAC9",
"D  c #CACBC9",
"F  c #CCCDCA",
"G  c gray80",
"H  c #CDCDCD",
"J  c #CECECE",
"K  c gray81",
"L  c #D0D0D0",
"P  c gray82",
"I  c #D2D2D2",
"U  c LightGray",
"Y  c #D4D5D3",
"T  c #D5D5D5",
"R  c #D6D7D4",
"E  c gray84",
"W  c #D7D7D7",
"Q  c #D8D8D8",
"!  c gray85",
"~  c #D9DAD9",
"^  c #DADAD9",
"/  c #DADADA",
"(  c gray86",
")  c #DBDCDA",
"_  c gainsboro",
"`  c #DDDDDD",
"'  c #DEDEDD",
"]  c gray87",
"[  c #DFDFDF",
"{  c #E0E0DF",
"}  c #E1E1E1",
"|  c #E2E2E2",
" . c gray89",
".. c #E4E4E4",
"X. c gray90",
"o. c #E6E6E6",
"O. c #E7E7E7",
"+. c gray91",
"@. c #E9E9E9",
"#. c #EAEAEA",
"$. c gray92",
"%. c #ECECEB",
"&. c gray93",
"*. c #EEEEEE",
"=. c #EFEFEE",
"-. c gray94",
";. c #F1F1F1",
":. c #F3F3F3",
">. c #F4F4F4",
",. c gray96",
"<. c #F6F6F6",
"1. c gray97",
"2. c #F9F9F9",
"3. c gray98",
"4. c #FBFBFB",
"5. c gray99",
"6. c #FDFDFD",
"7. c #FEFEFE",
"8. c None",
/* pixels */
"8.8.8.8.+ + + + + + + + 8.8.8.8.",
"8.8.8.+ , ( ,.6.6.:.~ , + 8.8.8.",
"8.8.+ M 4.E K K P ( *.6.M + 8.8.",
"8.+ M *.i y l Z K ~ ..@.,.l + 8.",
"+ , 6.K l e 6 0 w D ` +.*.6.; + ",
"+ ~ X.P l l M P W ..F { } $.Z + ",
"+ ,.} W s K 2 % $ C @.l E ` X.+ ",
"+ 6.O.[ s ` % ; $ * 3.0 P W @.+ ",
"+ 6.*.X.l @.* + + $ 3.4 K U X.+ ",
"+ ,.;.%.Y } V $ # l ( 0 Z K ~ + ",
"+ ` 5.:.%.R ;.3.3._ 1 y M P M + ",
"+ < 6.5.1.=.` e 4 8 y y l +.; + ",
"8.+ l 6.4.1.*.` E K M t ` 6 + 8.",
"8.8.+ s 5.4.*. .` E W X.2 + 8.  ",
"8.8.8.+ = L O.:.=.} l = + 8.8.8.",
"8.8.    . X + + + + X + 8.8.8.8."
};
