/* XPM */
static char *name[] = {
/* columns rows colors chars-per-pixel */
"16 16 139 2",
"   c black",
".  c #101012122121",
"X  c #363648487878",
"o  c #6F6F56567474",
"O  c #777748486161",
"+  c #707054547272",
"@  c #404055558383",
"#  c #4E4E64648F8F",
"$  c #515167679090",
"%  c #515169699494",
"&  c #50506A6A9696",
"*  c #57576F6F9595",
"=  c #54546E6E9898",
"-  c #5A5A6B6B9393",
";  c #5B5B6D6D9494",
":  c #565671719D9D",
">  c #595971719999",
",  c #585874749D9D",
"<  c #5A5A76769F9F",
"1  c #58587777A2A2",
"2  c #5A5A7979A4A4",
"3  c #5A5A7A7AA4A4",
"4  c #5D5D7D7DA6A6",
"5  c #656565658888",
"6  c #686862628484",
"7  c #6B6B7B7B9F9F",
"8  c #60607A7AA3A3",
"9  c #61617F7FA8A8",
"0  c #4F4F8080B6B6",
"q  c #56568585B7B7",
"w  c #59598888BCBC",
"e  c #69698383A6A6",
"r  c #6D6D9090B7B7",
"t  c #76768B8BADAD",
"y  c #75759191B4B4",
"u  c #77779292B6B6",
"i  c #79799494B6B6",
"p  c #7A7A9595B7B7",
"a  c #7E7E9797B9B9",
"s  c #62628F8FC1C1",
"d  c #6B6B9696C6C6",
"f  c #6C6C9696C5C5",
"g  c #71719B9BC9C9",
"h  c #75759F9FCBCB",
"j  c #9E9E08080B0B",
"k  c #999911111616",
"l  c #939318182121",
"z  c #A4A400000000",
"x  c #848433334545",
"c  c #85859393B1B1",
"v  c #9D9DA6A6AEAE",
"b  c #AEAEB5B5BCBC",
"n  c #8383A7A7CECE",
"m  c #8484A6A6CACA",
"M  c #8B8BA7A7C7C7",
"N  c #9595A7A7C2C2",
"B  c #9393ABABC7C7",
"V  c #9494ACACC8C8",
"C  c #9E9EADADC5C5",
"Z  c #9B9BB2B2CCCC",
"A  c #9D9DB3B3CDCD",
"S  c #9393B6B6DCDC",
"D  c #9C9CBDBDE0E0",
"F  c #A0A0B4B4CDCD",
"G  c #A3A3B6B6CECE",
"H  c #A4A4B5B5C9C9",
"J  c #A5A5B7B7C9C9",
"K  c #AFAFB8B8CBCB",
"L  c #ADADB9B9CECE",
"P  c #A3A3B8B8D0D0",
"I  c #A2A2BDBDDADA",
"U  c #AAAABEBED3D3",
"Y  c #B5B5BEBEC8C8",
"T  c #B4B4BCBCCDCD",
"R  c #BABABFBFC4C4",
"E  c #B7B7C2C2CDCD",
"W  c #BCBCC4C4CCCC",
"Q  c #B1B1C2C2D6D6",
"!  c #B4B4C7C7DCDC",
"~  c #BEBEC7C7D0D0",
"^  c #BCBCC8C8D4D4",
"/  c #B8B8C9C9DDDD",
"(  c #BEBECBCBDADA",
")  c #BCBCCDCDDFDF",
"_  c #ACACCACAE9E9",
"`  c #B1B1CECEECEC",
"'  c #BEBECFCFE1E1",
"]  c #B5B5D1D1EEEE",
"[  c #BEBED4D4EBEB",
"{  c #BCBCD7D7F2F2",
"}  c #C0C0C6C6CECE",
"|  c #C4C4CACAD6D6",
" . c #C7C7CDCDD2D2",
".. c #C6C6CFCFD8D8",
"X. c #C8C8CECED4D4",
"o. c #C8C8CFCFD5D5",
"O. c #CECED0D0D1D1",
"+. c #CACAD5D5DFDF",
"@. c gray82",
"#. c #D7D7D9D9DBDB",
"$. c #D9D9DCDCDFDF",
"%. c #DCDCDDDDDFDF",
"&. c #C3C3D2D2E3E3",
"*. c #CFCFD9D9E2E2",
"=. c #CECEDBDBEAEA",
"-. c #CCCCDDDDEFEF",
";. c #D5D5DFDFEBEB",
":. c #DBDBDEDEE0E0",
">. c #C9C9E1E1F9F9",
",. c #CCCCE3E3FAFA",
"<. c #DFDFE1E1E3E3",
"1. c #DCDCE1E1E5E5",
"2. c #D9D9E1E1E9E9",
"3. c #DCDCE3E3E9E9",
"4. c #DCDCE4E4EDED",
"5. c #D4D4E5E5F6F6",
"6. c #D2D2E5E5F9F9",
"7. c #D5D5E8E8FCFC",
"8. c #DADAEAEAFAFA",
"9. c #DADAEBEBFCFC",
"0. c #DEDEEDEDFBFB",
"q. c #DEDEEEEEFFFF",
"w. c #DFDFEFEFFFFF",
"e. c #E2E2E2E2E2E2",
"r. c #E3E3E4E4E5E5",
"t. c #E2E2E4E4E6E6",
"y. c #E4E4E6E6E8E8",
"u. c #EDEDEEEEEFEF",
"i. c #EFEFEFEFEFEF",
"p. c #E6E6EBEBF0F0",
"a. c #E6E6EBEBF4F4",
"s. c #E2E2F1F1FFFF",
"d. c #F1F1F2F2F3F3",
"f. c #F4F4F4F4F5F5",
"g. c #F6F6F6F6F6F6",
"h. c #F8F8F9F9F9F9",
"j. c #F9F9F9F9F9F9",
"k. c #FEFEFEFEFEFE",
"l. c None",
/* pixels */
"X X X X X X X X 1 1 2 l.l.l.l.l.",
"l.X X X X 7 3.a.;.Q a 2 2 l.l.l.",
"l.: = - T *.R ( [ ^ 3.G 2 2 l.l.",
"l.> - | O.w.w.5.^ } :.p.G 2 l.l.",
"# X K r.+.s.s.8...#.f.j.2.i 2 l.",
"$ ; $.-.w.s.s.9. .~ H Y t.P 2 z ",
"@ c U ,.w.w.w.=.k.k.k.r.%.) 6 z ",
"X L _ { >.7.6.X.k.k.k.j.b &.o z ",
"& C E o.` ] _ U j.d.k.i.O./ o z ",
"1 N <.k.r.I D S m M f.e.v A x z ",
"4 i 2.k.k.u.n n h d <.@.H t k z ",
"l.9 Z 3.g.R g d s w @.W V O z z ",
"l.% 4 Z *.r w q 0 q E V 5 j z l.",
"l.l.@ e i A / ' ! Z y o j z l.l.",
"l.l.l.. * , 2 2 1 , l z z z z l.",
"l.l.l.l.l.l.l.l.z z z z z z z z "
};
