/* XPM */
static char *preferences-desktop[] = {
/* columns rows colors chars-per-pixel */
"16 16 44 1",
"  c #484E4F",
". c #4E5557",
"X c #545D5F",
"o c #596366",
"O c #5A6467",
"+ c #5F6A6E",
"@ c #647175",
"# c #677579",
"$ c #9B9B9B",
"% c gray61",
"& c #9D9D9D",
"* c gray62",
"= c #9F9F9F",
"- c #A0A0A0",
"; c gray63",
": c #A5A5A5",
"> c #E2E2E2",
", c gray89",
"< c #E4E4E4",
"1 c gray90",
"2 c #E6E6E6",
"3 c gray91",
"4 c #EAEAEA",
"5 c gray92",
"6 c #ECECEC",
"7 c gray93",
"8 c #EEEEEC",
"9 c #EFEFED",
"0 c #EEEEEE",
"q c #EFEFEF",
"w c gray94",
"e c #F1F1F1",
"r c gray95",
"t c #F4F4F4",
"y c gray96",
"u c #F6F6F6",
"i c gray97",
"p c #F8F8F8",
"a c #F9F9F9",
"s c gray98",
"d c #FBFBFB",
"f c #FDFDFD",
"g c #FEFEFD",
"h c gray100",
/* pixels */
"***$*$$*$$*$$*$=",
"*aaadgdddddddda*",
"*g,,,,,,,3,3,3g*",
"$g$*$$*$3    ,g$",
"*g$gggg*3....3g*",
"*g*g00g$4XXXX3g$",
"$g*g00g$0oOOO4g*",
"$g$gggg*$$$$$=g*",
"*g$$$$$$:gggg=g*",
"*g4oooo0:g0qg=g$",
"*g4++++0:g0qg=g*",
"*g4@@@@q:gggg=g*",
"*g0####e$$$$$=g*",
"*gqqrtuadddautg$",
"*gggggggggggggg*",
";$$$$$*$$$$$*$$;"
};
