/* XPM */
static char *system-software-update[] = {
/* columns rows colors chars-per-pixel */
"16 16 170 2",
"   c black",
".  c #101221",
"X  c #364878",
"o  c #6E5471",
"O  c #6F5674",
"+  c #774861",
"@  c #705472",
"#  c #405583",
"$  c #4B6189",
"%  c #4E648F",
"&  c #516790",
"*  c #516994",
"=  c #506A96",
"-  c #576F95",
";  c #546E98",
":  c #5A6B93",
">  c #5B6D94",
",  c #56719D",
"<  c #597199",
"1  c #58749D",
"2  c #5A769F",
"3  c #5877A2",
"4  c #5C77A1",
"5  c #5978A2",
"6  c #5979A3",
"7  c #5A79A3",
"8  c #5A79A4",
"9  c #5A7AA4",
"0  c #5D7DA6",
"q  c #656588",
"w  c #686284",
"e  c #6B7B9F",
"r  c #607AA3",
"t  c #617FA8",
"y  c #4F80B6",
"u  c #5685B7",
"i  c #5686BA",
"p  c #5988BC",
"a  c #5C8ABD",
"s  c #6983A6",
"d  c #6D90B7",
"f  c #768BAD",
"g  c #7591B4",
"h  c #7792B6",
"j  c #7994B6",
"k  c #7A95B7",
"l  c #7E97B9",
"z  c #628FC1",
"x  c #6B96C6",
"c  c #6C96C5",
"v  c #719BC9",
"b  c #759FCB",
"n  c #9E080B",
"m  c #991116",
"M  c #931821",
"N  c #A40000",
"B  c #843345",
"V  c #8593B1",
"C  c #9DA6AE",
"Z  c #AEB5BC",
"A  c #83A7CE",
"S  c #84A6CA",
"D  c #8BA7C7",
"F  c #80A7D1",
"G  c #95A7C2",
"H  c #93ABC7",
"J  c #94ACC8",
"K  c #9EADC5",
"L  c #9AB0CB",
"P  c #9BB2CC",
"I  c #9CB2CB",
"U  c #9DB3CD",
"Y  c #9FB4CE",
"T  c #93B6DC",
"R  c #9CBDE0",
"E  c #A0B4CD",
"W  c #A3B6CE",
"Q  c #A4B5C9",
"!  c #A5B7C9",
"~  c #AFB8CB",
"^  c #ADB9CE",
"/  c #A3B8D0",
"(  c #A2BDDA",
")  c #A9BCD1",
"_  c #AABED3",
"`  c #B5BEC8",
"'  c #B4BCCD",
"]  c #B8BFC6",
"[  c #BABFC4",
"{  c #B7C2CD",
"}  c #BCC4CC",
"|  c #B3C1D0",
" . c #B1C2D6",
".. c #B4C7DC",
"X. c #B7C8DC",
"o. c #BEC7D0",
"O. c #BCC8D4",
"+. c #BECAD6",
"@. c #B8C9DD",
"#. c #BECBDA",
"$. c #BCCDDF",
"%. c #ACCAE9",
"&. c #B3CCE8",
"*. c #B1CEEC",
"=. c #BECFE1",
"-. c #B5D1EE",
";. c #BED4EB",
":. c #BCD7F2",
">. c #C0C6CE",
",. c #C4CAD6",
"<. c #C7CDD2",
"1. c #C6CFD8",
"2. c #C8CED4",
"3. c #C8CFD5",
"4. c #CED0D1",
"5. c #CED1D3",
"6. c #CAD5DF",
"7. c gray82",
"8. c LightGray",
"9. c #D7D9DB",
"0. c #D9DCDF",
"q. c #DCDDDF",
"w. c #C3D2E3",
"e. c #CCD7E2",
"r. c #CFD9E2",
"t. c #CEDBEA",
"y. c #CCDDEF",
"u. c #D5DFE9",
"i. c #D5DFEB",
"p. c #D6DFE9",
"a. c #DBDEE0",
"s. c #C9E1F9",
"d. c #CCE3FA",
"f. c #DFE1E3",
"g. c #DCE1E5",
"h. c #D9E1E9",
"j. c #DCE3E9",
"k. c #DCE4ED",
"l. c #D4E5F6",
"z. c #D2E5F9",
"x. c #D5E8FC",
"c. c #DAEAFA",
"v. c #DAEBFC",
"b. c #DEEDFB",
"n. c #DEEEFF",
"m. c #DFEFFF",
"M. c gray88",
"N. c #E2E2E2",
"B. c #E3E4E5",
"V. c #E2E4E6",
"C. c #E4E6E8",
"Z. c #EDEEEF",
"A. c #EFEFEF",
"S. c #E6EBF0",
"D. c #E6EBF4",
"F. c #E0EFFF",
"G. c #E2EFFE",
"H. c #E1F0FF",
"J. c #E2F1FF",
"K. c #E3F1FF",
"L. c #F1F2F3",
"P. c #F4F4F5",
"I. c gray96",
"U. c #F6F6F6",
"Y. c #F8F9F9",
"T. c #F9F9F9",
"R. c #FBFBFB",
"E. c #FDFDFD",
"W. c #FEFEFE",
"Q. c None",
/* pixels */
"X X X X X X X X 3 3 8 Q.Q.Q.Q.Q.",
"Q.X X X X e k.D.i. .l 8 8 Q.Q.Q.",
"Q., ; : ' r.[ #.;.O.j.W 8 9 Q.Q.",
"Q.< : ,.7.m.b.l.O.>.a.S.E 8 Q.Q.",
"% X ~ B.6.J.J.c.1.9.P.T.h.j 8 Q.",
"& > 0.y.m.J.J.v.<.o.Q ` C./ 8 N ",
"# V _ d.n.n.m.t.W.W.W.B.q.$.w N ",
"X ^ %.:.s.x.z.3.W.W.W.T.Z w.O N ",
"= K { 2.*.-.%._ Y.L.W.A.4.@.@ N ",
"3 G g.W.V.( R T S D P.N.C U B N ",
"r k h.W.W.Z.A A b c f.7.! f m N ",
"Q.t P j.U.[ v x z p 7.} J + N N ",
"Q.* 0 P r.d p u y u { H q n N Q.",
"Q.Q.# s h U @.=...P g O n N Q.Q.",
"Q.Q.Q.. - 2 8 8 3 1 M N N N N Q.",
"Q.Q.Q.Q.Q.Q.Q.Q.N N N N N N N N "
};
