/* XPM */
static char * xterm_16x16_xpm[] = {
"16 16 162 2",
"  	c None",
". 	c #E4E4E4",
"+ 	c #E5E5E5",
"@ 	c #E4E5E4",
"# 	c #E4E3E4",
"$ 	c #E5E6E5",
"% 	c #E4E6E4",
"& 	c #E5E7E5",
"* 	c #D7DCE4",
"= 	c #EEEFEE",
"- 	c #E3E1E3",
"; 	c #E2E2E2",
"> 	c #E0E2E0",
", 	c #E1E1E1",
"' 	c #E3E3E3",
") 	c #E3E5E3",
"! 	c #E3E4E3",
"~ 	c #E2E3E2",
"{ 	c #EAEDEA",
"] 	c #E8EBE8",
"^ 	c #505350",
"/ 	c #585B58",
"( 	c #545554",
"_ 	c #4C4F4C",
": 	c #474947",
"< 	c #3E423E",
"[ 	c #3A3B3A",
"} 	c #323332",
"| 	c #2B2C2B",
"1 	c #252625",
"2 	c #1D201D",
"3 	c #1C1E1C",
"4 	c #E2E7E2",
"5 	c #E6E9E6",
"6 	c #656665",
"7 	c #9A9A97",
"8 	c #8B8989",
"9 	c #636663",
"0 	c #5D5E5D",
"a 	c #505450",
"b 	c #4B4B4B",
"c 	c #404040",
"d 	c #373737",
"e 	c #2F302F",
"f 	c #252725",
"g 	c #212121",
"h 	c #DEE5DE",
"i 	c #E4E8E4",
"j 	c #646564",
"k 	c #969793",
"l 	c #787577",
"m 	c #616661",
"n 	c #5B5D5B",
"o 	c #484A48",
"p 	c #403F40",
"q 	c #363736",
"r 	c #2F2E2F",
"s 	c #232623",
"t 	c #DEE4DE",
"u 	c #E0E4E0",
"v 	c #646464",
"w 	c #707470",
"x 	c #757575",
"y 	c #7C7F7B",
"z 	c #505250",
"A 	c #403D40",
"B 	c #343634",
"C 	c #2F2D2F",
"D 	c #222522",
"E 	c #212021",
"F 	c #DEE0DE",
"G 	c #DFE2DF",
"H 	c #626462",
"I 	c #707370",
"J 	c #6B6B6B",
"K 	c #606460",
"L 	c #575B57",
"M 	c #505150",
"N 	c #464746",
"O 	c #3F3C3F",
"P 	c #323532",
"Q 	c #2E2C2E",
"R 	c #212421",
"S 	c #201F20",
"T 	c #DDDDDD",
"U 	c #616361",
"V 	c #707270",
"W 	c #696A69",
"X 	c #60625F",
"Y 	c #565A56",
"Z 	c #4F504F",
"` 	c #444644",
" .	c #3F3A3F",
"..	c #303530",
"+.	c #2C2B2C",
"@.	c #1F231F",
"#.	c #1F1D1F",
"$.	c #DDDBDD",
"%.	c #DDDCDD",
"&.	c #606260",
"*.	c #707170",
"=.	c #686968",
"-.	c #60615F",
";.	c #545954",
">.	c #4F4E4F",
",.	c #434443",
"'.	c #3D393D",
").	c #303330",
"!.	c #2B2A2B",
"~.	c #1F221F",
"{.	c #DAD7DA",
"].	c #D9DAD9",
"^.	c #5E625E",
"/.	c #6F6F6F",
"(.	c #666866",
"_.	c #5F605F",
":.	c #515651",
"<.	c #4F4D4F",
"[.	c #404440",
"}.	c #393839",
"|.	c #2F322F",
"1.	c #292829",
"2.	c #1F201F",
"3.	c #1F1C1F",
"4.	c #D2D6D2",
"5.	c #D6D8D6",
"6.	c #545854",
"7.	c #5A5C5A",
"8.	c #555755",
"9.	c #484C48",
"0.	c #464646",
"a.	c #3E403E",
"b.	c #393A39",
"c.	c #333533",
"d.	c #2E2F2E",
"e.	c #292A29",
"f.	c #2B2B2B",
"g.	c #CFD6CF",
"h.	c #D3D6D1",
"i.	c #C0B5AA",
"j.	c #C8CFC8",
"k.	c #D2D1D2",
"l.	c #CED0CE",
"m.	c #BBC4C3",
"n.	c #B7BFC1",
"o.	c #CFD1CF",
"p.	c #C9CFC9",
"q.	c #CFD0CF",
"r.	c #C3CBC1",
"s.	c #CDD4CD",
"t.	c #B6BAB6",
"u.	c #ADA8A0",
"v.	c #B3B5B3",
"w.	c #B1B5B1",
"x.	c #B2B7B2",
"y.	c #B1B6B1",
"z.	c #A6ADAB",
"A.	c #A4ABAA",
"B.	c #B0B5B0",
"C.	c #AEB4AE",
"D.	c #ABB0AB",
"E.	c #B1B4B1",
"                                ",
"                                ",
"    . . . + @ # @ $ @ % & @ *   ",
"  = # - - ; > , ' ) ' ! ) ~ {   ",
"  ] ^ / ( _ : < [ } | 1 2 3 4   ",
"  5 6 7 8 9 0 a b c d e f g h   ",
"  i j k l m n ^ o p q r s g t   ",
"  u v w x y m z : A B C D E F   ",
"  G H I J K L M N O P Q R S T   ",
"  F U V W X Y Z `  ...+.@.#.$.  ",
"  %.&.*.=.-.;.>.,.'.).!.~.#.{.  ",
"  ].^./.(._.:.<.[.}.|.1.2.3.4.  ",
"  5.6.7.8.z 9.0.a.b.c.d.e.f.g.  ",
"  h.i.j.j.k.l.m.n.o.p.p.q.r.s.  ",
"  t.u.v.w.x.y.z.A.y.B.C.B.D.E.  ",
"                                "};
